<svg xmlns="http://www.w3.org/2000/svg" xmlns:xlink="http://www.w3.org/1999/xlink" viewBox="0 0 512 512" width="512" height="512" preserveAspectRatio="xMidYMid meet" style="width: 100%; height: 100%; transform: translate3d(0px, 0px, 0px); content-visibility: visible;"><defs><clipPath id="__lottie_element_2"><rect width="512" height="512" x="0" y="0"/></clipPath></defs><g clip-path="url(#__lottie_element_2)"><g transform="matrix(0.9012300372123718,0,0,0.9048200249671936,0.50128173828125,-0.5164794921875)" opacity="1" style="display: block;"><g opacity="1" transform="matrix(1,0,0,1,280.802001953125,428.72198486328125)"><path fill="rgb(0,64,255)" fill-opacity="1" d=" M262.97198486328125,-81.53399658203125 C262.97198486328125,-81.53399658203125 280.802001953125,40.71699905395508 252.93499755859375,98.49700164794922 C225.06700134277344,156.27699279785156 -205.8780059814453,114.5 -244.17799377441406,74.68000030517578 C-282.4779968261719,34.861000061035156 -224.28799438476562,-105.427001953125 -224.28799438476562,-105.427001953125 C-224.28799438476562,-105.427001953125 58.689998626708984,-138.20700073242188 262.97198486328125,-81.53399658203125z"/></g><g opacity="1" transform="matrix(1,0,0,1,279.9649963378906,437.7569885253906)"><path stroke-linecap="butt" stroke-linejoin="miter" fill-opacity="0" stroke-miterlimit="10" stroke="rgb(29,29,27)" stroke-opacity="1" stroke-width="8" d=" M263.80999755859375,-90.56900024414062 C263.80999755859375,-90.56900024414062 281.6400146484375,31.68199920654297 253.7729949951172,89.46199798583984 C225.90499877929688,147.24200439453125 -205.0399932861328,105.46499633789062 -243.33999633789062,65.6449966430664 C-281.6400146484375,25.826000213623047 -223.4499969482422,-114.46199798583984 -223.4499969482422,-114.46199798583984 C-223.4499969482422,-114.46199798583984 59.52799987792969,-147.24200439453125 263.80999755859375,-90.56900024414062z"/></g><g opacity="1" transform="matrix(1,0,0,1,293.7929992675781,240.7429962158203)"><path fill="rgb(0,130,12)" fill-opacity="1" d=" M-263.89898681640625,60.29899978637695 C-270.2349853515625,90.50499725341797 -263.91400146484375,119.12799835205078 -260.51800537109375,131.11900329589844 C-259.4729919433594,134.80799865722656 -257.8680114746094,138.2169952392578 -255.75399780273438,141.13800048828125 C-233.11500549316406,172.4080047607422 -218.13400268554688,177.0399932861328 -185.36199951171875,189.75900268554688 C-91.37100219726562,226.23599243164062 29.665000915527344,224.0970001220703 124.91999816894531,191.11599731445312 C172.3419952392578,174.69500732421875 222.78700256347656,137.05999755859375 249.98199462890625,106.44499969482422 C249.98199462890625,106.44499969482422 282.8739929199219,-57.40999984741211 194.87399291992188,-144.74400329589844 C147.9530029296875,-191.30799865722656 120.52999877929688,-208.56100463867188 89.54000091552734,-218.74400329589844 C83.052001953125,-220.875 75.02100372314453,-222.35299682617188 66.24600219726562,-223.14199829101562 C31.849000930786133,-226.23599243164062 -2.503000020980835,-216.7030029296875 -30.915000915527344,-197.06900024414062 C-30.915000915527344,-197.06900024414062 -38.983001708984375,-191.4949951171875 -38.983001708984375,-191.4949951171875 C-38.983001708984375,-191.4949951171875 -60.143001556396484,-219.35699462890625 -109.79299926757812,-216.74400329589844 C-173.12600708007812,-213.41000366210938 -226.02099609375,-144.8419952392578 -226.02099609375,-144.8419952392578 C-226.02099609375,-144.8419952392578 -264.0580139160156,-127.79399871826172 -267.87298583984375,-96.94400024414062 C-267.87298583984375,-96.94400024414062 -273.135986328125,-64.61799621582031 -256.2330017089844,-17.8439998626709 C-254.13900756835938,-12.04800033569336 -253.3470001220703,-5.664999961853027 -253.968994140625,0.6539999842643738 C-254.88999938964844,10.013999938964844 -259.0639953613281,37.249000549316406 -263.89898681640625,60.29899978637695z"/></g><g opacity="1" transform="matrix(1,0,0,1,298.6619873046875,240.7429962158203)"><path stroke-linecap="butt" stroke-linejoin="miter" fill-opacity="0" stroke-miterlimit="10" stroke="rgb(29,29,27)" stroke-opacity="1" stroke-width="8" d=" M-268.76800537109375,60.29899978637695 C-275.10400390625,90.50499725341797 -268.7829895019531,119.12799835205078 -265.3869934082031,131.11900329589844 C-264.3420104980469,134.80799865722656 -262.73699951171875,138.2169952392578 -260.62298583984375,141.13800048828125 C-237.98399353027344,172.4080047607422 -223.0030059814453,177.0399932861328 -190.2310028076172,189.75900268554688 C-96.23999786376953,226.23599243164062 24.79599952697754,224.0970001220703 120.0510025024414,191.11599731445312 C167.47300720214844,174.69500732421875 217.91799926757812,137.05999755859375 245.11300659179688,106.44499969482422 C245.11300659179688,106.44499969482422 278.0050048828125,-57.40999984741211 190.0050048828125,-144.74400329589844 C143.08399963378906,-191.30799865722656 115.66100311279297,-208.56100463867188 84.6709976196289,-218.74400329589844 C78.18299865722656,-220.875 70.1520004272461,-222.35299682617188 61.37699890136719,-223.14199829101562 C26.979999542236328,-226.23599243164062 -7.372000217437744,-216.7030029296875 -35.784000396728516,-197.06900024414062 C-35.784000396728516,-197.06900024414062 -43.85200119018555,-191.4949951171875 -43.85200119018555,-191.4949951171875 C-43.85200119018555,-191.4949951171875 -65.01200103759766,-219.35699462890625 -114.66200256347656,-216.74400329589844 C-177.9949951171875,-213.41000366210938 -230.88999938964844,-144.8419952392578 -230.88999938964844,-144.8419952392578 C-230.88999938964844,-144.8419952392578 -268.927001953125,-127.79399871826172 -272.74200439453125,-96.94400024414062 C-272.74200439453125,-96.94400024414062 -278.0050048828125,-64.61799621582031 -261.10198974609375,-17.8439998626709 C-259.00799560546875,-12.04800033569336 -258.21600341796875,-5.664999961853027 -258.8380126953125,0.6539999842643738 C-259.7590026855469,10.013999938964844 -263.9330139160156,37.249000549316406 -268.76800537109375,60.29899978637695z"/></g><g opacity="1" transform="matrix(1,0,0,1,123.44499969482422,154.2899932861328)"><path fill="rgb(255,255,255)" fill-opacity="1" d=" M94.68599700927734,-0.23800000548362732 C72.88500213623047,-41.07500076293945 -54.00400161743164,-111.33399963378906 -95.06700134277344,-19.93899917602539 C-99.4990005493164,-10.074000358581543 -98.68900299072266,7.058000087738037 -94.66899871826172,18.391000747680664 C-91.73200225830078,26.67300033569336 -91.01300048828125,28.104000091552734 -84.41899871826172,37.630001068115234 C-63.62699890136719,67.6709976196289 34.95500183105469,111.33399963378906 92.64199829101562,30.500999450683594 C98.58100128173828,22.17799949645996 99.4990005493164,8.779000282287598 94.68599700927734,-0.23800000548362732z"/><path stroke-linecap="butt" stroke-linejoin="miter" fill-opacity="0" stroke-miterlimit="10" stroke="rgb(29,29,27)" stroke-opacity="1" stroke-width="6" d=" M94.68599700927734,-0.23800000548362732 C72.88500213623047,-41.07500076293945 -54.00400161743164,-111.33399963378906 -95.06700134277344,-19.93899917602539 C-99.4990005493164,-10.074000358581543 -98.68900299072266,7.058000087738037 -94.66899871826172,18.391000747680664 C-91.73200225830078,26.67300033569336 -91.01300048828125,28.104000091552734 -84.41899871826172,37.630001068115234 C-63.62699890136719,67.6709976196289 34.95500183105469,111.33399963378906 92.64199829101562,30.500999450683594 C98.58100128173828,22.17799949645996 99.4990005493164,8.779000282287598 94.68599700927734,-0.23800000548362732z"/></g><g opacity="1" transform="matrix(1,0,0,1,134.21600341796875,104.71099853515625)"><path fill="rgb(0,130,12)" fill-opacity="1" d=" M101.61799621582031,8.96500015258789 C65.0479965209961,-20.05500030517578 28.829999923706055,-44.676998138427734 -20.452999114990234,-36.27199935913086 C-27.777000427246094,-35.02299880981445 -35.882999420166016,-32.09700012207031 -43.88199996948242,-28.1299991607666 C-64.70600128173828,-17.80299949645996 -89.66000366210938,-5.541999816894531 -101.61699676513672,21.759000778198242 C-101.61699676513672,21.759000778198242 -93.43499755859375,12.67300033569336 -93.43499755859375,12.67300033569336 C-93.43499755859375,12.67300033569336 -75.38300323486328,-6.4029998779296875 -32.37300109863281,-7.501999855041504 C-23.29400062561035,-7.734000205993652 14.460000038146973,-10.682000160217285 84.00800323486328,44.676998138427734 C84.00800323486328,44.676998138427734 101.61799621582031,8.96500015258789 101.61799621582031,8.96500015258789z"/><path stroke-linecap="butt" stroke-linejoin="round" fill-opacity="0" stroke="rgb(29,29,27)" stroke-opacity="1" stroke-width="6" d=" M101.61799621582031,8.96500015258789 C65.0479965209961,-20.05500030517578 28.829999923706055,-44.676998138427734 -20.452999114990234,-36.27199935913086 C-27.777000427246094,-35.02299880981445 -35.882999420166016,-32.09700012207031 -43.88199996948242,-28.1299991607666 C-64.70600128173828,-17.80299949645996 -89.66000366210938,-5.541999816894531 -101.61699676513672,21.759000778198242 C-101.61699676513672,21.759000778198242 -93.43499755859375,12.67300033569336 -93.43499755859375,12.67300033569336 C-93.43499755859375,12.67300033569336 -75.38300323486328,-6.4029998779296875 -32.37300109863281,-7.501999855041504 C-23.29400062561035,-7.734000205993652 14.460000038146973,-10.682000160217285 84.00800323486328,44.676998138427734 C84.00800323486328,44.676998138427734 101.61799621582031,8.96500015258789 101.61799621582031,8.96500015258789z"/></g><g opacity="1" transform="matrix(1,0,0,1,323.239990234375,173.40199279785156)"><path fill="rgb(255,255,255)" fill-opacity="1" d=" M104.7030029296875,-19.45599937438965 C52.94599914550781,-46.084999084472656 -35.5,-96.74099731445312 -104.41200256347656,-45.47200012207031 C-113.06300354003906,-39.03499984741211 -114.16000366210938,-16.312000274658203 -109.37799835205078,1.2890000343322754 C-104.11599731445312,20.656999588012695 -96.58499908447266,28.055999755859375 -87.90699768066406,35.55400085449219 C-64.2229995727539,56.01599884033203 42.47999954223633,96.74099731445312 105.45999908447266,10.357999801635742 C112.03399658203125,1.340000033378601 114.16000366210938,-14.59000015258789 104.7030029296875,-19.45599937438965z"/><path stroke-linecap="butt" stroke-linejoin="miter" fill-opacity="0" stroke-miterlimit="10" stroke="rgb(29,29,27)" stroke-opacity="1" stroke-width="6" d=" M104.7030029296875,-19.45599937438965 C52.94599914550781,-46.084999084472656 -35.5,-96.74099731445312 -104.41200256347656,-45.47200012207031 C-113.06300354003906,-39.03499984741211 -114.16000366210938,-16.312000274658203 -109.37799835205078,1.2890000343322754 C-104.11599731445312,20.656999588012695 -96.58499908447266,28.055999755859375 -87.90699768066406,35.55400085449219 C-64.2229995727539,56.01599884033203 42.47999954223633,96.74099731445312 105.45999908447266,10.357999801635742 C112.03399658203125,1.340000033378601 114.16000366210938,-14.59000015258789 104.7030029296875,-19.45599937438965z"/></g><g opacity="1" transform="matrix(1,0,0,1,335.4010009765625,104.5199966430664)"><path fill="rgb(0,130,12)" fill-opacity="1" d=" M127.26599884033203,31.253999710083008 C32.35499954223633,-53.43600082397461 -36.755001068115234,-49.35200119018555 -73.39399719238281,-26.976999282836914 C-86.78900146484375,-18.797000885009766 -94.7239990234375,-15.444000244140625 -103.71600341796875,-4.252999782562256 C-108.14199829101562,1.2549999952316284 -111.48999786376953,5.129000186920166 -114.51599884033203,11.947999954223633 C-114.51599884033203,11.947999954223633 -127.26599884033203,33.694000244140625 -127.26599884033203,33.694000244140625 C-127.26599884033203,33.694000244140625 -67.14900207519531,-56.875999450683594 106.05999755859375,56.875"/><path stroke-linecap="round" stroke-linejoin="round" fill-opacity="0" stroke="rgb(29,29,27)" stroke-opacity="1" stroke-width="6" d=" M127.26599884033203,31.253999710083008 C32.35499954223633,-53.43600082397461 -36.755001068115234,-49.35200119018555 -73.39399719238281,-26.976999282836914 C-86.78900146484375,-18.797000885009766 -94.7239990234375,-15.444000244140625 -103.71600341796875,-4.252999782562256 C-108.14199829101562,1.2549999952316284 -111.48999786376953,5.129000186920166 -114.51599884033203,11.947999954223633 C-114.51599884033203,11.947999954223633 -127.26599884033203,33.694000244140625 -127.26599884033203,33.694000244140625 C-127.26599884033203,33.694000244140625 -67.14900207519531,-56.875999450683594 106.05999755859375,56.875"/></g><g opacity="1" transform="matrix(1,0,0,1,158.25399780273438,58.23899841308594)"><path fill="rgb(29,29,27)" fill-opacity="1" d=" M-63.15299987792969,16.86199951171875 C-49.63999938964844,4.73199987411499 -34.275001525878906,-6.4070000648498535 -16.51300048828125,-11.206999778747559 C1.156999945640564,-15.982999801635742 20.50200080871582,-13.366999626159668 37.362998962402344,-6.767000198364258 C47.15800094604492,-2.933000087738037 56.375,2.5339999198913574 64.50199890136719,9.20300006866455 C65.54499816894531,10.059000015258789 67.01699829101562,10.223999977111816 68.03800201416016,9.20300006866455 C68.9209976196289,8.319999694824219 69.08699798583984,6.5279998779296875 68.03800201416016,5.668000221252441 C52.67900085449219,-6.934999942779541 34.150001525878906,-15.199000358581543 14.423999786376953,-17.768999099731445 C4.925000190734863,-19.006999969482422 -4.771999835968018,-18.952999114990234 -14.157999992370605,-16.924999237060547 C-23.364999771118164,-14.9350004196167 -32.15299987792969,-11.152999877929688 -40.2760009765625,-6.427999973297119 C-49.797000885009766,-0.890999972820282 -58.50600051879883,5.98199987411499 -66.68900299072266,13.32699966430664 C-69.08799743652344,15.480999946594238 -65.54299926757812,19.006999969482422 -63.15299987792969,16.86199951171875z"/></g><g opacity="1" transform="matrix(1,0,0,1,304.64801025390625,220.39599609375)"><path fill="rgb(29,29,27)" fill-opacity="1" d=" M-93.39700317382812,-27.75200080871582 C-84.16999816894531,-17.795000076293945 -73.88700103759766,-8.842000007629395 -62.77899932861328,-1.0390000343322754 C-51.94200134277344,6.572999954223633 -40.305999755859375,13.045000076293945 -28.121999740600586,18.23200035095215 C-15.984999656677246,23.399999618530273 -3.368000030517578,27.365999221801758 9.579000473022461,29.913000106811523 C22.441999435424805,32.444000244140625 35.58100128173828,33.65299987792969 48.689998626708984,33.39099884033203 C61.82899856567383,33.12900161743164 74.96900177001953,31.410999298095703 87.72200012207031,28.231000900268555 C89.31700134277344,27.833999633789062 90.90499877929688,27.410999298095703 92.48799896240234,26.9689998626709 C95.58200073242188,26.104999542236328 94.26799774169922,21.27899932861328 91.15799713134766,22.148000717163086 C78.83300018310547,25.59000015258789 66.16200256347656,27.638999938964844 53.37799835205078,28.235000610351562 C40.66999816894531,28.827999114990234 27.88599967956543,28.05699920654297 15.345999717712402,25.909000396728516 C2.6410000324249268,23.73200035095215 -9.829000473022461,20.214000701904297 -21.81100082397461,15.46500015258789 C-33.834999084472656,10.699000358581543 -45.35300064086914,4.614999771118164 -56.12699890136719,-2.5369999408721924 C-67.052001953125,-9.789999961853027 -77.18000030517578,-18.201000213623047 -86.34100341796875,-27.58300018310547 C-87.53099822998047,-28.802000045776367 -88.7030029296875,-30.038000106811523 -89.86100006103516,-31.288000106811523 C-92.0530014038086,-33.65299987792969 -95.58300018310547,-30.111000061035156 -93.39700317382812,-27.75200080871582z"/></g><g opacity="1" transform="matrix(1,0,0,1,152.60400390625,221.95700073242188)"><path fill="rgb(29,29,27)" fill-opacity="1" d=" M58.630001068115234,-26.47800064086914 C45.867000579833984,-13.015000343322754 31.948999404907227,-0.31200000643730164 15.692999839782715,8.817999839782715 C1.5169999599456787,16.77899932861328 -14.182999610900879,21.410999298095703 -30.386999130249023,22.638999938964844 C-40.880001068115234,23.434999465942383 -51.43199920654297,22.97100067138672 -61.87900161743164,21.80299949645996 C-63.222999572753906,21.652999877929688 -64.37899780273438,23.059999465942383 -64.37899780273438,24.30299949645996 C-64.37899780273438,25.780000686645508 -63.22700119018555,26.652999877929688 -61.87900161743164,26.80299949645996 C-43.8380012512207,28.819000244140625 -25.37299919128418,28.625 -7.757999897003174,23.843000411987305 C8.96399974822998,19.30299949645996 24.062000274658203,10.684000015258789 37.56999969482422,-0.03799999877810478 C46.354000091552734,-7.011000156402588 54.45399856567383,-14.809000015258789 62.165000915527344,-22.941999435424805 C64.37799835205078,-25.277000427246094 60.8489990234375,-28.819000244140625 58.630001068115234,-26.47800064086914z"/></g><g opacity="1" transform="matrix(1,0,0,1,281.322998046875,241.57000732421875)"><path fill="rgb(29,29,27)" fill-opacity="1" d=" M32.391998291015625,17.20599937438965 C13.515999794006348,13.519000053405762 -3.8350000381469727,4.125999927520752 -18.00200080871582,-8.784000396728516 C-22.2549991607666,-12.65999984741211 -26.222999572753906,-16.836999893188477 -29.913000106811523,-21.25 C-30.780000686645508,-22.285999298095703 -32.55400085449219,-22.145000457763672 -33.44900131225586,-21.25 C-34.474998474121094,-20.224000930786133 -34.31800079345703,-18.753000259399414 -33.44900131225586,-17.714000701904297 C-20.391000747680664,-2.1010000705718994 -3.6519999504089355,10.479000091552734 15.473999977111816,17.625999450683594 C20.540000915527344,19.518999099731445 25.7549991607666,20.990999221801758 31.062999725341797,22.027000427246094 C32.387001037597656,22.285999298095703 33.76100158691406,21.652999877929688 34.13800048828125,20.2810001373291 C34.474998474121094,19.05500030517578 33.7239990234375,17.465999603271484 32.391998291015625,17.20599937438965z"/></g><g opacity="1" transform="matrix(1,0,0,1,528.5250244140625,230.3459930419922)"><path fill="rgb(29,29,27)" fill-opacity="1" d=" M8.496999740600586,-46.40999984741211 C17.083999633789062,-20.461000442504883 12.281999588012695,9.218000411987305 -3.617000102996826,31.375999450683594 C-7.5980000495910645,36.92399978637695 -12.342000007629395,41.93299865722656 -17.672000885009766,46.20199966430664 C-18.726999282836914,47.04600143432617 -18.55299949645996,48.85599899291992 -17.672000885009766,49.73699951171875 C-16.6299991607666,50.77899932861328 -15.194000244140625,50.58399963378906 -14.13599967956543,49.73699951171875 C7.525000095367432,32.38999938964844 18.726999282836914,3.74399995803833 17.608999252319336,-23.642000198364258 C17.275999069213867,-31.81399917602539 15.888999938964844,-39.96900177001953 13.317999839782715,-47.737998962402344 C12.312000274658203,-50.77899932861328 7.48199987411499,-49.47700119018555 8.496999740600586,-46.40999984741211z"/></g><g opacity="1" transform="matrix(1,0,0,1,232.80499267578125,297.5069885253906)"><path fill="rgb(188,73,31)" fill-opacity="1" d=" M116.80899810791016,-36.202999114990234 C98.02899932861328,-32.82600021362305 -23.639999389648438,26.3439998626709 -168.79200744628906,-55.569000244140625 C-170.09500122070312,-56.30400085449219 -171.5590057373047,-56.71699905395508 -172.91299438476562,-57.446998596191406 C-180.22000122070312,-61.3849983215332 -207.28399658203125,-74.46900177001953 -210.13800048828125,-53.87099838256836 C-210.7989959716797,-49.10300064086914 -210.68299865722656,-44.12099838256836 -210.0749969482422,-39.20199966430664 C-207.35899353027344,-17.229000091552734 -193.86099243164062,-2.558000087738037 -179.51600646972656,5.210999965667725 C-127.73100280761719,33.25600051879883 -36.18199920654297,74.46800231933594 132.81300354003906,25.707000732421875 C132.81300354003906,25.707000732421875 210.7989959716797,3.0350000858306885 202.02000427246094,-34.61800003051758 C192.8459930419922,-73.96499633789062 145.8459930419922,-45.38100051879883 135.26600646972656,-41.939998626708984 C134.03599548339844,-41.53900146484375 118.06500244140625,-36.42900085449219 116.80899810791016,-36.202999114990234z"/><path stroke-linecap="butt" stroke-linejoin="miter" fill-opacity="0" stroke-miterlimit="10" stroke="rgb(29,29,27)" stroke-opacity="1" stroke-width="6" d=" M116.80899810791016,-36.202999114990234 C98.02899932861328,-32.82600021362305 -23.639999389648438,26.3439998626709 -168.79200744628906,-55.569000244140625 C-170.09500122070312,-56.30400085449219 -171.5590057373047,-56.71699905395508 -172.91299438476562,-57.446998596191406 C-180.22000122070312,-61.3849983215332 -207.28399658203125,-74.46900177001953 -210.13800048828125,-53.87099838256836 C-210.7989959716797,-49.10300064086914 -210.68299865722656,-44.12099838256836 -210.0749969482422,-39.20199966430664 C-207.35899353027344,-17.229000091552734 -193.86099243164062,-2.558000087738037 -179.51600646972656,5.210999965667725 C-127.73100280761719,33.25600051879883 -36.18199920654297,74.46800231933594 132.81300354003906,25.707000732421875 C132.81300354003906,25.707000732421875 210.7989959716797,3.0350000858306885 202.02000427246094,-34.61800003051758 C192.8459930419922,-73.96499633789062 145.8459930419922,-45.38100051879883 135.26600646972656,-41.939998626708984 C134.03599548339844,-41.53900146484375 118.06500244140625,-36.42900085449219 116.80899810791016,-36.202999114990234z"/></g><g opacity="1" transform="matrix(1,0,0,1,219.50799560546875,284.41900634765625)"><path fill="rgb(29,29,27)" fill-opacity="1" d=" M192.3280029296875,-18.034000396728516 C170.82000732421875,-4.611999988555908 147.25999450683594,5.236999988555908 122.96499633789062,12.35200023651123 C96.97599792480469,19.961999893188477 70.12100219726562,24.51099967956543 43.125999450683594,26.482999801635742 C15.557000160217285,28.496000289916992 -12.222999572753906,27.865999221801758 -39.672000885009766,24.59600067138672 C-66.32499694824219,21.42099952697754 -92.75599670410156,15.67199993133545 -118.15499877929688,6.953000068664551 C-141.84800720214844,-1.180999994277954 -164.7469940185547,-12.022000312805176 -185.34800720214844,-26.34600067138672 C-187.77200317382812,-28.031999588012695 -190.16000366210938,-29.76799964904785 -192.51600646972656,-31.548999786376953 C-195.08200073242188,-33.4900016784668 -197.5760040283203,-29.150999069213867 -195.03900146484375,-27.23200035095215 C-174.95899963378906,-12.045999526977539 -152.3459930419922,-0.47200000286102295 -128.83799743652344,8.404999732971191 C-103.49800109863281,17.972999572753906 -76.99500274658203,24.37700080871582 -50.20100021362305,28.214000701904297 C-22.44099998474121,32.1879997253418 5.690999984741211,33.4900016784668 33.69900131225586,32.064998626708984 C61.125,30.670000076293945 88.50399780273438,26.722000122070312 115.07499694824219,19.732999801635742 C140.10400390625,13.149999618530273 164.58299255371094,3.8239998817443848 187.0709991455078,-9.059000015258789 C189.69400024414062,-10.560999870300293 192.28700256347656,-12.114999771118164 194.8520050048828,-13.715999603271484 C197.5760040283203,-15.414999961853027 195.0679931640625,-19.743999481201172 192.3280029296875,-18.034000396728516z"/></g><g opacity="1" transform="matrix(1,0,0,1,193.37399291992188,402.99200439453125)"><path fill="rgb(29,29,27)" fill-opacity="1" d=" M-49.3380012512207,-6.629000186920166 C-25.55699920654297,5.6579999923706055 0.9679999947547913,12.420999526977539 27.773000717163086,12.368000030517578 C35.2599983215332,12.352999687194824 42.71799850463867,11.77299976348877 50.13100051879883,10.741999626159668 C51.470001220703125,10.555000305175781 52.20199966430664,8.845999717712402 51.87699890136719,7.665999889373779 C51.48099899291992,6.224999904632568 50.14500045776367,5.732999801635742 48.801998138427734,5.920000076293945 C23.465999603271484,9.446000099182129 -2.559999942779541,6.486000061035156 -26.613000869750977,-2.125999927520752 C-33.54100036621094,-4.605999946594238 -40.277000427246094,-7.568999767303467 -46.81399917602539,-10.946000099182129 C-49.66899871826172,-12.420999526977539 -52.20100021362305,-8.107999801635742 -49.3380012512207,-6.629000186920166z"/></g><g opacity="1" transform="matrix(1,0,0,1,189.85800170898438,424.5169982910156)"><path fill="rgb(29,29,27)" fill-opacity="1" d=" M15.38700008392334,0.07999999821186066 C5.790999889373779,1.2029999494552612 -3.8580000400543213,-0.5120000243186951 -12.487000465393066,-4.861000061035156 C-15.352999687194824,-6.306000232696533 -17.88800048828125,-1.99399995803833 -15.01099967956543,-0.5440000295639038 C-5.627999782562256,4.184999942779541 4.919000148773193,6.304999828338623 15.38700008392334,5.079999923706055 C16.72800064086914,4.922999858856201 17.886999130249023,4.043000221252441 17.886999130249023,2.5799999237060547 C17.886999130249023,1.350000023841858 16.73699951171875,-0.07800000160932541 15.38700008392334,0.07999999821186066z"/></g><g opacity="1" transform="matrix(1,0,0,1,290.46099853515625,458.2550048828125)"><path fill="rgb(0,45,158)" fill-opacity="1" d=" M249.7169952392578,-87.07099914550781 C249.7169952392578,-87.07099914550781 162.77000427246094,-1.2269999980926514 -18.73200035095215,3.5820000171661377 C-18.73200035095215,3.5820000171661377 -175.08799743652344,9.87399959564209 -249.7169952392578,-64.47200012207031 C-249.7169952392578,-64.47200012207031 -191.5399932861328,87.07099914550781 41.63199996948242,58.47100067138672 C71.9990005493164,54.74700164794922 183.14199829101562,37.07699966430664 249.7169952392578,-87.07099914550781z"/></g><g opacity="1" transform="matrix(1,0,0,1,145.2270050048828,154.82000732421875)"><path fill="rgb(29,29,27)" fill-opacity="1" d=" M-42.926998138427734,-2.8550000190734863 C-44.61800003051758,22.847999572753906 -26.770000457763672,44.96200180053711 -3.062000036239624,46.53799819946289 C20.645999908447266,48.1150016784668 41.236000061035156,28.55699920654297 42.928001403808594,2.8550000190734863 C44.61899948120117,-22.847999572753906 26.770000457763672,-44.9630012512207 3.062000036239624,-46.540000915527344 C-20.645999908447266,-48.11600112915039 -41.236000061035156,-28.558000564575195 -42.926998138427734,-2.8550000190734863z"/></g><g opacity="1" transform="matrix(1,0,0,1,334.51300048828125,163.83900451660156)"><path fill="rgb(29,29,27)" fill-opacity="1" d=" M-44.76300048828125,-2.9760000705718994 C-46.527000427246094,23.826000213623047 -27.916000366210938,46.88600158691406 -3.194000005722046,48.529998779296875 C21.527999877929688,50.17300033569336 42.999000549316406,29.77899932861328 44.76300048828125,2.9769999980926514 C46.527000427246094,-23.825000762939453 27.916000366210938,-46.8849983215332 3.194000005722046,-48.52899932861328 C-21.527999877929688,-50.17300033569336 -42.999000549316406,-29.777999877929688 -44.76300048828125,-2.9760000705718994z"/></g><g opacity="1" transform="matrix(1,0,0,1,315.32000732421875,147.73899841308594)"><path fill="rgb(255,255,255)" fill-opacity="1" d=" M-12.116000175476074,-0.8059999942779541 C-12.593000411987305,6.447999954223633 -7.556000232696533,12.6899995803833 -0.8650000095367432,13.135000228881836 C5.827000141143799,13.579999923706055 11.637999534606934,8.060999870300293 12.116000175476074,0.8059999942779541 C12.593000411987305,-6.447999954223633 7.556000232696533,-12.6899995803833 0.8640000224113464,-13.135000228881836 C-5.827000141143799,-13.579999923706055 -11.638999938964844,-8.0600004196167 -12.116000175476074,-0.8059999942779541z"/></g><g opacity="1" transform="matrix(1,0,0,1,134.68299865722656,135.72799682617188)"><path fill="rgb(255,255,255)" fill-opacity="1" d=" M-12.116000175476074,-0.8059999942779541 C-12.593000411987305,6.447999954223633 -7.556000232696533,12.6899995803833 -0.8650000095367432,13.135000228881836 C5.827000141143799,13.579999923706055 11.637999534606934,8.060999870300293 12.116000175476074,0.8059999942779541 C12.593000411987305,-6.447999954223633 7.556000232696533,-12.6899995803833 0.8640000224113464,-13.135000228881836 C-5.827000141143799,-13.579999923706055 -11.638999938964844,-8.0600004196167 -12.116000175476074,-0.8059999942779541z"/></g><g opacity="1" transform="matrix(1,0,0,1,156.79100036621094,141.5959930419922)"><path fill="rgb(255,255,255)" fill-opacity="1" d=" M-5.874000072479248,-0.39100000262260437 C-6.105000019073486,3.125999927520752 -3.6640000343322754,6.1529998779296875 -0.41999998688697815,6.368000030517578 C2.825000047683716,6.584000110626221 5.642000198364258,3.9079999923706055 5.874000072479248,0.38999998569488525 C6.105000019073486,-3.127000093460083 3.6640000343322754,-6.1529998779296875 0.4189999997615814,-6.36899995803833 C-2.825000047683716,-6.585000038146973 -5.64300012588501,-3.9079999923706055 -5.874000072479248,-0.39100000262260437z"/></g><g opacity="1" transform="matrix(1,0,0,1,140.2969970703125,162.48800659179688)"><path fill="rgb(255,255,255)" fill-opacity="1" d=" M-8.07699966430664,-0.5379999876022339 C-8.395000457763672,4.297999858856201 -5.0370001792907715,8.460000038146973 -0.5759999752044678,8.756999969482422 C3.884999990463257,9.053999900817871 7.758999824523926,5.372000217437744 8.07800006866455,0.5360000133514404 C8.395999908447266,-4.300000190734863 5.038000106811523,-8.460000038146973 0.5770000219345093,-8.756999969482422 C-3.884000062942505,-9.053000450134277 -7.758999824523926,-5.374000072479248 -8.07699966430664,-0.5379999876022339z"/></g><g opacity="1" transform="matrix(1,0,0,1,323.1369934082031,174.64500427246094)"><path fill="rgb(255,255,255)" fill-opacity="1" d=" M-8.07699966430664,-0.5379999876022339 C-8.395000457763672,4.297999858856201 -5.038000106811523,8.460000038146973 -0.5770000219345093,8.756999969482422 C3.884000062942505,9.053999900817871 7.758999824523926,5.372000217437744 8.07800006866455,0.5360000133514404 C8.395999908447266,-4.300000190734863 5.038000106811523,-8.460000038146973 0.5770000219345093,-8.756999969482422 C-3.884000062942505,-9.053000450134277 -7.758999824523926,-5.374000072479248 -8.07699966430664,-0.5379999876022339z"/></g><g opacity="1" transform="matrix(1,0,0,1,337.8210144042969,153.23300170898438)"><path fill="rgb(255,255,255)" fill-opacity="1" d=" M-5.874000072479248,-0.39100000262260437 C-6.105000019073486,3.125999927520752 -3.6630001068115234,6.1529998779296875 -0.4189999997615814,6.368000030517578 C2.8259999752044678,6.584000110626221 5.64300012588501,3.9079999923706055 5.875,0.38999998569488525 C6.105999946594238,-3.127000093460083 3.6640000343322754,-6.1529998779296875 0.4189999997615814,-6.36899995803833 C-2.825000047683716,-6.585000038146973 -5.64300012588501,-3.9079999923706055 -5.874000072479248,-0.39100000262260437z"/></g></g><g transform="matrix(0.911399781703949,0,0,0.911399781703949,-2.3818359375,-5.5190887451171875)" opacity="1" style="display: block;"><g opacity="1" transform="matrix(1,0,0,1,374.2699890136719,425.4129943847656)"><path fill="rgb(232,0,0)" fill-opacity="1" d=" M4.625,-59.15800094604492 C4.625,-59.15800094604492 13.819000244140625,-81.54199981689453 13.819000244140625,-81.54199981689453 C-31.06599998474121,-137.2259979248047 -81.18000030517578,-120.2249984741211 -81.18000030517578,-120.2249984741211 C-166.70700073242188,-92.10399627685547 -137.781005859375,-4.068999767303467 -137.781005859375,-4.068999767303467 C-124.9209976196289,57.54600143432617 -11.72700023651123,137.2259979248047 -11.72700023651123,137.2259979248047 C82.85099792480469,83.46700286865234 131.51800537109375,21.33300018310547 150.23599243164062,-6.954999923706055 C159.38499450683594,-20.783000946044922 164.73699951171875,-36.28200149536133 165.23399353027344,-51.98899841308594 C166.70700073242188,-98.53600311279297 125.56199645996094,-117.75399780273438 112.71099853515625,-120.58399963378906 C110.30799865722656,-121.11299896240234 107.91899871826172,-121.70600128173828 105.56700134277344,-122.4280014038086 C90.5459976196289,-127.04299926757812 29.187000274658203,-134.22999572753906 4.625,-59.15800094604492z"/></g><g opacity="1" transform="matrix(1,0,0,1,374.2699890136719,425.4129943847656)"><path stroke-linecap="butt" stroke-linejoin="miter" fill-opacity="0" stroke-miterlimit="10" stroke="rgb(29,29,27)" stroke-opacity="1" stroke-width="6" d=" M4.625,-59.15800094604492 C4.625,-59.15800094604492 13.819000244140625,-81.54199981689453 13.819000244140625,-81.54199981689453 C-31.06599998474121,-137.2259979248047 -81.18000030517578,-120.2249984741211 -81.18000030517578,-120.2249984741211 C-166.70700073242188,-92.10399627685547 -137.781005859375,-4.068999767303467 -137.781005859375,-4.068999767303467 C-124.9209976196289,57.54600143432617 -11.72700023651123,137.2259979248047 -11.72700023651123,137.2259979248047 C82.85099792480469,83.46700286865234 131.51800537109375,21.33300018310547 150.23599243164062,-6.954999923706055 C159.38499450683594,-20.783000946044922 164.73699951171875,-36.28200149536133 165.23399353027344,-51.98899841308594 C166.70700073242188,-98.53600311279297 125.56199645996094,-117.75399780273438 112.71099853515625,-120.58399963378906 C110.30799865722656,-121.11299896240234 107.91899871826172,-121.70600128173828 105.56700134277344,-122.4280014038086 C90.5459976196289,-127.04299926757812 29.187000274658203,-134.22999572753906 4.625,-59.15800094604492z"/></g><g opacity="1" transform="matrix(1,0,0,1,260.4729919433594,412.6719970703125)"><path fill="rgb(246,246,246)" fill-opacity="1" d=" M-4.668000221252441,-36.72999954223633 C-4.668000221252441,-36.72999954223633 5.840000152587891,-40.52299880981445 2.4179999828338623,-12.496999740600586 C-1.0049999952316284,15.529999732971191 25.356000900268555,38.89799880981445 9.164999961853027,36.768001556396484 C-7.573999881744385,34.566001892089844 -26.399999618530273,-36.01100158691406 -4.668000221252441,-36.72999954223633z"/></g><g opacity="1" transform="matrix(1,0,0,1,286.74200439453125,463.62701416015625)"><path fill="rgb(246,246,246)" fill-opacity="1" d=" M7.691999912261963,-1.6349999904632568 C8.479999542236328,2.0739998817443848 5.676000118255615,5.813000202178955 1.4279999732971191,6.716000080108643 C-2.821000099182129,7.61899995803833 -6.9029998779296875,5.343999862670898 -7.691999912261963,1.6339999437332153 C-8.479999542236328,-2.075000047683716 -5.675000190734863,-5.814000129699707 -1.4270000457763672,-6.7170000076293945 C2.821000099182129,-7.619999885559082 6.9039998054504395,-5.343999862670898 7.691999912261963,-1.6349999904632568z"/></g><g opacity="1" transform="matrix(1,0,0,1,418.12799072265625,344.614990234375)"><path fill="rgb(246,246,246)" fill-opacity="1" d=" M9.774999618530273,-2.0769999027252197 C10.786999702453613,2.684000015258789 7.230999946594238,7.4730000495910645 1.8320000171661377,8.619999885559082 C-3.566999912261963,9.767999649047852 -8.762999534606934,6.839000225067139 -9.774999618530273,2.078000068664551 C-10.786999702453613,-2.683000087738037 -7.230999946594238,-7.4720001220703125 -1.8320000171661377,-8.619999885559082 C3.566999912261963,-9.767000198364258 8.762999534606934,-6.8379998207092285 9.774999618530273,-2.0769999027252197z"/></g><g opacity="1" transform="matrix(1,0,0,1,500.197998046875,422.0039978027344)"><path fill="rgb(0,155,7)" fill-opacity="1" d=" M-26.958999633789062,26.7450008392334 C-26.958999633789062,26.7450008392334 -48.46500015258789,6.89300012588501 -37.987998962402344,-4.686999797821045 C-27.719999313354492,-16.03499984741211 -12.663999557495117,3.2769999504089355 -12.663999557495117,3.2769999504089355 C-12.663999557495117,3.2769999504089355 -40.84299850463867,-21.14699935913086 -22.433000564575195,-30.21500015258789 C-8.210000038146973,-37.22200012207031 8.269000053405762,-14.166000366210938 8.269000053405762,-14.166000366210938 C8.269000053405762,-14.166000366210938 -17.43600082397461,-39.70399856567383 6.126999855041504,-42.183998107910156 C16.604000091552734,-43.2869987487793 24.875999450683594,-36.67100143432617 24.875999450683594,-36.67100143432617 C24.875999450683594,-36.67100143432617 48.46500015258789,-18.55299949645996 35.904998779296875,10.753000259399414 C23.344999313354492,40.060001373291016 -10.967000007629395,43.28799819946289 -26.958999633789062,26.7450008392334z"/></g><g opacity="1" transform="matrix(1,0,0,1,500.197998046875,422.0039978027344)"><path stroke-linecap="round" stroke-linejoin="round" fill-opacity="0" stroke="rgb(29,29,27)" stroke-opacity="1" stroke-width="7" d=" M-26.958999633789062,26.7450008392334 C-26.958999633789062,26.7450008392334 -48.46500015258789,6.89300012588501 -37.987998962402344,-4.686999797821045 C-27.719999313354492,-16.03499984741211 -12.663999557495117,3.2769999504089355 -12.663999557495117,3.2769999504089355 C-12.663999557495117,3.2769999504089355 -40.84299850463867,-21.14699935913086 -22.433000564575195,-30.21500015258789 C-8.210000038146973,-37.22200012207031 8.269000053405762,-14.166000366210938 8.269000053405762,-14.166000366210938 C8.269000053405762,-14.166000366210938 -17.43600082397461,-39.70399856567383 6.126999855041504,-42.183998107910156 C16.604000091552734,-43.2869987487793 24.875999450683594,-36.67100143432617 24.875999450683594,-36.67100143432617 C24.875999450683594,-36.67100143432617 48.46500015258789,-18.55299949645996 35.904998779296875,10.753000259399414 C23.344999313354492,40.060001373291016 -10.967000007629395,43.28799819946289 -26.958999633789062,26.7450008392334z"/></g><g opacity="1" transform="matrix(1,0,0,1,323.4930114746094,508.43798828125)"><path fill="rgb(0,155,7)" fill-opacity="1" d=" M25.5310001373291,25.32900047302246 C25.5310001373291,25.32900047302246 45.89899826049805,6.5279998779296875 35.97600173950195,-4.439000129699707 C26.25200080871582,-15.185999870300293 11.993000030517578,3.1040000915527344 11.993000030517578,3.1040000915527344 C11.993000030517578,3.1040000915527344 38.68000030517578,-20.027000427246094 21.2450008392334,-28.615999221801758 C7.775000095367432,-35.250999450683594 -7.831999778747559,-13.416999816894531 -7.831999778747559,-13.416999816894531 C-7.831999778747559,-13.416999816894531 16.511999130249023,-37.60200119018555 -5.803999900817871,-39.95100021362305 C-15.72599983215332,-40.99599838256836 -23.559999465942383,-34.729000091552734 -23.559999465942383,-34.729000091552734 C-23.559999465942383,-34.729000091552734 -45.900001525878906,-17.570999145507812 -34.005001068115234,10.184000015258789 C-22.110000610351562,37.93899917602539 10.38599967956543,40.99599838256836 25.5310001373291,25.32900047302246z"/></g><g opacity="1" transform="matrix(1,0,0,1,323.4930114746094,508.43798828125)"><path stroke-linecap="round" stroke-linejoin="round" fill-opacity="0" stroke="rgb(29,29,27)" stroke-opacity="1" stroke-width="7" d=" M25.5310001373291,25.32900047302246 C25.5310001373291,25.32900047302246 45.89899826049805,6.5279998779296875 35.97600173950195,-4.439000129699707 C26.25200080871582,-15.185999870300293 11.993000030517578,3.1040000915527344 11.993000030517578,3.1040000915527344 C11.993000030517578,3.1040000915527344 38.68000030517578,-20.027000427246094 21.2450008392334,-28.615999221801758 C7.775000095367432,-35.250999450683594 -7.831999778747559,-13.416999816894531 -7.831999778747559,-13.416999816894531 C-7.831999778747559,-13.416999816894531 16.511999130249023,-37.60200119018555 -5.803999900817871,-39.95100021362305 C-15.72599983215332,-40.99599838256836 -23.559999465942383,-34.729000091552734 -23.559999465942383,-34.729000091552734 C-23.559999465942383,-34.729000091552734 -45.900001525878906,-17.570999145507812 -34.005001068115234,10.184000015258789 C-22.110000610351562,37.93899917602539 10.38599967956543,40.99599838256836 25.5310001373291,25.32900047302246z"/></g></g></g></svg>