<svg xmlns="http://www.w3.org/2000/svg" xmlns:xlink="http://www.w3.org/1999/xlink" viewBox="0 0 512 512" width="512" height="512" preserveAspectRatio="xMidYMid meet" style="width: 100%; height: 100%; transform: translate3d(0px, 0px, 0px); content-visibility: visible;"><defs><clipPath id="__lottie_element_2"><rect width="512" height="512" x="0" y="0"/></clipPath></defs><g clip-path="url(#__lottie_element_2)"><g transform="matrix(0.9047600030899048,0,0,0.9047600030899048,-0.49945068359375,-0.49945068359375)" opacity="1" style="display: block;"><g opacity="1" transform="matrix(1,0,0,1,270.2359924316406,424.1940002441406)"><path fill="rgb(0,64,255)" fill-opacity="1" d=" M-253.6479949951172,-91.09500122070312 C-253.6479949951172,-91.09500122070312 -276.8349914550781,23.395000457763672 -252.56199645996094,79.2030029296875 C-228.28799438476562,135.01100158691406 192.0489959716797,115.73899841308594 231.14300537109375,79.96600341796875 C270.2359924316406,44.19200134277344 220.49600219726562,-90.86499786376953 220.49600219726562,-90.86499786376953 C220.49600219726562,-90.86499786376953 -52.62200164794922,-135.01100158691406 -253.6479949951172,-91.09500122070312z"/></g><g opacity="1" transform="matrix(1,0,0,1,266.93701171875,424.1940002441406)"><path stroke-linecap="butt" stroke-linejoin="miter" fill-opacity="0" stroke-miterlimit="10" stroke="rgb(29,29,27)" stroke-opacity="1" stroke-width="8" d=" M-250.34800720214844,-91.09500122070312 C-250.34800720214844,-91.09500122070312 -273.5350036621094,23.395000457763672 -249.26199340820312,79.2030029296875 C-224.98800659179688,135.01100158691406 195.3489990234375,115.73899841308594 234.4429931640625,79.96600341796875 C273.5360107421875,44.19200134277344 223.79600524902344,-90.86499786376953 223.79600524902344,-90.86499786376953 C223.79600524902344,-90.86499786376953 -49.321998596191406,-135.01100158691406 -250.34800720214844,-91.09500122070312z"/></g><g opacity="1" transform="matrix(1,0,0,1,266.3089904785156,245.75799560546875)"><path fill="rgb(0,130,12)" fill-opacity="1" d=" M251.3350067138672,67.822998046875 C256.0329895019531,96.61299896240234 248.52099609375,123.31900024414062 244.6479949951172,134.4709930419922 C243.45599365234375,137.9029998779297 241.73399353027344,141.0449981689453 239.54100036621094,143.7010040283203 C216.06199645996094,172.14199829101562 201.29600524902344,175.81100463867188 168.8719940185547,186.2779998779297 C75.87899780273438,216.2949981689453 -41.51100158691406,208.62100219726562 -132.39100646972656,173.0570068359375 C-177.63600158691406,155.3520050048828 -224.79400634765625,117.49199676513672 -249.72000122070312,87.34100341796875 C-249.72000122070312,87.34100341796875 -273.7699890136719,-68.76499938964844 -184.14700317382812,-147.03700256347656 C-136.36099243164062,-188.77099609375 -108.91100311279297,-203.76400756835938 -78.33899688720703,-211.92100524902344 C-71.93900299072266,-213.62899780273438 -64.07099914550781,-214.6479949951172 -55.51599884033203,-214.98199462890625 C-21.976999282836914,-216.29400634765625 10.91100025177002,-205.6959991455078 37.54800033569336,-185.84800720214844 C37.54800033569336,-185.84800720214844 45.111000061035156,-180.21099853515625 45.111000061035156,-180.21099853515625 C45.111000061035156,-180.21099853515625 66.99099731445312,-205.5050048828125 115.06300354003906,-200.72000122070312 C176.38099670410156,-194.61599731445312 224.42999267578125,-127.46199798583984 224.42999267578125,-127.46199798583984 C224.42999267578125,-127.46199798583984 260.53399658203125,-109.60199737548828 262.7539978027344,-80.3219985961914 C262.7539978027344,-80.3219985961914 266.3089904785156,-49.58300018310547 247.6510009765625,-6.249000072479248 C245.33900451660156,-0.8790000081062317 244.26400756835938,5.105000019073486 244.56399536132812,11.095000267028809 C245.0070037841797,19.968000411987305 247.75,45.85300064086914 251.3350067138672,67.822998046875z"/></g><g opacity="1" transform="matrix(1,0,0,1,262.5780029296875,245.75799560546875)"><path stroke-linecap="butt" stroke-linejoin="miter" fill-opacity="0" stroke-miterlimit="10" stroke="rgb(29,29,27)" stroke-opacity="1" stroke-width="8" d=" M255.06500244140625,67.822998046875 C259.76300048828125,96.61299896240234 252.25100708007812,123.31900024414062 248.3780059814453,134.4709930419922 C247.18600463867188,137.9029998779297 245.46400451660156,141.0449981689453 243.27099609375,143.7010040283203 C219.79200744628906,172.14199829101562 205.0260009765625,175.81100463867188 172.6020050048828,186.2779998779297 C79.60900115966797,216.2949981689453 -37.78099822998047,208.62100219726562 -128.66099548339844,173.0570068359375 C-173.906005859375,155.3520050048828 -221.06399536132812,117.49199676513672 -245.99000549316406,87.34100341796875 C-245.99000549316406,87.34100341796875 -270.0400085449219,-68.76499938964844 -180.41700744628906,-147.03700256347656 C-132.63099670410156,-188.77099609375 -105.18099975585938,-203.76400756835938 -74.60900115966797,-211.92100524902344 C-68.20899963378906,-213.62899780273438 -60.340999603271484,-214.6479949951172 -51.7859992980957,-214.98199462890625 C-18.246999740600586,-216.29400634765625 14.640999794006348,-205.6959991455078 41.27799987792969,-185.84800720214844 C41.27799987792969,-185.84800720214844 48.840999603271484,-180.21099853515625 48.840999603271484,-180.21099853515625 C48.840999603271484,-180.21099853515625 70.72100067138672,-205.5050048828125 118.79299926757812,-200.72000122070312 C180.11099243164062,-194.61599731445312 228.16000366210938,-127.46199798583984 228.16000366210938,-127.46199798583984 C228.16000366210938,-127.46199798583984 264.2640075683594,-109.60199737548828 266.4840087890625,-80.3219985961914 C266.4840087890625,-80.3219985961914 270.03900146484375,-49.58300018310547 251.38099670410156,-6.249000072479248 C249.06900024414062,-0.8790000081062317 247.99400329589844,5.105000019073486 248.29400634765625,11.095000267028809 C248.73699951171875,19.968000411987305 251.47999572753906,45.85300064086914 255.06500244140625,67.822998046875z"/></g><g opacity="1" transform="matrix(1,0,0,1,436.7200012207031,168.35899353027344)"><path fill="rgb(255,255,255)" fill-opacity="1" d=" M-91.80500030517578,13.463000297546387 C-75.91699981689453,-27.634000778198242 37.486000061035156,-110.0780029296875 88.45099639892578,-29.902999877929688 C93.95099639892578,-21.249000549316406 95.31300354003906,-5.103000164031982 92.85900115966797,6.034999847412109 C91.06600189208984,14.175000190734863 90.552001953125,15.609000205993652 85.39399719238281,25.393999099731445 C69.12699890136719,56.25 -20.343000411987305,110.0780029296875 -85.99500274658203,41.9739990234375 C-92.75499725341797,34.96200180053711 -95.31300354003906,22.53700065612793 -91.80500030517578,13.463000297546387z"/><path stroke-linecap="butt" stroke-linejoin="miter" fill-opacity="0" stroke-miterlimit="10" stroke="rgb(29,29,27)" stroke-opacity="1" stroke-width="6" d=" M-91.80500030517578,13.463000297546387 C-75.91699981689453,-27.634000778198242 37.486000061035156,-110.0780029296875 88.45099639892578,-29.902999877929688 C93.95099639892578,-21.249000549316406 95.31300354003906,-5.103000164031982 92.85900115966797,6.034999847412109 C91.06600189208984,14.175000190734863 90.552001953125,15.609000205993652 85.39399719238281,25.393999099731445 C69.12699890136719,56.25 -20.343000411987305,110.0780029296875 -85.99500274658203,41.9739990234375 C-92.75499725341797,34.96200180053711 -95.31300354003906,22.53700065612793 -91.80500030517578,13.463000297546387z"/></g><g opacity="1" transform="matrix(1,0,0,1,421.47198486328125,129.52699279785156)"><path fill="rgb(0,130,12)" fill-opacity="1" d=" M-98.6500015258789,16.816999435424805 C-67.06300354003906,-15.156000137329102 -35.26499938964844,-42.9640007019043 13.241999626159668,-41.56700134277344 C20.450000762939453,-41.35900115966797 28.621000289916992,-39.685001373291016 36.81999969482422,-37.020999908447266 C58.16299819946289,-30.08799934387207 83.7229995727539,-21.885000228881836 98.6500015258789,2.1050000190734863 C98.6500015258789,2.1050000190734863 89.63700103759766,-5.328999996185303 89.63700103759766,-5.328999996185303 C89.63700103759766,-5.328999996185303 73.25399780273438,-20.23900032043457 34.06399917602539,-5.673999786376953 C4.88700008392334,5.171000003814697 -18.868999481201172,30.601999282836914 -70.81800079345703,42.9640007019043 C-70.81800079345703,42.9640007019043 -98.6500015258789,16.816999435424805 -98.6500015258789,16.816999435424805z"/><path stroke-linecap="butt" stroke-linejoin="round" fill-opacity="0" stroke="rgb(29,29,27)" stroke-opacity="1" stroke-width="6" d=" M-98.6500015258789,16.816999435424805 C-67.06300354003906,-15.156000137329102 -35.26499938964844,-42.9640007019043 13.241999626159668,-41.56700134277344 C20.450000762939453,-41.35900115966797 28.621000289916992,-39.685001373291016 36.81999969482422,-37.020999908447266 C58.16299819946289,-30.08799934387207 83.7229995727539,-21.885000228881836 98.6500015258789,2.1050000190734863 C98.6500015258789,2.1050000190734863 89.63700103759766,-5.328999996185303 89.63700103759766,-5.328999996185303 C89.63700103759766,-5.328999996185303 73.25399780273438,-20.23900032043457 34.06399917602539,-5.673999786376953 C4.88700008392334,5.171000003814697 -18.868999481201172,30.601999282836914 -70.81800079345703,42.9640007019043 C-70.81800079345703,42.9640007019043 -98.6500015258789,16.816999435424805 -98.6500015258789,16.816999435424805z"/></g><g opacity="1" transform="matrix(1,0,0,1,236.50999450683594,170.64999389648438)"><path fill="rgb(255,255,255)" fill-opacity="1" d=" M-102.63400268554688,-32.64099884033203 C-62.36399841308594,-73.06600189208984 42.87799835205078,-87.01599884033203 106.60800170898438,-16.277000427246094 C113.65699768066406,-8.45300006866455 110.7300033569336,12.616000175476074 102.79100036621094,27.992000579833984 C94.05500030517578,44.91299819946289 85.32099914550781,50.30799865722656 75.4469985961914,55.57400131225586 C48.5,69.94300079345703 -63.36000061035156,87.01599884033203 -108.90299987792969,-5.175000190734863 C-113.65699768066406,-14.798999786376953 -109.9469985961914,-25.298999786376953 -102.63400268554688,-32.64099884033203z"/><path stroke-linecap="butt" stroke-linejoin="miter" fill-opacity="0" stroke-miterlimit="10" stroke="rgb(29,29,27)" stroke-opacity="1" stroke-width="6" d=" M-102.63400268554688,-32.64099884033203 C-62.36399841308594,-73.06600189208984 42.87799835205078,-87.01599884033203 106.60800170898438,-16.277000427246094 C113.65699768066406,-8.45300006866455 110.7300033569336,12.616000175476074 102.79100036621094,27.992000579833984 C94.05500030517578,44.91299819946289 85.32099914550781,50.30799865722656 75.4469985961914,55.57400131225586 C48.5,69.94300079345703 -63.36000061035156,87.01599884033203 -108.90299987792969,-5.175000190734863 C-113.65699768066406,-14.798999786376953 -109.9469985961914,-25.298999786376953 -102.63400268554688,-32.64099884033203z"/></g><g opacity="1" transform="matrix(1,0,0,1,234.66600036621094,108.66699981689453)"><path fill="rgb(0,130,12)" fill-opacity="1" d=" M-112.66600036621094,8 C-40.66600036621094,-64 67.33399963378906,-8.666999816894531 79.18599700927734,0.32899999618530273 C91.43000030517578,9.623000144958496 97.83000183105469,15.12399959564209 104.51599884033203,27.222000122070312 C107.80699920654297,33.176998138427734 109.6500015258789,42.433998107910156 111.33399963378906,49.33300018310547 C111.33399963378906,49.33300018310547 112.66600036621094,64 112.66600036621094,64 C112.66600036621094,64 -75.3479995727539,-38.1619987487793 -111.2300033569336,43.38800048828125"/><path stroke-linecap="round" stroke-linejoin="round" fill-opacity="0" stroke="rgb(29,29,27)" stroke-opacity="1" stroke-width="6" d=" M-112.66600036621094,8 C-40.66600036621094,-64 67.33399963378906,-8.666999816894531 79.18599700927734,0.32899999618530273 C91.43000030517578,9.623000144958496 97.83000183105469,15.12399959564209 104.51599884033203,27.222000122070312 C107.80699920654297,33.176998138427734 109.6500015258789,42.433998107910156 111.33399963378906,49.33300018310547 C111.33399963378906,49.33300018310547 112.66600036621094,64 112.66600036621094,64 C112.66600036621094,64 -75.3479995727539,-38.1619987487793 -111.2300033569336,43.38800048828125"/></g><g opacity="1" transform="matrix(1,0,0,1,404.12298583984375,79.1520004272461)"><path fill="rgb(29,29,27)" fill-opacity="1" d=" M64.65599822998047,14.892000198364258 C51.516998291015625,2.2360000610351562 36.516998291015625,-9.324999809265137 18.937000274658203,-14.956999778747559 C1.13100004196167,-20.660999298095703 -18.874000549316406,-19.207000732421875 -36.48899841308594,-13.47700023651123 C-46.792999267578125,-10.12399959564209 -56.5620002746582,-5.184999942779541 -65.3550033569336,1.1449999809265137 C-66.44999694824219,1.9329999685287476 -66.9800033569336,3.322000026702881 -66.25199890136719,4.565000057220459 C-65.62000274658203,5.645999908447266 -63.933998107910156,6.255000114440918 -62.832000732421875,5.461999893188477 C-47.926998138427734,-5.267000198364258 -30.187999725341797,-11.968999862670898 -11.831000328063965,-13.253999710083008 C-3.0339999198913574,-13.869999885559082 5.8460001945495605,-13.402999877929688 14.380999565124512,-11.09000015258789 C22.670000076293945,-8.843000411987305 30.437000274658203,-5.0920000076293945 37.66899871826172,-0.4950000047683716 C46.172000885009766,4.909999847412109 53.875999450683594,11.449000358581543 61.119998931884766,18.42799949645996 C63.43899917602539,20.660999298095703 66.97899627685547,17.1299991607666 64.65599822998047,14.892000198364258z"/></g><g opacity="1" transform="matrix(1,0,0,1,255.02999877929688,226.64500427246094)"><path fill="rgb(29,29,27)" fill-opacity="1" d=" M88.37899780273438,-27.312000274658203 C70.03099822998047,-9.887999534606934 48.029998779296875,3.6070001125335693 24.19700050354004,12.107000350952148 C0.7870000004768372,20.454999923706055 -24.22599983215332,24.06800079345703 -49.0359992980957,22.381999969482422 C-62.91299819946289,21.437999725341797 -76.63899993896484,18.773000717163086 -89.87100219726562,14.486000061035156 C-92.93900299072266,13.491999626159668 -94.25299835205078,18.31800079345703 -91.19999694824219,19.30699920654297 C-66.91699981689453,27.174999237060547 -40.93299865722656,29.527999877929688 -15.60200023651123,26.52199935913086 C9.862000465393066,23.5 34.62300109863281,15.312999725341797 56.827999114990234,2.4700000286102295 C69.49800109863281,-4.857999801635742 81.302001953125,-13.697999954223633 91.91500091552734,-23.775999069213867 C94.25299835205078,-25.996999740600586 90.71299743652344,-29.527999877929688 88.37899780273438,-27.312000274658203z"/></g><g opacity="1" transform="matrix(1,0,0,1,395.1990051269531,229.88600158691406)"><path fill="rgb(29,29,27)" fill-opacity="1" d=" M-52.02399826049805,-24.625 C-41.64699935913086,-9.237000465393066 -28.386999130249023,4.173999786376953 -12.355999946594238,13.654999732971191 C0.4169999957084656,21.208999633789062 14.690999984741211,26.15999984741211 29.364999771118164,28.30699920654297 C36.4010009765625,29.336999893188477 43.49800109863281,29.801000595092773 50.606998443603516,29.635000228881836 C53.81999969482422,29.559999465942383 53.83100128173828,24.559999465942383 50.606998443603516,24.635000228881836 C37.74599838256836,24.934999465942383 25.531999588012695,23.349000930786133 13.232999801635742,19.548999786376953 C-1.593000054359436,14.968000411987305 -15.350000381469727,7.166999816894531 -26.959999084472656,-3.187000036239624 C-34.87799835205078,-10.248000144958496 -41.77899932861328,-18.360000610351562 -47.707000732421875,-27.14900016784668 C-49.49599838256836,-29.802000045776367 -53.83000183105469,-27.30299949645996 -52.02399826049805,-24.625z"/></g><g opacity="1" transform="matrix(1,0,0,1,310.79998779296875,229.2530059814453)"><path fill="rgb(29,29,27)" fill-opacity="1" d=" M-34.38800048828125,25.90999984741211 C-12.397000312805176,23.437000274658203 7.456999778747559,9.940999984741211 22.54400062561035,-5.59499979019165 C27.475000381469727,-10.67300033569336 31.98900032043457,-16.14699935913086 36.10300064086914,-21.9060001373291 C36.88800048828125,-23.006000518798828 36.29600143432617,-24.68899917602539 35.20600128173828,-25.32699966430664 C33.95000076293945,-26.062000274658203 32.573001861572266,-25.531999588012695 31.785999298095703,-24.43000030517578 C24.966999053955078,-14.885000228881836 16.871999740600586,-6.2230000495910645 7.763999938964844,1.1740000247955322 C-0.3529999852180481,7.764999866485596 -9.487000465393066,13.456000328063965 -19.30699920654297,17.125999450683594 C-24.149999618530273,18.934999465942383 -29.35300064086914,20.3439998626709 -34.38800048828125,20.90999984741211 C-35.72999954223633,21.06100082397461 -36.88800048828125,21.951000213623047 -36.88800048828125,23.40999984741211 C-36.88800048828125,24.643999099731445 -35.737998962402344,26.062000274658203 -34.38800048828125,25.90999984741211z"/></g><g opacity="1" transform="matrix(1,0,0,1,28.305999755859375,291.14599609375)"><path fill="rgb(29,29,27)" fill-opacity="1" d=" M-13.727999687194824,-43.24300003051758 C-17.530000686645508,-29.232999801635742 -17.57900047302246,-14.807999610900879 -15.067000389099121,-0.5730000138282776 C-13.934000015258789,5.854000091552734 -12.493000030517578,12.206999778747559 -9.814000129699707,18.18199920654297 C-7.526000022888184,23.284000396728516 -4.359000205993652,27.924999237060547 -0.7210000157356262,32.15700149536133 C3.424999952316284,36.97800064086914 8.194000244140625,41.21500015258789 13.013999938964844,45.34400177001953 C14.038999557495117,46.22100067138672 15.543000221252441,46.349998474121094 16.548999786376953,45.34400177001953 C17.447999954223633,44.44499969482422 17.57900047302246,42.689998626708984 16.548999786376953,41.80799865722656 C8.473999977111816,34.891998291015625 0.5170000195503235,27.570999145507812 -4.385000228881836,17.97599983215332 C-7.111999988555908,12.640000343322754 -8.53499984741211,6.875 -9.696000099182129,1.0269999504089355 C-10.996999740600586,-5.52400016784668 -11.8100004196167,-12.163000106811523 -11.875,-18.847000122070312 C-11.95199966430664,-26.656999588012695 -10.95199966430664,-34.37699890136719 -8.906999588012695,-41.91400146484375 C-8.062999725341797,-45.02299880981445 -12.885000228881836,-46.349998474121094 -13.727999687194824,-43.24300003051758z"/></g><g opacity="1" transform="matrix(1,0,0,1,325.6669921875,308.39300537109375)"><path fill="rgb(188,73,31)" fill-opacity="1" d=" M-159.66700744628906,-20.483999252319336 C-85.38700103759766,2.759999990463257 -40.33399963378906,-39.99700164794922 12.333000183105469,-41.694000244140625 C65,-43.39099884033203 61,-30.665000915527344 136.33299255371094,-23.02899932861328 C136.33299255371094,-23.02899932861328 166.33299255371094,-23.878000259399414 183.66600036621094,-34.05799865722656 C201,-44.23899841308594 209,8.361000061035156 179,23.631999969482422 C149,38.90299987792969 75.66600036621094,5.243000030517578 23.666000366210938,6.940000057220459 C-28.333999633789062,8.63700008392334 -31,18.273000717163086 -80.33399963378906,31.26799964904785 C-129.5760040283203,44.23899841308594 -153,31.78700065612793 -181,21.60700035095215 C-209,11.425999641418457 -200.33399963378906,-33.209999084472656 -159.66700744628906,-20.483999252319336z"/><path stroke-linecap="butt" stroke-linejoin="miter" fill-opacity="0" stroke-miterlimit="10" stroke="rgb(29,29,27)" stroke-opacity="1" stroke-width="6" d=" M-159.66700744628906,-20.483999252319336 C-85.38700103759766,2.759999990463257 -40.33399963378906,-39.99700164794922 12.333000183105469,-41.694000244140625 C65,-43.39099884033203 61,-30.665000915527344 136.33299255371094,-23.02899932861328 C136.33299255371094,-23.02899932861328 166.33299255371094,-23.878000259399414 183.66600036621094,-34.05799865722656 C201,-44.23899841308594 209,8.361000061035156 179,23.631999969482422 C149,38.90299987792969 75.66600036621094,5.243000030517578 23.666000366210938,6.940000057220459 C-28.333999633789062,8.63700008392334 -31,18.273000717163086 -80.33399963378906,31.26799964904785 C-129.5760040283203,44.23899841308594 -153,31.78700065612793 -181,21.60700035095215 C-209,11.425999641418457 -200.33399963378906,-33.209999084472656 -159.66700744628906,-20.483999252319336z"/></g><g opacity="1" transform="matrix(1,0,0,1,340.9649963378906,303.2200012207031)"><path fill="rgb(29,29,27)" fill-opacity="1" d=" M181.3159942626953,5.789000034332275 C154.9949951171875,11.631999969482422 127.78700256347656,7.671999931335449 101.83599853515625,1.8450000286102295 C75.57599639892578,-4.051000118255615 49.62900161743164,-11.812999725341797 22.702999114990234,-14.118000030517578 C-4.011000156402588,-16.40399932861328 -30.913000106811523,-13.472000122070312 -56.650001525878906,-6.059999942779541 C-69.53399658203125,-2.3499999046325684 -82.17500305175781,2.1589999198913574 -95.11100006103516,5.690000057220459 C-103.97200012207031,8.109000205993652 -112.78099822998047,9.71500015258789 -121.93299865722656,10.454999923706055 C-131.70700073242188,11.246999740600586 -141.5500030517578,11.42300033569336 -151.3459930419922,10.965999603271484 C-160.06199645996094,10.559000015258789 -168.92300415039062,9.762999534606934 -177.35000610351562,7.385000228881836 C-179.0290069580078,6.910999774932861 -180.6840057373047,6.361000061035156 -182.30099487304688,5.703000068664551 C-183.56199645996094,5.190999984741211 -185.03500366210938,6.261000156402588 -185.37600708007812,7.448999881744385 C-185.78500366210938,8.87399959564209 -184.87399291992188,10.019000053405762 -183.6300048828125,10.524999618530273 C-175.9980010986328,13.628000259399414 -167.5189971923828,14.692999839782715 -159.3730010986328,15.425999641418457 C-149.4550018310547,16.31800079345703 -139.45399475097656,16.405000686645508 -129.50999450683594,15.937999725341797 C-120.99099731445312,15.538000106811523 -112.38200378417969,14.805999755859375 -104.02400207519531,13.04800033569336 C-91.31300354003906,10.37399959564209 -78.97200012207031,6.078999996185303 -66.60099792480469,2.184999942779541 C-53.66899871826172,-1.8860000371932983 -40.63399887084961,-5.445000171661377 -27.21500015258789,-7.504000186920166 C-13.934000015258789,-9.543000221252441 -0.4309999942779541,-10.255000114440918 12.994000434875488,-9.722999572753906 C40.16999816894531,-8.647000312805176 66.34100341796875,-1.3849999904632568 92.65599822998047,4.849999904632568 C118.8010025024414,11.045000076293945 145.86599731445312,16.079999923706055 172.7729949951172,12.383999824523926 C176.08900451660156,11.928000450134277 179.37899780273438,11.336000442504883 182.64500427246094,10.611000061035156 C185.78500366210938,9.913999557495117 184.45599365234375,5.0920000076293945 181.3159942626953,5.789000034332275z"/></g><g opacity="1" transform="matrix(1,0,0,1,339.0260009765625,433.0010070800781)"><path fill="rgb(29,29,27)" fill-opacity="1" d=" M-15.449000358581543,2.9709999561309814 C-10.711999893188477,3.752000093460083 -5.934999942779541,4.190000057220459 -1.1319999694824219,3.940999984741211 C4.11899995803833,3.6679999828338623 9.312000274658203,2.691999912261963 14.404000282287598,1.4149999618530273 C17.52400016784668,0.6330000162124634 16.202999114990234,-4.190000057220459 13.076000213623047,-3.4059998989105225 C8.409000396728516,-2.2360000610351562 3.680999994277954,-1.309000015258789 -1.1319999694824219,-1.059000015258789 C-5.480999946594238,-0.8339999914169312 -9.82800006866455,-1.1430000066757202 -14.121000289916992,-1.850000023841858 C-15.451000213623047,-2.069999933242798 -16.81100082397461,-1.503000020980835 -17.19499969482422,-0.10400000214576721 C-17.52400016784668,1.090999960899353 -16.788999557495117,2.75 -15.449000358581543,2.9709999561309814z"/></g><g opacity="1" transform="matrix(1,0,0,1,262.3110046386719,426.37701416015625)"><path fill="rgb(0,45,158)" fill-opacity="1" d=" M-242.51600646972656,-84.37000274658203 C-242.51600646972656,-84.37000274658203 -159.8000030517578,20.899999618530273 19.993000030517578,26.194000244140625 C19.993000030517578,26.194000244140625 170.802001953125,37.236000061035156 242.51600646972656,-29.07900047302246 C242.51600646972656,-29.07900047302246 167.29299926757812,84.37100219726562 -53.150001525878906,35.70199966430664 C-84.79900360107422,28.714000701904297 -184.55999755859375,-5.258999824523926 -242.51600646972656,-84.37000274658203z"/></g><g opacity="1" transform="matrix(1,0,0,1,436.1789855957031,198.22799682617188)"><path fill="rgb(29,29,27)" fill-opacity="1" d=" M40.979000091552734,-8.310999870300293 C45.82099914550781,15.531000137329102 31.398000717163086,38.57899856567383 8.765999794006348,43.16899871826172 C-13.866000175476074,47.75899887084961 -36.13800048828125,32.152000427246094 -40.97999954223633,8.3100004196167 C-45.82099914550781,-15.531999588012695 -31.39900016784668,-38.58100128173828 -8.767000198364258,-43.17100143432617 C13.866000175476074,-47.7599983215332 36.137001037597656,-32.15299987792969 40.979000091552734,-8.310999870300293z"/></g><g opacity="1" transform="matrix(1,0,0,1,243.93499755859375,192.74200439453125)"><path fill="rgb(29,29,27)" fill-opacity="1" d=" M43.22999954223633,5.676000118255615 C39.933998107910156,30.829999923706055 17.908000946044922,48.68000030517578 -5.9679999351501465,45.54600143432617 C-29.8439998626709,42.4109992980957 -46.5260009765625,19.47800064086914 -43.22999954223633,-5.676000118255615 C-39.933998107910156,-30.829999923706055 -17.909000396728516,-48.68000030517578 5.9670000076293945,-45.54499816894531 C29.843000411987305,-42.4109992980957 46.5260009765625,-19.47800064086914 43.22999954223633,5.676000118255615z"/></g><g opacity="1" transform="matrix(1,0,0,1,265.2239990234375,181.447998046875)"><path fill="rgb(255,255,255)" fill-opacity="1" d=" M11.701000213623047,1.5360000133514404 C10.809000015258789,8.343999862670898 4.8470001220703125,13.175999641418457 -1.6150000095367432,12.32699966430664 C-8.07800006866455,11.479000091552734 -12.593000411987305,5.271999835968018 -11.701000213623047,-1.5369999408721924 C-10.809000015258789,-8.345000267028809 -4.8470001220703125,-13.175999641418457 1.6150000095367432,-12.32800006866455 C8.07699966430664,-11.479999542236328 12.593000411987305,-5.271999835968018 11.701000213623047,1.5360000133514404z"/></g><g opacity="1" transform="matrix(1,0,0,1,443.94500732421875,178.968994140625)"><path fill="rgb(255,255,255)" fill-opacity="1" d=" M11.565999984741211,-2.3459999561309814 C12.932000160217285,4.382999897003174 8.862000465393066,10.888999938964844 2.4739999771118164,12.1850004196167 C-3.9140000343322754,13.479999542236328 -10.199999809265137,9.074000358581543 -11.565999984741211,2.3450000286102295 C-12.932999610900879,-4.383999824523926 -8.862000465393066,-10.890000343322754 -2.4739999771118164,-12.1850004196167 C3.9130001068115234,-13.479999542236328 10.199000358581543,-9.074999809265137 11.565999984741211,-2.3459999561309814z"/></g><g opacity="1" transform="matrix(1,0,0,1,423.3909912109375,187.36700439453125)"><path fill="rgb(255,255,255)" fill-opacity="1" d=" M5.607999801635742,-1.1380000114440918 C6.270999908447266,2.125 4.296000003814697,5.28000020980835 1.1990000009536743,5.9079999923706055 C-1.8980000019073486,6.535999774932861 -4.945000171661377,4.400000095367432 -5.607999801635742,1.1369999647140503 C-6.269999980926514,-2.125 -4.296999931335449,-5.28000020980835 -1.1990000009536743,-5.9079999923706055 C1.8980000019073486,-6.535999774932861 4.945000171661377,-4.401000022888184 5.607999801635742,-1.1380000114440918z"/></g><g opacity="1" transform="matrix(1,0,0,1,441.885009765625,204.75900268554688)"><path fill="rgb(255,255,255)" fill-opacity="1" d=" M7.710999965667725,-1.5640000104904175 C8.621999740600586,2.921999931335449 5.9079999923706055,7.258999824523926 1.649999976158142,8.123000144958496 C-2.6089999675750732,8.986000061035156 -6.800000190734863,6.048999786376953 -7.710999965667725,1.562999963760376 C-8.621999740600586,-2.9230000972747803 -5.908999919891357,-7.260000228881836 -1.649999976158142,-8.123000144958496 C2.6080000400543213,-8.987000465393066 6.800000190734863,-6.050000190734863 7.710999965667725,-1.5640000104904175z"/></g><g opacity="1" transform="matrix(1,0,0,1,252.77499389648438,204.89300537109375)"><path fill="rgb(255,255,255)" fill-opacity="1" d=" M7.801000118255615,1.0240000486373901 C7.205999851226807,5.563000202178955 3.2320001125335693,8.784000396728516 -1.0770000219345093,8.218000411987305 C-5.385000228881836,7.6529998779296875 -8.395999908447266,3.515000104904175 -7.801000118255615,-1.0240000486373901 C-7.206999778747559,-5.563000202178955 -3.2320001125335693,-8.784000396728516 1.0759999752044678,-8.218999862670898 C5.383999824523926,-7.6529998779296875 8.395999908447266,-3.515000104904175 7.801000118255615,1.0240000486373901z"/></g><g opacity="1" transform="matrix(1,0,0,1,242.75100708007812,182.2969970703125)"><path fill="rgb(255,255,255)" fill-opacity="1" d=" M5.672999858856201,0.7440000176429749 C5.239999771118164,4.045000076293945 2.3499999046325684,6.388999938964844 -0.7829999923706055,5.9770002365112305 C-3.9170000553131104,5.565999984741211 -6.105999946594238,2.555999994277954 -5.673999786376953,-0.7450000047683716 C-5.241000175476074,-4.046000003814697 -2.3499999046325684,-6.388000011444092 0.7829999923706055,-5.9770002365112305 C3.9159998893737793,-5.565999984741211 6.105999946594238,-2.556999921798706 5.672999858856201,0.7440000176429749z"/></g><g opacity="1" transform="matrix(1,0,0,1,263.135009765625,93.04299926757812)"><path fill="rgb(29,29,27)" fill-opacity="1" d=" M78.54499816894531,36.3489990234375 C69.20500183105469,15.508999824523926 54.16299819946289,-2.5759999752044678 35.650001525878906,-15.902000427246094 C15.553000450134277,-30.368999481201172 -8.633999824523926,-38.54399871826172 -33.34199905395508,-39.71699905395508 C-47.71099853515625,-40.39899826049805 -62.21900177001953,-38.6870002746582 -76.01899719238281,-34.617000579833984 C-79.0979995727539,-33.70899963378906 -77.78700256347656,-28.881999969482422 -74.69000244140625,-29.79599952697754 C-50.81999969482422,-36.834999084472656 -25.023000717163086,-36.4900016784668 -1.309000015258789,-28.96500015258789 C20.235000610351562,-22.12700080871582 39.52299880981445,-9.168000221252441 54.375999450683594,7.828999996185303 C62.492000579833984,17.118000030517578 69.18299865722656,27.618999481201172 74.22799682617188,38.874000549316406 C74.77999877929688,40.10599899291992 76.5719985961914,40.400001525878906 77.64800262451172,39.77000045776367 C78.91600036621094,39.02899932861328 79.0989990234375,37.58599853515625 78.54499816894531,36.3489990234375z"/></g><g opacity="1" transform="matrix(1,0,0,1,264.2669982910156,168.33299255371094)"><path stroke-linecap="round" stroke-linejoin="round" fill-opacity="0" stroke="rgb(29,29,93)" stroke-opacity="1" stroke-width="14" d=" M80.93399810791016,0 C80.93399810791016,39.58000183105469 44.69900131225586,71.66699981689453 0,71.66699981689453 C-44.698001861572266,71.66699981689453 -80.93399810791016,39.58000183105469 -80.93399810791016,0 C-80.93399810791016,-39.58000183105469 -44.698001861572266,-71.66699981689453 0,-71.66699981689453 C44.69900131225586,-71.66699981689453 80.93399810791016,-39.58000183105469 80.93399810791016,0z"/></g><g opacity="1" transform="matrix(1,0,0,1,447,170.33299255371094)"><path stroke-linecap="round" stroke-linejoin="round" fill-opacity="0" stroke="rgb(29,29,93)" stroke-opacity="1" stroke-width="12" d=" M80.93399810791016,0 C80.93399810791016,39.58000183105469 44.69900131225586,71.66699981689453 0,71.66699981689453 C-44.698001861572266,71.66699981689453 -80.93399810791016,39.58000183105469 -80.93399810791016,0 C-80.93399810791016,-39.58000183105469 -44.698001861572266,-71.66699981689453 0,-71.66699981689453 C44.69900131225586,-71.66699981689453 80.93399810791016,-39.58000183105469 80.93399810791016,0z"/></g><g opacity="1" transform="matrix(1,0,0,1,106.96099853515625,129.03500366210938)"><path fill="rgb(29,29,93)" fill-opacity="1" d=" M80.58999633789062,22.913999557495117 C55.9739990234375,7.265999794006348 31.19099998474121,-8.305999755859375 4.781000137329102,-20.79199981689453 C-2.1110000610351562,-24.049999237060547 -9.109000205993652,-27.09600067138672 -16.19499969482422,-29.90399932861328 C-23.486000061035156,-32.79399871826172 -30.840999603271484,-35.104000091552734 -38.63600158691406,-36.12200164794922 C-52.808998107910156,-37.9739990234375 -67.81099700927734,-33.62300109863281 -76.572998046875,-21.834999084472656 C-85.23899841308594,-10.173999786376953 -82.77300262451172,8.77400016784668 -69.80799865722656,16.280000686645508 C-66.41100311279297,18.246999740600586 -61.44300079345703,17.180999755859375 -59.54600143432617,13.59000015258789 C-57.65299987792969,10.006999969482422 -58.61000061035156,5.427999973297119 -62.23699951171875,3.328000068664551 C-62.60200119018555,3.117000102996826 -62.96200180053711,2.8980000019073486 -63.310001373291016,2.6589999198913574 C-64.78099822998047,1.6490000486373901 -62.14099884033203,3.700000047683716 -63.02899932861328,2.880000114440918 C-63.60100173950195,2.3519999980926514 -64.13400268554688,1.812000036239624 -64.66200256347656,1.2389999628067017 C-65.69999694824219,0.11400000005960464 -63.643001556396484,2.7119998931884766 -64.34400177001953,1.6629999876022339 C-64.572998046875,1.3200000524520874 -64.80799865722656,0.9829999804496765 -65.02200317382812,0.6299999952316284 C-65.4520034790039,-0.08100000023841858 -65.81999969482422,-0.8230000138282776 -66.1510009765625,-1.5839999914169312 C-66.1510009765625,-1.5839999914169312 -65.3949966430664,0.20800000429153442 -65.3949966430664,0.20800000429153442 C-66.08499908447266,-1.4550000429153442 -66.53900146484375,-3.180999994277954 -66.78500366210938,-4.9629998207092285 C-66.69599914550781,-4.298999786376953 -66.60700225830078,-3.634000062942505 -66.51799774169922,-2.9690001010894775 C-66.75299835205078,-4.888999938964844 -66.73999786376953,-6.808000087738037 -66.48300170898438,-8.725000381469727 C-66.5719985961914,-8.060999870300293 -66.66100311279297,-7.395999908447266 -66.7509994506836,-6.730999946594238 C-66.49600219726562,-8.432000160217285 -66.05500030517578,-10.07699966430664 -65.40899658203125,-11.670999526977539 C-65.66100311279297,-11.072999954223633 -65.91300201416016,-10.47599983215332 -66.16500091552734,-9.878999710083008 C-65.59600067138672,-11.218000411987305 -64.89399719238281,-12.482000350952148 -64.05400085449219,-13.670999526977539 C-63.7140007019043,-14.152000427246094 -62.84199905395508,-14.996999740600586 -64.34200286865234,-13.324000358581543 C-64.0989990234375,-13.595000267028809 -63.875999450683594,-13.88700008392334 -63.632999420166016,-14.16100025177002 C-63.10900115966797,-14.751999855041504 -62.553001403808594,-15.315999984741211 -61.972999572753906,-15.852999687194824 C-61.70500183105469,-16.100000381469727 -61.430999755859375,-16.341999053955078 -61.15299987792969,-16.577999114990234 C-60.650001525878906,-17.003999710083008 -59.44599914550781,-17.615999221801758 -61.382999420166016,-16.42799949645996 C-60.76100158691406,-16.809999465942383 -60.1870002746582,-17.280000686645508 -59.566001892089844,-17.66900062561035 C-58.20399856567383,-18.520000457763672 -56.775001525878906,-19.2450008392334 -55.30099868774414,-19.878000259399414 C-55.89799880981445,-19.625999450683594 -56.494998931884766,-19.374000549316406 -57.09299850463867,-19.121999740600586 C-54.202999114990234,-20.322999954223633 -51.18600082397461,-21.115999221801758 -48.08700180053711,-21.541000366210938 C-48.75199890136719,-21.45199966430664 -49.41600036621094,-21.36199951171875 -50.08100128173828,-21.273000717163086 C-46.27000045776367,-21.756000518798828 -42.4379997253418,-21.631999969482422 -38.63600158691406,-21.121999740600586 C-39.30099868774414,-21.211999893188477 -39.96500015258789,-21.301000595092773 -40.630001068115234,-21.389999389648438 C-31.413000106811523,-20.073999404907227 -22.68600082397461,-16.562999725341797 -14.154999732971191,-12.972999572753906 C-14.753000259399414,-13.225000381469727 -15.350000381469727,-13.47700023651123 -15.946999549865723,-13.729000091552734 C8.520999908447266,-3.3889999389648438 31.56599998474121,9.937999725341797 54.09299850463867,23.937000274658203 C60.426998138427734,27.874000549316406 66.72599792480469,31.864999771118164 73.01899719238281,35.86600112915039 C76.33599853515625,37.9739990234375 81.43699645996094,36.665000915527344 83.28099822998047,33.17499923706055 C85.23899841308594,29.4689998626709 84.12999725341797,25.163999557495117 80.58999633789062,22.913999557495117z"/></g><g opacity="1" transform="matrix(1,0,0,1,519.4920043945312,126.98699951171875)"><path fill="rgb(29,29,93)" fill-opacity="1" d=" M-11.267000198364258,-2.7290000915527344 C-10.454000473022461,-3.2860000133514404 -9.621000289916992,-3.809000015258789 -8.753999710083008,-4.2779998779296875 C-8.258000373840332,-4.546000003814697 -7.751999855041504,-4.789999961853027 -7.242000102996826,-5.0320000648498535 C-6.002999782562256,-5.61899995803833 -8.17199993133545,-4.7270002365112305 -6.877999782562256,-5.176000118255615 C-5.947999954223633,-5.498000144958496 -5.019999980926514,-5.806000232696533 -4.060999870300293,-6.0289998054504395 C-3.5230000019073486,-6.1539998054504395 -2.9639999866485596,-6.288000106811523 -2.4140000343322754,-6.341000080108643 C-3.312000036239624,-6.255000114440918 -2.5290000438690186,-6.309000015258789 -2.0810000896453857,-6.335999965667725 C-1.3240000009536743,-6.381999969482422 0.12200000137090683,-6.598999977111816 0.8489999771118164,-6.2820000648498535 C0.1340000033378601,-6.389999866485596 0.05700000002980232,-6.400000095367432 0.621999979019165,-6.310999870300293 C0.8659999966621399,-6.269000053405762 1.1100000143051147,-6.2220001220703125 1.3530000448226929,-6.169000148773193 C1.715999960899353,-6.090000152587891 2.0769999027252197,-5.998000144958496 2.434999942779541,-5.894000053405762 C2.8529999256134033,-5.7729997634887695 3.25600004196167,-5.610000133514404 3.6710000038146973,-5.480999946594238 C4.015999794006348,-5.3480000495910645 3.9049999713897705,-5.3979997634887695 3.3380000591278076,-5.632999897003174 C3.565000057220459,-5.5320000648498535 3.7890000343322754,-5.427000045776367 4.01200008392334,-5.315999984741211 C4.61299991607666,-5.015999794006348 5.822000026702881,-4.5269999504089355 6.230999946594238,-3.9739999771118164 C5.711999893188477,-4.388000011444092 5.664999961853027,-4.421000003814697 6.091000080108643,-4.074999809265137 C6.184000015258789,-3.994999885559082 6.2779998779296875,-3.9149999618530273 6.370999813079834,-3.8350000381469727 C6.73799991607666,-3.509999990463257 7.089000225067139,-3.1670000553131104 7.421000003814697,-2.805999994277954 C7.585999965667725,-2.625999927520752 7.747000217437744,-2.440999984741211 7.9029998779296875,-2.253000020980835 C7.793000221252441,-2.3970000743865967 7.683000087738037,-2.5420000553131104 7.572999954223633,-2.686000108718872 C7.9019999504089355,-2.3959999084472656 8.15999984741211,-1.8359999656677246 8.376999855041504,-1.4570000171661377 C8.437999725341797,-1.3509999513626099 8.791000366210938,-0.5170000195503235 8.88700008392334,-0.4740000069141388 C8.616000175476074,-1.1419999599456787 8.57800006866455,-1.2200000286102295 8.77299976348877,-0.7080000042915344 C8.850000381469727,-0.4909999966621399 8.92199993133545,-0.2709999978542328 8.986000061035156,-0.04899999871850014 C9.081999778747559,0.28600001335144043 9.149999618530273,0.6209999918937683 9.229000091552734,0.9599999785423279 C9.324000358581543,1.5149999856948853 9.317999839782715,1.4149999618530273 9.208000183105469,0.6600000262260437 C9.232999801635742,0.8899999856948853 9.25100040435791,1.1200000047683716 9.262999534606934,1.3509999513626099 C9.281000137329102,1.6979999542236328 9.28600025177002,2.0450000762939453 9.276000022888184,2.3919999599456787 C9.270000457763672,2.622999906539917 9.255999565124512,2.8540000915527344 9.237000465393066,3.0840001106262207 C9.178000450134277,3.6440000534057617 9.192999839782715,3.5450000762939453 9.284000396728516,2.7860000133514404 C9.416000366210938,2.9010000228881836 8.819000244140625,5.014999866485596 8.649999618530273,5.107999801635742 C8.729999542236328,4.920000076293945 8.809000015258789,4.73199987411499 8.887999534606934,4.544000148773193 C8.793999671936035,4.751999855041504 8.692999839782715,4.955999851226807 8.586000442504883,5.1570000648498535 C8.39900016784668,5.508999824523926 8.166000366210938,5.830999851226807 7.968999862670898,6.176000118255615 C7.757999897003174,6.478000164031982 7.8480000495910645,6.368000030517578 8.241999626159668,5.8460001945495605 C8.098999977111816,6.021999835968018 7.951000213623047,6.192999839782715 7.796000003814697,6.357999801635742 C7.5929999351501465,6.574999809265137 6.420000076293945,7.574999809265137 7.531000137329102,6.7179999351501465 C6.451000213623047,7.551000118255615 5.611000061035156,8.331999778747559 5.232999801635742,9.706000328063965 C4.9039998054504395,10.902999877929688 5.052000045776367,12.496000289916992 5.736999988555908,13.559000015258789 C7.051000118255615,15.595999717712402 10.36299991607666,17.062000274658203 12.57800006866455,15.35200023651123 C15.76099967956543,12.895000457763672 18.152999877929688,9.652000427246094 18.895999908447266,5.613999843597412 C19.643999099731445,1.5479999780654907 19.160999298095703,-2.513000011444092 17.190000534057617,-6.183000087738037 C13.40999984741211,-13.218999862670898 4.875999927520752,-17.062000274658203 -2.9140000343322754,-16.267000198364258 C-7.734000205993652,-15.774999618530273 -12.3100004196167,-14.104999542236328 -16.31399917602539,-11.36400032043457 C-18.468000411987305,-9.888999938964844 -19.64299964904785,-6.9039998054504395 -18.107999801635742,-4.5229997634887695 C-16.72599983215332,-2.378999948501587 -13.574999809265137,-1.1490000486373901 -11.267000198364258,-2.7290000915527344z"/></g><g opacity="1" transform="matrix(1,0,0,1,355.0929870605469,193.67100524902344)"><path fill="rgb(29,29,93)" fill-opacity="1" d=" M-12.123000144958496,8.697999954223633 C-11.659000396728516,8.182000160217285 -11.180000305175781,7.683000087738037 -10.67300033569336,7.209000110626221 C-10.420000076293945,6.973999977111816 -10.161999702453613,6.74399995803833 -9.89900016784668,6.520999908447266 C-9.767000198364258,6.408999919891357 -9.633999824523926,6.298999786376953 -9.5,6.190999984741211 C-9.211999893188477,5.960000038146973 -9.322999954223633,6.044000148773193 -9.831999778747559,6.442999839782715 C-9.48799991607666,5.980000019073486 -8.61299991607666,5.583000183105469 -8.121999740600586,5.28000020980835 C-7.584000110626221,4.947999954223633 -7.0320000648498535,4.638000011444092 -6.46999979019165,4.349999904632568 C-6.1620001792907715,4.191999912261963 -5.8520002365112305,4.040999889373779 -5.538000106811523,3.8970000743865967 C-4.497000217437744,3.4170000553131104 -5.873000144958496,4.005000114440918 -5.461999893188477,3.8580000400543213 C-4.863999843597412,3.6440000534057617 -4.275000095367432,3.4140000343322754 -3.6670000553131104,3.2249999046325684 C-2.3310000896453857,2.809000015258789 -0.9599999785423279,2.6519999504089355 0.3869999945163727,2.312000036239624 C0.17299999296665192,2.3420000076293945 -0.04100000113248825,2.371999979019165 -0.2540000081062317,2.4019999504089355 C-0.02500000037252903,2.375 0.20499999821186066,2.3519999980926514 0.4359999895095825,2.3310000896453857 C0.781000018119812,2.3010001182556152 1.1269999742507935,2.2769999504089355 1.4730000495910645,2.259999990463257 C2.1080000400543213,2.2290000915527344 2.74399995803833,2.2209999561309814 3.378999948501587,2.236999988555908 C4.013000011444092,2.252000093460083 4.646999835968018,2.2899999618530273 5.2779998779296875,2.3529999256134033 C5.507999897003174,2.375999927520752 5.736999988555908,2.4019999504089355 5.965000152587891,2.430999994277954 C5.75,2.4040000438690186 5.534999847412109,2.377000093460083 5.321000099182129,2.3489999771118164 C5.436999797821045,2.256999969482422 6.14900016784668,2.492000102996826 6.340000152587891,2.5299999713897705 C7.697999954223633,2.799999952316284 9.01200008392334,3.2019999027252197 10.307999610900879,3.684000015258789 C11.253999710083008,4.035999774932861 9.406999588012695,3.2260000705718994 10.383000373840332,3.7209999561309814 C10.690999984741211,3.877000093460083 11.006999969482422,4.01800012588501 11.312999725341797,4.177000045776367 C11.928000450134277,4.498000144958496 12.52400016784668,4.85099983215332 13.107999801635742,5.224999904632568 C15.315999984741211,6.635000228881836 18.722000122070312,5.754000186920166 19.948999404907227,3.430999994277954 C21.256999969482422,0.9549999833106995 20.511999130249023,-1.9049999713897705 18.155000686645508,-3.4100000858306885 C6.624000072479248,-10.776000022888184 -10.03600025177002,-8.5649995803833 -19.194000244140625,1.6269999742507935 C-20.941999435424805,3.572000026702881 -21.256999969482422,6.804999828338623 -19.194000244140625,8.697999954223633 C-17.285999298095703,10.449999809265137 -13.989999771118164,10.776000022888184 -12.123000144958496,8.697999954223633z"/></g></g><g transform="matrix(0.9047600030899048,0,0,0.9047600030899048,-74.587646484375,25.432037353515625)" opacity="1" style="display: block;"><g opacity="1" transform="matrix(1,0,0,1,473.5979919433594,289.718994140625)"><path fill="rgb(255,203,100)" fill-opacity="1" d=" M-51.09000015258789,46.676998138427734 C-51.09000015258789,46.676998138427734 -42.79600143432617,54.512001037597656 -42.79600143432617,54.512001037597656 C-42.79600143432617,54.512001037597656 51.09000015258789,-51.875999450683594 51.09000015258789,-51.875999450683594 C51.09000015258789,-51.875999450683594 38.35499954223633,-54.51300048828125 38.35499954223633,-54.51300048828125 C38.35499954223633,-54.51300048828125 -51.09000015258789,46.676998138427734 -51.09000015258789,46.676998138427734z"/><path stroke-linecap="butt" stroke-linejoin="miter" fill-opacity="0" stroke-miterlimit="10" stroke="rgb(0,0,0)" stroke-opacity="1" stroke-width="4" d=" M-51.09000015258789,46.676998138427734 C-51.09000015258789,46.676998138427734 -42.79600143432617,54.512001037597656 -42.79600143432617,54.512001037597656 C-42.79600143432617,54.512001037597656 51.09000015258789,-51.875999450683594 51.09000015258789,-51.875999450683594 C51.09000015258789,-51.875999450683594 38.35499954223633,-54.51300048828125 38.35499954223633,-54.51300048828125 C38.35499954223633,-54.51300048828125 -51.09000015258789,46.676998138427734 -51.09000015258789,46.676998138427734z"/></g><g opacity="1" transform="matrix(1,0,0,1,483.1289978027344,296.2510070800781)"><path fill="rgb(255,222,164)" fill-opacity="1" d=" M-52.32699966430664,47.98099899291992 C-52.32699966430664,47.98099899291992 -42.66999816894531,57.72999954223633 -42.66999816894531,57.72999954223633 C-42.66999816894531,57.72999954223633 52.32600021362305,-49.95800018310547 52.32600021362305,-49.95800018310547 C52.32600021362305,-49.95800018310547 43.229000091552734,-57.72999954223633 43.229000091552734,-57.72999954223633 C43.229000091552734,-57.72999954223633 -52.32699966430664,47.98099899291992 -52.32699966430664,47.98099899291992z"/><path stroke-linecap="butt" stroke-linejoin="miter" fill-opacity="0" stroke-miterlimit="10" stroke="rgb(0,0,0)" stroke-opacity="1" stroke-width="4" d=" M-52.32699966430664,47.98099899291992 C-52.32699966430664,47.98099899291992 -42.66999816894531,57.72999954223633 -42.66999816894531,57.72999954223633 C-42.66999816894531,57.72999954223633 52.32600021362305,-49.95800018310547 52.32600021362305,-49.95800018310547 C52.32600021362305,-49.95800018310547 43.229000091552734,-57.72999954223633 43.229000091552734,-57.72999954223633 C43.229000091552734,-57.72999954223633 -52.32699966430664,47.98099899291992 -52.32699966430664,47.98099899291992z"/></g><g opacity="1" transform="matrix(1,0,0,1,491.5530090332031,305.50299072265625)"><path fill="rgb(255,203,100)" fill-opacity="1" d=" M-39.52399826049805,56.862998962402344 C-39.52399826049805,56.862998962402344 -51.09400177001953,48.47800064086914 -51.09400177001953,48.47800064086914 C-51.09400177001953,48.47800064086914 44.89500045776367,-56.862998962402344 44.89500045776367,-56.862998962402344 C44.89500045776367,-56.862998962402344 51.09400177001953,-44.823001861572266 51.09400177001953,-44.823001861572266 C51.09400177001953,-44.823001861572266 -39.52399826049805,56.862998962402344 -39.52399826049805,56.862998962402344z"/><path stroke-linecap="butt" stroke-linejoin="miter" fill-opacity="0" stroke-miterlimit="10" stroke="rgb(0,0,0)" stroke-opacity="1" stroke-width="4" d=" M-39.52399826049805,56.862998962402344 C-39.52399826049805,56.862998962402344 -51.09400177001953,48.47800064086914 -51.09400177001953,48.47800064086914 C-51.09400177001953,48.47800064086914 44.89500045776367,-56.862998962402344 44.89500045776367,-56.862998962402344 C44.89500045776367,-56.862998962402344 51.09400177001953,-44.823001861572266 51.09400177001953,-44.823001861572266 C51.09400177001953,-44.823001861572266 -39.52399826049805,56.862998962402344 -39.52399826049805,56.862998962402344z"/></g><g opacity="1" transform="matrix(1,0,0,1,544.6539916992188,228.44900512695312)"><path fill="rgb(244,86,158)" fill-opacity="1" d=" M-22.274999618530273,-4.568999767303467 C-22.274999618530273,-4.568999767303467 -7.533999919891357,-22.700000762939453 8.314000129699707,-6.163000106811523 C24.160999298095703,10.37399959564209 6.136000156402588,22.701000213623047 6.136000156402588,22.701000213623047 C6.136000156402588,22.701000213623047 -22.274999618530273,-4.568999767303467 -22.274999618530273,-4.568999767303467z"/></g><g opacity="1" transform="matrix(1,0,0,1,545.5969848632812,228.44900512695312)"><path stroke-linecap="butt" stroke-linejoin="miter" fill-opacity="0" stroke-miterlimit="10" stroke="rgb(0,0,0)" stroke-opacity="1" stroke-width="4" d=" M-23.218000411987305,-4.568999767303467 C-23.218000411987305,-4.568999767303467 -8.47700023651123,-22.700000762939453 7.370999813079834,-6.163000106811523 C23.218000411987305,10.37399959564209 5.192999839782715,22.701000213623047 5.192999839782715,22.701000213623047 C5.192999839782715,22.701000213623047 -23.218000411987305,-4.568999767303467 -23.218000411987305,-4.568999767303467z"/></g><g opacity="1" transform="matrix(1,0,0,1,531.3720092773438,243.14700317382812)"><path fill="rgb(168,168,168)" fill-opacity="1" d=" M-10.472999572753906,-17.534000396728516 C-10.472999572753906,-17.534000396728516 -19.417999267578125,-7.939000129699707 -19.417999267578125,-7.939000129699707 C-19.417999267578125,-7.939000129699707 -5.013000011444092,-4.625999927520752 -5.013000011444092,-4.625999927520752 C-5.013000011444092,-4.625999927520752 4.084000110626221,3.1459999084472656 4.084000110626221,3.1459999084472656 C4.084000110626221,3.1459999084472656 11.276000022888184,17.534000396728516 11.276000022888184,17.534000396728516 C11.276000022888184,17.534000396728516 19.417999267578125,8.003000259399414 19.417999267578125,8.003000259399414 C19.417999267578125,8.003000259399414 13.281999588012695,-3.2339999675750732 13.281999588012695,-3.2339999675750732 C13.281999588012695,-3.2339999675750732 2.4519999027252197,-12.487000465393066 2.4519999027252197,-12.487000465393066 C2.4519999027252197,-12.487000465393066 -10.472999572753906,-17.534000396728516 -10.472999572753906,-17.534000396728516z"/><path stroke-linecap="butt" stroke-linejoin="miter" fill-opacity="0" stroke-miterlimit="10" stroke="rgb(0,0,0)" stroke-opacity="1" stroke-width="4" d=" M-10.472999572753906,-17.534000396728516 C-10.472999572753906,-17.534000396728516 -19.417999267578125,-7.939000129699707 -19.417999267578125,-7.939000129699707 C-19.417999267578125,-7.939000129699707 -5.013000011444092,-4.625999927520752 -5.013000011444092,-4.625999927520752 C-5.013000011444092,-4.625999927520752 4.084000110626221,3.1459999084472656 4.084000110626221,3.1459999084472656 C4.084000110626221,3.1459999084472656 11.276000022888184,17.534000396728516 11.276000022888184,17.534000396728516 C11.276000022888184,17.534000396728516 19.417999267578125,8.003000259399414 19.417999267578125,8.003000259399414 C19.417999267578125,8.003000259399414 13.281999588012695,-3.2339999675750732 13.281999588012695,-3.2339999675750732 C13.281999588012695,-3.2339999675750732 2.4519999027252197,-12.487000465393066 2.4519999027252197,-12.487000465393066 C2.4519999027252197,-12.487000465393066 -10.472999572753906,-17.534000396728516 -10.472999572753906,-17.534000396728516z"/></g><g opacity="1" transform="matrix(1,0,0,1,432.1700134277344,358.57501220703125)"><path fill="rgb(0,130,12)" fill-opacity="1" d=" M42.30400085449219,6.076000213623047 C42.30400085449219,6.076000213623047 25.75200080871582,-25.760000228881836 15.317999839782715,-35.79399871826172 C4.883999824523926,-45.82699966430664 -5.420000076293945,-56.57500076293945 -19.25200080871582,-48.02299880981445 C-33.08399963378906,-39.47200012207031 -9.116000175476074,-16.621999740600586 -9.116000175476074,-16.621999740600586 C-9.116000175476074,-16.621999740600586 -37.75600051879883,-45.49700164794922 -47.74599838256836,-30.33300018310547 C-57.73500061035156,-15.168999671936035 -30.104000091552734,-0.5149999856948853 -30.104000091552734,-0.5149999856948853 C-30.104000091552734,-0.5149999856948853 -50.66600036621094,-18.30900001525879 -61.354000091552734,-3.2730000019073486 C-72.04199981689453,11.762999534606934 -37.03099822998047,37.369998931884766 -37.03099822998047,37.369998931884766 C-37.03099822998047,37.369998931884766 -18.56399917602539,54.784000396728516 26.73900032043457,55.68000030517578 C72.04199981689453,56.57600021362305 42.30400085449219,6.076000213623047 42.30400085449219,6.076000213623047z"/><path stroke-linecap="round" stroke-linejoin="round" fill-opacity="0" stroke="rgb(29,29,27)" stroke-opacity="1" stroke-width="8" d=" M42.30400085449219,6.076000213623047 C42.30400085449219,6.076000213623047 25.75200080871582,-25.760000228881836 15.317999839782715,-35.79399871826172 C4.883999824523926,-45.82699966430664 -5.420000076293945,-56.57500076293945 -19.25200080871582,-48.02299880981445 C-33.08399963378906,-39.47200012207031 -9.116000175476074,-16.621999740600586 -9.116000175476074,-16.621999740600586 C-9.116000175476074,-16.621999740600586 -37.75600051879883,-45.49700164794922 -47.74599838256836,-30.33300018310547 C-57.73500061035156,-15.168999671936035 -30.104000091552734,-0.5149999856948853 -30.104000091552734,-0.5149999856948853 C-30.104000091552734,-0.5149999856948853 -50.66600036621094,-18.30900001525879 -61.354000091552734,-3.2730000019073486 C-72.04199981689453,11.762999534606934 -37.03099822998047,37.369998931884766 -37.03099822998047,37.369998931884766 C-37.03099822998047,37.369998931884766 -18.56399917602539,54.784000396728516 26.73900032043457,55.68000030517578 C72.04199981689453,56.57600021362305 42.30400085449219,6.076000213623047 42.30400085449219,6.076000213623047z"/></g><g opacity="1" transform="matrix(1,0,0,1,477.7959899902344,413.5)"><path fill="rgb(0,64,255)" fill-opacity="1" d=" M0.9810000061988831,-54.25899887084961 C0.9810000061988831,-54.25899887084961 -17.569000244140625,-9.631999969482422 -56.55099868774414,5.822999954223633 C-56.55099868774414,5.822999954223633 -4.598999977111816,54.25899887084961 25.97599983215332,17.82200050354004 C56.55099868774414,-18.614999771118164 0.9810000061988831,-54.25899887084961 0.9810000061988831,-54.25899887084961z"/><path stroke-linecap="round" stroke-linejoin="round" fill-opacity="0" stroke="rgb(29,29,27)" stroke-opacity="1" stroke-width="8" d=" M0.9810000061988831,-54.25899887084961 C0.9810000061988831,-54.25899887084961 -17.569000244140625,-9.631999969482422 -56.55099868774414,5.822999954223633 C-56.55099868774414,5.822999954223633 -4.598999977111816,54.25899887084961 25.97599983215332,17.82200050354004 C56.55099868774414,-18.614999771118164 0.9810000061988831,-54.25899887084961 0.9810000061988831,-54.25899887084961z"/></g></g><g transform="matrix(0.9047600030899048,0,0,0.9047600030899048,-4.8963775634765625,-1.7391357421875)" opacity="1" style="display: block;"><g opacity="1" transform="matrix(1,0,0,1,328.3330078125,449.7980041503906)"><path fill="rgb(255,255,255)" fill-opacity="1" d=" M-128.33299255371094,-117.13099670410156 C-128.33299255371094,-117.13099670410156 -139.66700744628906,23.535999298095703 -55.66699981689453,104.86900329589844 C-55.66699981689453,104.86900329589844 50.33399963378906,125.53600311279297 139.66700744628906,91.53600311279297 C139.66700744628906,91.53600311279297 81.66600036621094,-16.753000259399414 86.9990005493164,-112.46399688720703 C86.9990005493164,-112.46399688720703 -31.666000366210938,-90.0979995727539 -128.33299255371094,-117.13099670410156z"/></g><g opacity="1" transform="matrix(1,0,0,1,328.3330078125,454)"><path stroke-linecap="round" stroke-linejoin="round" fill-opacity="0" stroke="rgb(29,29,27)" stroke-opacity="1" stroke-width="8" d=" M-128.33299255371094,-121.33300018310547 C-128.33299255371094,-121.33300018310547 -139.66700744628906,19.333999633789062 -55.66699981689453,100.66699981689453 C-55.66699981689453,100.66699981689453 50.33399963378906,121.33300018310547 139.66700744628906,87.33300018310547 C139.66700744628906,87.33300018310547 81.66600036621094,-20.954999923706055 86.9990005493164,-116.66600036621094 C86.9990005493164,-116.66600036621094 -31.666000366210938,-94.30000305175781 -128.33299255371094,-121.33300018310547z"/></g><g opacity="1" transform="matrix(1,0,0,1,200.33299255371094,444)"><path fill="rgb(0,130,12)" fill-opacity="1" d=" M-34.33300018310547,-2.6659998893737793 C-34.33300018310547,-2.6659998893737793 -13.666000366210938,-28.666000366210938 -2.3329999446868896,-35.999000549316406 C9,-43.33300018310547 20.333999633789062,-51.33300018310547 31.66699981689453,-41.33300018310547 C43,-31.33300018310547 16.999000549316406,-14.666000366210938 16.999000549316406,-14.666000366210938 C16.999000549316406,-14.666000366210938 48.33300018310547,-35.999000549316406 54.999000549316406,-20.666000366210938 C61.66600036621094,-5.333000183105469 33.66699981689453,3.3340001106262207 33.66699981689453,3.3340001106262207 C33.66699981689453,3.3340001106262207 55.66600036621094,-9.333000183105469 62.999000549316406,6.000999927520752 C70.33300018310547,21.333999633789062 33.66699981689453,38.66699981689453 33.66699981689453,38.66699981689453 C33.66699981689453,38.66699981689453 13.666999816894531,51.33399963378906 -28.33300018310547,44.66699981689453 C-70.33300018310547,38.000999450683594 -34.33300018310547,-2.6659998893737793 -34.33300018310547,-2.6659998893737793z"/><path stroke-linecap="round" stroke-linejoin="round" fill-opacity="0" stroke="rgb(29,29,27)" stroke-opacity="1" stroke-width="8" d=" M-34.33300018310547,-2.6659998893737793 C-34.33300018310547,-2.6659998893737793 -13.666000366210938,-28.666000366210938 -2.3329999446868896,-35.999000549316406 C9,-43.33300018310547 20.333999633789062,-51.33300018310547 31.66699981689453,-41.33300018310547 C43,-31.33300018310547 16.999000549316406,-14.666000366210938 16.999000549316406,-14.666000366210938 C16.999000549316406,-14.666000366210938 48.33300018310547,-35.999000549316406 54.999000549316406,-20.666000366210938 C61.66600036621094,-5.333000183105469 33.66699981689453,3.3340001106262207 33.66699981689453,3.3340001106262207 C33.66699981689453,3.3340001106262207 55.66600036621094,-9.333000183105469 62.999000549316406,6.000999927520752 C70.33300018310547,21.333999633789062 33.66699981689453,38.66699981689453 33.66699981689453,38.66699981689453 C33.66699981689453,38.66699981689453 13.666999816894531,51.33399963378906 -28.33300018310547,44.66699981689453 C-70.33300018310547,38.000999450683594 -34.33300018310547,-2.6659998893737793 -34.33300018310547,-2.6659998893737793z"/></g><g opacity="1" transform="matrix(1,0,0,1,140.88699340820312,475)"><path fill="rgb(0,64,255)" fill-opacity="1" d=" M-57.553001403808594,-18.33300018310547 C-57.553001403808594,-18.33300018310547 -12.220000267028809,-7.665999889373779 18.44700050354004,-39 C18.44700050354004,-39 57.55400085449219,-3.3519999980926514 56.66699981689453,22.841999053955078 C56.66699981689453,22.841999053955078 47.779998779296875,36.33399963378906 20.44700050354004,39"/><path stroke-linecap="round" stroke-linejoin="round" fill-opacity="0" stroke="rgb(29,29,27)" stroke-opacity="1" stroke-width="8" d=" M-57.553001403808594,-18.33300018310547 C-57.553001403808594,-18.33300018310547 -12.220000267028809,-7.665999889373779 18.44700050354004,-39 C18.44700050354004,-39 57.55400085449219,-3.3519999980926514 56.66699981689453,22.841999053955078 C56.66699981689453,22.841999053955078 47.779998779296875,36.33399963378906 20.44700050354004,39"/></g></g></g></svg>