<svg xmlns="http://www.w3.org/2000/svg" xmlns:xlink="http://www.w3.org/1999/xlink" viewBox="0 0 512 512" width="512" height="512" preserveAspectRatio="xMidYMid meet" style="width: 100%; height: 100%; transform: translate3d(0px, 0px, 0px); content-visibility: visible;"><defs><clipPath id="__lottie_element_2"><rect width="512" height="512" x="0" y="0"/></clipPath></defs><g clip-path="url(#__lottie_element_2)"><g transform="matrix(0.9329800009727478,0,0,0.9329800009727478,-8.49981689453125,-8.49981689453125)" opacity="1" style="display: block;"><g opacity="1" transform="matrix(1,0,0,1,286.5920104980469,416.62799072265625)"><path fill="rgb(2,66,255)" fill-opacity="1" d=" M-252.29400634765625,57.196998596191406 C-252.29400634765625,57.196998596191406 243.04299926757812,66.44000244140625 243.04299926757812,66.44000244140625 C244.90199279785156,66.4749984741211 246.7480010986328,65.38899993896484 248.48800659179688,63.125999450683594 C257.0199890136719,52.02799987792969 278.7659912109375,14.295000076293945 231.0749969482422,-37.540000915527344 C230.79400634765625,-37.84600067138672 225.96099853515625,-42.125999450683594 221.01400756835938,-46.474998474121094 C213.99899291992188,-52.64400100708008 205.81900024414062,-57.34400177001953 196.95599365234375,-60.29600143432617 C195.26600646972656,-61.404998779296875 193.5399932861328,-61.534000396728516 191.83700561523438,-60.67300033569336 C165.88900756835938,-47.553001403808594 -52.354000091552734,57.11000061035156 -183.4669952392578,-64.29000091552734 C-185.17799377441406,-65.8740005493164 -186.94700622558594,-66.47599792480469 -188.71200561523438,-65.98999786376953 C-204.02499389648438,-61.77399826049805 -278.7650146484375,-37.34700012207031 -264.8210144042969,34.694000244140625 C-262.052001953125,49 -257.27398681640625,57.104000091552734 -252.29400634765625,57.196998596191406z"/><path stroke-linecap="butt" stroke-linejoin="miter" fill-opacity="0" stroke-miterlimit="10" stroke="rgb(29,29,27)" stroke-opacity="1" stroke-width="8" d=" M-252.29400634765625,57.196998596191406 C-252.29400634765625,57.196998596191406 243.04299926757812,66.44000244140625 243.04299926757812,66.44000244140625 C244.90199279785156,66.4749984741211 246.7480010986328,65.38899993896484 248.48800659179688,63.125999450683594 C257.0199890136719,52.02799987792969 278.7659912109375,14.295000076293945 231.0749969482422,-37.540000915527344 C230.79400634765625,-37.84600067138672 225.96099853515625,-42.125999450683594 221.01400756835938,-46.474998474121094 C213.99899291992188,-52.64400100708008 205.81900024414062,-57.34400177001953 196.95599365234375,-60.29600143432617 C195.26600646972656,-61.404998779296875 193.5399932861328,-61.534000396728516 191.83700561523438,-60.67300033569336 C165.88900756835938,-47.553001403808594 -52.354000091552734,57.11000061035156 -183.4669952392578,-64.29000091552734 C-185.17799377441406,-65.8740005493164 -186.94700622558594,-66.47599792480469 -188.71200561523438,-65.98999786376953 C-204.02499389648438,-61.77399826049805 -278.7650146484375,-37.34700012207031 -264.8210144042969,34.694000244140625 C-262.052001953125,49 -257.27398681640625,57.104000091552734 -252.29400634765625,57.196998596191406z"/></g><g opacity="1" transform="matrix(1,0,0,1,283.4649963378906,266.3299865722656)"><path fill="rgb(0,130,12)" fill-opacity="1" d=" M-227.13900756835938,86.50700378417969 C-204.91299438476562,103.93199920654297 -41.18199920654297,215.62899780273438 222.28500366210938,96.44499969482422 C224.44500732421875,95.46700286865234 226.50799560546875,94.27100372314453 228.41900634765625,92.86799621582031 C244.63900756835938,80.96199798583984 310.8389892578125,23.42799949645996 225.6199951171875,-70.74600219726562 C217.49000549316406,-79.73100280761719 158.4320068359375,-130.55599975585938 151.46600341796875,-140.47000122070312 C140.00599670410156,-156.7779998779297 130.63499450683594,-175.58999633789062 112.41200256347656,-185.30099487304688 C110.89199829101562,-186.11099243164062 103.41000366210938,-190.04600524902344 101.697998046875,-190.23599243164062 C93.76899719238281,-191.11700439453125 81.84400177001953,-198.4149932861328 17.520000457763672,-180.70199584960938 C10.4350004196167,-178.75100708007812 2.9179999828338623,-179.09500122070312 -3.9670000076293945,-181.66299438476562 C-32.70100021362305,-192.38099670410156 -114.16200256347656,-215.6300048828125 -145.5260009765625,-149.2239990234375 C-148.10699462890625,-143.75999450683594 -151.95199584960938,-138.9980010986328 -156.86099243164062,-135.47300720214844 C-191.98300170898438,-110.25700378417969 -328.73199462890625,-2.7929999828338623 -234.11599731445312,79.99600219726562 C-232.36399841308594,81.52899932861328 -228.9709930419922,85.07099914550781 -227.13900756835938,86.50700378417969z"/></g><g opacity="1" transform="matrix(1,0,0,1,274.51800537109375,266.3299865722656)"><path stroke-linecap="butt" stroke-linejoin="miter" fill-opacity="0" stroke-miterlimit="10" stroke="rgb(29,29,27)" stroke-opacity="1" stroke-width="7" d=" M-218.1929931640625,86.50700378417969 C-195.9669952392578,103.93199920654297 -32.236000061035156,215.62899780273438 231.2310028076172,96.44499969482422 C233.39100646972656,95.46700286865234 235.4550018310547,94.27100372314453 237.36599731445312,92.86799621582031 C253.58599853515625,80.96199798583984 319.7850036621094,23.42799949645996 234.5659942626953,-70.74600219726562 C226.43600463867188,-79.73100280761719 167.37899780273438,-130.55599975585938 160.41299438476562,-140.47000122070312 C148.9530029296875,-156.7779998779297 139.58099365234375,-175.58999633789062 121.35800170898438,-185.30099487304688 C119.83799743652344,-186.11099243164062 112.35700225830078,-190.04600524902344 110.6449966430664,-190.23599243164062 C102.71600341796875,-191.11700439453125 90.79100036621094,-198.4149932861328 26.466999053955078,-180.70199584960938 C19.381999969482422,-178.75100708007812 11.86400032043457,-179.09500122070312 4.979000091552734,-181.66299438476562 C-23.7549991607666,-192.38099670410156 -105.21600341796875,-215.6300048828125 -136.5800018310547,-149.2239990234375 C-139.16099548339844,-143.75999450683594 -143.0050048828125,-138.9980010986328 -147.91400146484375,-135.47300720214844 C-183.03599548339844,-110.25700378417969 -319.7850036621094,-2.7929999828338623 -225.16900634765625,79.99600219726562 C-223.41700744628906,81.52899932861328 -220.02499389648438,85.07099914550781 -218.1929931640625,86.50700378417969z"/></g><g opacity="1" transform="matrix(1,0,0,1,285.4590148925781,319.72698974609375)"><path fill="rgb(188,73,31)" fill-opacity="1" d=" M-165.8350067138672,-60.44300079345703 C-165.8350067138672,-60.44300079345703 -33.237998962402344,50.819000244140625 159.64199829101562,-57.59700012207031 C159.64199829101562,-57.59700012207031 206.70199584960938,-86.06099700927734 207.56199645996094,-54.27799987792969 C207.56199645996094,-54.27799987792969 228.35800170898438,-33.45199966430664 197.71400451660156,-7.081999778747559 C167.06900024414062,19.28700065612793 -4.671999931335449,88.05000305175781 -150.47900390625,24.145999908447266 C-150.47900390625,24.145999908447266 -228.35800170898438,-13.494999885559082 -216.80799865722656,-48.034000396728516 C-203.42799377441406,-88.05000305175781 -165.8350067138672,-60.44300079345703 -165.8350067138672,-60.44300079345703z"/><path stroke-linecap="butt" stroke-linejoin="miter" fill-opacity="0" stroke-miterlimit="10" stroke="rgb(29,29,27)" stroke-opacity="1" stroke-width="5" d=" M-165.8350067138672,-60.44300079345703 C-165.8350067138672,-60.44300079345703 -33.237998962402344,50.819000244140625 159.64199829101562,-57.59700012207031 C159.64199829101562,-57.59700012207031 206.70199584960938,-86.06099700927734 207.56199645996094,-54.27799987792969 C207.56199645996094,-54.27799987792969 228.35800170898438,-33.45199966430664 197.71400451660156,-7.081999778747559 C167.06900024414062,19.28700065612793 -4.671999931335449,88.05000305175781 -150.47900390625,24.145999908447266 C-150.47900390625,24.145999908447266 -228.35800170898438,-13.494999885559082 -216.80799865722656,-48.034000396728516 C-203.42799377441406,-88.05000305175781 -165.8350067138672,-60.44300079345703 -165.8350067138672,-60.44300079345703z"/></g><g opacity="1" transform="matrix(1,0,0,1,281.6659851074219,307.48699951171875)"><path fill="rgb(29,29,27)" fill-opacity="1" d=" M-194.26300048828125,-24.320999145507812 C-174.3679962158203,-5.916999816894531 -150.98800659179688,7.935999870300293 -125.1719970703125,16.22599983215332 C-101.24600219726562,23.908000946044922 -76.15599822998047,26.809999465942383 -51.23500061035156,29.12299919128418 C-21.28700065612793,31.90399932861328 8.954000473022461,33.24800109863281 38.96699905395508,30.663000106811523 C52.73099899291992,29.476999282836914 66.37100219726562,27.281999588012695 79.9260025024414,24.642000198364258 C92.30400085449219,22.23200035095215 104.5989990234375,19.33099937438965 116.63600158691406,15.555999755859375 C141.75900268554688,7.676000118255615 165.33700561523438,-4.234000205993652 185.96800231933594,-20.66200065612793 C188.77699279785156,-22.89900016784668 191.52099609375,-25.214000701904297 194.21400451660156,-27.589000701904297 C196.63099670410156,-29.722999572753906 193.08399963378906,-33.24800109863281 190.67799377441406,-31.125 C170.92799377441406,-13.696999549865723 147.97000122070312,-0.550000011920929 123.12899780273438,8.142000198364258 C111.4219970703125,12.23799991607666 99.41300201416016,15.42300033569336 87.29399871826172,18.038999557495117 C74.63400268554688,20.770999908447266 61.81800079345703,23.1299991607666 48.95199966430664,24.64699935913086 C19.559999465942383,28.11199951171875 -10.20300006866455,27.427000045776367 -39.65599822998047,25.117000579833984 C-64.64099884033203,23.158000946044922 -89.9280014038086,20.756999969482422 -114.2020034790039,14.239999771118164 C-139.2209930419922,7.52400016784668 -162.5679931640625,-4.099999904632568 -182.54200744628906,-20.666000366210938 C-185.33799743652344,-22.985000610351562 -188.06100463867188,-25.389999389648438 -190.7270050048828,-27.85700035095215 C-193.08700561523438,-30.038999557495117 -196.63099670410156,-26.511999130249023 -194.26300048828125,-24.320999145507812z"/></g><g opacity="1" transform="matrix(1,0,0,1,206.67100524902344,220.83900451660156)"><path fill="rgb(29,29,27)" fill-opacity="1" d=" M63.65599822998047,-29.95800018310547 C50.7239990234375,-12.717000007629395 34.987998962402344,3.059000015258789 15.932000160217285,13.439000129699707 C0.3089999854564667,21.948999404907227 -17.29400062561035,26.187000274658203 -35.040000915527344,24.15999984741211 C-44.816001892089844,23.042999267578125 -54.5369987487793,19.892000198364258 -63.382999420166016,15.4350004196167 C-66.2490005493164,13.991000175476074 -68.78299713134766,18.304000854492188 -65.90599822998047,19.753000259399414 C-49.03200149536133,28.2549991607666 -30.200000762939453,31.60099983215332 -11.506999969482422,28.42799949645996 C8.135000228881836,25.0939998626709 25.95599937438965,14.894000053405762 40.915000915527344,2.0290000438690186 C51.05799865722656,-6.693999767303467 59.95600128173828,-16.746999740600586 67.97200012207031,-27.43400001525879 C68.78299713134766,-28.514999389648438 68.14700317382812,-30.226999282836914 67.07499694824219,-30.854000091552734 C65.7969970703125,-31.60099983215332 64.46900177001953,-31.041000366210938 63.65599822998047,-29.95800018310547z"/></g><g opacity="1" transform="matrix(1,0,0,1,365.06500244140625,224.0019989013672)"><path fill="rgb(29,29,27)" fill-opacity="1" d=" M-68.56900024414062,-27.118000030517578 C-56.52000045776367,-9.008999824523926 -40.89500045776367,6.914000034332275 -21.68600082397461,17.382999420166016 C-4.243000030517578,26.889999389648438 16.12299919128418,32.30699920654297 35.8120002746582,27.339000701904297 C48.08700180053711,24.243000030517578 58.97999954223633,17.360000610351562 68.03800201416016,8.633999824523926 C70.35900115966797,6.396999835968018 66.81999969482422,2.864000082015991 64.5009994506836,5.0980000495910645 C56.82899856567383,12.489999771118164 47.78499984741211,18.499000549316406 37.54999923706055,21.659000396728516 C28.516000747680664,24.447999954223633 18.88599967956543,24.9689998626709 9.569000244140625,23.4060001373291 C-8.96500015258789,20.29599952697754 -26.385000228881836,10.52400016784668 -40.32899856567383,-1.8389999866485596 C-49.518001556396484,-9.984999656677246 -57.457000732421875,-19.42799949645996 -64.25299835205078,-29.642000198364258 C-66.0270004272461,-32.30799865722656 -70.35800170898438,-29.80699920654297 -68.56900024414062,-27.118000030517578z"/></g><g opacity="1" transform="matrix(1,0,0,1,376.8699951171875,212.89199829101562)"><path fill="rgb(29,29,27)" fill-opacity="1" d=" M28.736000061035156,-28.988000869750977 C25.15399932861328,-7.243000030517578 14.875,18.464000701904297 -8.241000175476074,25.415000915527344 C-15.232000350952148,27.517000198364258 -22.54599952697754,27.81399917602539 -29.79400062561035,28.027000427246094 C-31.39900016784668,28.073999404907227 -31.4060001373291,30.573999404907227 -29.79400062561035,30.527000427246094 C-23.158000946044922,30.332000732421875 -16.46299934387207,30.062999725341797 -9.986000061035156,28.481000900268555 C-3.61299991607666,26.92300033569336 2.359999895095825,24.018999099731445 7.421000003814697,19.833999633789062 C15.5600004196167,13.104999542236328 21.165000915527344,3.5940001010894775 25.069000244140625,-6.090000152587891 C27.950000762939453,-13.236000061035156 29.895999908447266,-20.726999282836914 31.14699935913086,-28.32200050354004 C31.4060001373291,-29.895999908447266 28.996999740600586,-30.573999404907227 28.736000061035156,-28.988000869750977z"/></g><g opacity="1" transform="matrix(1,0,0,1,171.88600158691406,234.52099609375)"><path fill="rgb(29,29,27)" fill-opacity="1" d=" M-21.885000228881836,-9.993000030517578 C-9.607000350952148,0.6800000071525574 4.828000068664551,9.093000411987305 20.86199951171875,12.479000091552734 C22.430999755859375,12.810999870300293 23.101999282836914,10.402000427246094 21.525999069213867,10.069000244140625 C5.9120001792907715,6.770999908447266 -8.154000282287598,-1.3600000143051147 -20.117000579833984,-11.760000228881836 C-21.326000213623047,-12.810999870300293 -23.101999282836914,-11.050999641418457 -21.885000228881836,-9.993000030517578z"/></g><g opacity="1" transform="matrix(1,0,0,1,199.4250030517578,211.4980010986328)"><path fill="rgb(29,29,27)" fill-opacity="1" d=" M-28.457000732421875,-22.548999786376953 C-25.56599998474121,-13.114999771118164 -20.993000030517578,-4.192999839782715 -14.47700023651123,3.256999969482422 C-8.065999984741211,10.588000297546387 0.07100000232458115,15.878999710083008 9.152000427246094,19.325000762939453 C14.852999687194824,21.48900032043457 20.783000946044922,22.940000534057617 26.700000762939453,24.3700008392334 C28.26300048828125,24.746999740600586 28.93000030517578,22.336999893188477 27.36400032043457,21.958999633789062 C17.09600067138672,19.47800064086914 6.811999797821045,16.773000717163086 -2.0969998836517334,10.86400032043457 C-9.14900016784668,6.186999797821045 -14.906999588012695,-0.2770000100135803 -19.20800018310547,-7.533999919891357 C-22.128000259399414,-12.461999893188477 -24.368999481201172,-17.739999771118164 -26.04599952697754,-23.214000701904297 C-26.516000747680664,-24.746999740600586 -28.93000030517578,-24.093000411987305 -28.457000732421875,-22.548999786376953z"/></g><g opacity="1" transform="matrix(1,0,0,1,285.22698974609375,193.51199340820312)"><path fill="rgb(29,29,27)" fill-opacity="1" d=" M-12.451000213623047,0.2759999930858612 C-9.003999710083008,-1.625 -4.5980000495910645,-1.8049999475479126 -0.7649999856948853,-1.5069999694824219 C3.816999912261963,-1.1510000228881836 8.623000144958496,0.23999999463558197 12.140000343322754,3.311000108718872 C13.347000122070312,4.366000175476074 15.121999740600586,2.6040000915527344 13.907999992370605,1.5440000295639038 C9.939000129699707,-1.9210000038146973 4.741000175476074,-3.5220000743865967 -0.4350000023841858,-3.9790000915527344 C-4.816999912261963,-4.364999771118164 -9.784000396728516,-4.048999786376953 -13.713000297546387,-1.8830000162124634 C-15.121999740600586,-1.1059999465942383 -13.862000465393066,1.0540000200271606 -12.451000213623047,0.2759999930858612z"/></g><g opacity="1" transform="matrix(1,0,0,1,288.28900146484375,172.15499877929688)"><path fill="rgb(29,29,27)" fill-opacity="1" d=" M-9.937999725341797,-3.010999917984009 C-6.671999931335449,3.997999906539917 3.6760001182556152,5.730000019073486 9.402000427246094,0.7179999947547913 C10.614999771118164,-0.34299999475479126 8.840999603271484,-2.1059999465942383 7.633999824523926,-1.0499999523162842 C5.520999908447266,0.800000011920929 2.3299999237060547,1.3240000009536743 -0.38199999928474426,0.9670000076293945 C-3.625,0.5400000214576721 -6.38700008392334,-1.284999966621399 -7.7789998054504395,-4.2729997634887695 C-8.458000183105469,-5.730000019073486 -10.61400032043457,-4.461999893188477 -9.937999725341797,-3.010999917984009z"/></g></g><g transform="matrix(0.932979941368103,0,0,0.932979941368103,-8.49981689453125,-8.49981689453125)" opacity="1" style="display: block;"><g opacity="1" transform="matrix(1,0,0,1,216.61700439453125,155.89599609375)"><path fill="rgb(255,255,255)" fill-opacity="1" d=" M60.71200180053711,8.543000221252441 C59.630001068115234,45.862998962402344 31.57200050354004,72.29299926757812 -1.9579999446868896,67.57499694824219 C-35.487998962402344,62.85599899291992 -61.792999267578125,28.777000427246094 -60.71099853515625,-8.543000221252441 C-59.62900161743164,-45.86399841308594 -31.56999969482422,-72.29299926757812 1.9600000381469727,-67.57499694824219 C35.4900016784668,-62.856998443603516 61.79399871826172,-28.777000427246094 60.71200180053711,8.543000221252441z"/><path stroke-linecap="butt" stroke-linejoin="miter" fill-opacity="0" stroke-miterlimit="10" stroke="rgb(29,29,27)" stroke-opacity="1" stroke-width="6" d=" M60.71200180053711,8.543000221252441 C59.630001068115234,45.862998962402344 31.57200050354004,72.29299926757812 -1.9579999446868896,67.57499694824219 C-35.487998962402344,62.85599899291992 -61.792999267578125,28.777000427246094 -60.71099853515625,-8.543000221252441 C-59.62900161743164,-45.86399841308594 -31.56999969482422,-72.29299926757812 1.9600000381469727,-67.57499694824219 C35.4900016784668,-62.856998443603516 61.79399871826172,-28.777000427246094 60.71200180053711,8.543000221252441z"/></g><g opacity="1" transform="matrix(1,0,0,1,354.7250061035156,161.95700073242188)"><path fill="rgb(255,255,255)" fill-opacity="1" d=" M60.70800018310547,-8.63700008392334 C61.801998138427734,28.68199920654297 35.507999420166016,62.801998138427734 1.9800000190734863,67.5719985961914 C-31.548999786376953,72.34200286865234 -59.61600112915039,45.95600128173828 -60.70899963378906,8.63700008392334 C-61.803001403808594,-28.68199920654297 -35.50899887084961,-62.801998138427734 -1.9809999465942383,-67.5719985961914 C31.547000885009766,-72.34200286865234 59.61399841308594,-45.95600128173828 60.70800018310547,-8.63700008392334z"/><path stroke-linecap="butt" stroke-linejoin="miter" fill-opacity="0" stroke-miterlimit="10" stroke="rgb(29,29,27)" stroke-opacity="1" stroke-width="6" d=" M60.70800018310547,-8.63700008392334 C61.801998138427734,28.68199920654297 35.507999420166016,62.801998138427734 1.9800000190734863,67.5719985961914 C-31.548999786376953,72.34200286865234 -59.61600112915039,45.95600128173828 -60.70899963378906,8.63700008392334 C-61.803001403808594,-28.68199920654297 -35.50899887084961,-62.801998138427734 -1.9809999465942383,-67.5719985961914 C31.547000885009766,-72.34200286865234 59.61399841308594,-45.95600128173828 60.70800018310547,-8.63700008392334z"/></g><g opacity="1" transform="matrix(1,0,0,1,203.8489990234375,153.01300048828125)"><path fill="rgb(29,29,27)" fill-opacity="1" d=" M-8.050000190734863,-32.178001403808594 C-1.937000036239624,-35.04600143432617 11.711999893188477,-37.34400177001953 19.014999389648438,-6.453000068664551 C20.350000381469727,-0.8050000071525574 20.270000457763672,5.9679999351501465 18.7549991607666,11.390000343322754 C15.793000221252441,21.989999771118164 8.767999649047852,37.34400177001953 -6.710000038146973,33.999000549316406 C-8.805000305175781,33.54600143432617 -10.730999946594238,31.243000030517578 -12.07699966430664,27.67799949645996 C-15.45199966430664,18.735000610351562 -20.350000381469727,-0.4169999957084656 -13.07800006866455,-24.579999923706055 C-11.913999557495117,-28.445999145507812 -10.109000205993652,-31.211999893188477 -8.050000190734863,-32.178001403808594z"/><path stroke-linecap="butt" stroke-linejoin="miter" fill-opacity="0" stroke-miterlimit="10" stroke="rgb(29,29,27)" stroke-opacity="1" stroke-width="5" d=" M-8.050000190734863,-32.178001403808594 C-1.937000036239624,-35.04600143432617 11.711999893188477,-37.34400177001953 19.014999389648438,-6.453000068664551 C20.350000381469727,-0.8050000071525574 20.270000457763672,5.9679999351501465 18.7549991607666,11.390000343322754 C15.793000221252441,21.989999771118164 8.767999649047852,37.34400177001953 -6.710000038146973,33.999000549316406 C-8.805000305175781,33.54600143432617 -10.730999946594238,31.243000030517578 -12.07699966430664,27.67799949645996 C-15.45199966430664,18.735000610351562 -20.350000381469727,-0.4169999957084656 -13.07800006866455,-24.579999923706055 C-11.913999557495117,-28.445999145507812 -10.109000205993652,-31.211999893188477 -8.050000190734863,-32.178001403808594z"/></g><g opacity="1" transform="matrix(1,0,0,1,365.2669982910156,159.36500549316406)"><path fill="rgb(29,29,27)" fill-opacity="1" d=" M8.050000190734863,-32.178001403808594 C1.937000036239624,-35.047000885009766 -11.711999893188477,-37.34400177001953 -19.014999389648438,-6.453000068664551 C-20.350000381469727,-0.8050000071525574 -20.270000457763672,5.9679999351501465 -18.7549991607666,11.390000343322754 C-15.793000221252441,21.989999771118164 -8.767999649047852,37.34400177001953 6.710000038146973,33.999000549316406 C8.805000305175781,33.54600143432617 10.730999946594238,31.243000030517578 12.07699966430664,27.67799949645996 C15.45199966430664,18.735000610351562 20.350000381469727,-0.4169999957084656 13.07800006866455,-24.579999923706055 C11.913999557495117,-28.445999145507812 10.109000205993652,-31.211999893188477 8.050000190734863,-32.178001403808594z"/><path stroke-linecap="butt" stroke-linejoin="miter" fill-opacity="0" stroke-miterlimit="10" stroke="rgb(29,29,27)" stroke-opacity="1" stroke-width="5" d=" M8.050000190734863,-32.178001403808594 C1.937000036239624,-35.047000885009766 -11.711999893188477,-37.34400177001953 -19.014999389648438,-6.453000068664551 C-20.350000381469727,-0.8050000071525574 -20.270000457763672,5.9679999351501465 -18.7549991607666,11.390000343322754 C-15.793000221252441,21.989999771118164 -8.767999649047852,37.34400177001953 6.710000038146973,33.999000549316406 C8.805000305175781,33.54600143432617 10.730999946594238,31.243000030517578 12.07699966430664,27.67799949645996 C15.45199966430664,18.735000610351562 20.350000381469727,-0.4169999957084656 13.07800006866455,-24.579999923706055 C11.913999557495117,-28.445999145507812 10.109000205993652,-31.211999893188477 8.050000190734863,-32.178001403808594z"/></g><g opacity="1" transform="matrix(1,0,0,1,210.8990020751953,157.2259979248047)"><path fill="rgb(255,255,255)" fill-opacity="1" d=" M5.560999870300293,0 C5.560999870300293,6.767000198364258 3.071000099182129,12.253000259399414 0,12.253000259399414 C-3.072000026702881,12.253000259399414 -5.561999797821045,6.767000198364258 -5.561999797821045,0 C-5.561999797821045,-6.767000198364258 -3.072000026702881,-12.253000259399414 0,-12.253000259399414 C3.071000099182129,-12.253000259399414 5.560999870300293,-6.767000198364258 5.560999870300293,0z"/></g><g opacity="1" transform="matrix(1,0,0,1,360.2860107421875,163.0709991455078)"><path fill="rgb(255,255,255)" fill-opacity="1" d=" M5.561999797821045,0 C5.561999797821045,6.767000198364258 3.072000026702881,12.253000259399414 0.0010000000474974513,12.253000259399414 C-3.071000099182129,12.253000259399414 -5.560999870300293,6.767000198364258 -5.560999870300293,0 C-5.560999870300293,-6.767000198364258 -3.071000099182129,-12.253000259399414 0.0010000000474974513,-12.253000259399414 C3.072000026702881,-12.253000259399414 5.561999797821045,-6.767000198364258 5.561999797821045,0z"/></g></g></g></svg>