<svg xmlns="http://www.w3.org/2000/svg" xmlns:xlink="http://www.w3.org/1999/xlink" viewBox="0 0 512 512" width="512" height="512" preserveAspectRatio="xMidYMid meet" style="width: 100%; height: 100%; transform: translate3d(0px, 0px, 0px); content-visibility: visible;"><defs><clipPath id="__lottie_element_2"><rect width="512" height="512" x="0" y="0"/></clipPath></defs><g clip-path="url(#__lottie_element_2)"><g transform="matrix(0.9118199944496155,0,0,0.9118199944496155,-2.5009765625,-2.5009765625)" opacity="1" style="display: block;"><g opacity="1" transform="matrix(1,0,0,1,283.9739990234375,422.0669860839844)"><path fill="rgb(0,64,255)" fill-opacity="1" d=" M-246.052001953125,-97.9530029296875 C-246.052001953125,-97.9530029296875 -273.5220031738281,19.184999465942383 -251.28799438476562,77.56800079345703 C-229.0540008544922,135.9510040283203 192.57200622558594,131.26100158691406 233.0469970703125,95.80999755859375 C273.5220031738281,60.358001708984375 228.72999572753906,-80.6050033569336 228.72999572753906,-80.6050033569336 C228.72999572753906,-80.6050033569336 -43.12099838256836,-135.9510040283203 -246.052001953125,-97.9530029296875z"/><path stroke-linecap="butt" stroke-linejoin="miter" fill-opacity="0" stroke-miterlimit="10" stroke="rgb(29,29,27)" stroke-opacity="1" stroke-width="8" d=" M-246.052001953125,-97.9530029296875 C-246.052001953125,-97.9530029296875 -273.5220031738281,19.184999465942383 -251.28799438476562,77.56800079345703 C-229.0540008544922,135.9510040283203 192.57200622558594,131.26100158691406 233.0469970703125,95.80999755859375 C273.5220031738281,60.358001708984375 228.72999572753906,-80.6050033569336 228.72999572753906,-80.6050033569336 C228.72999572753906,-80.6050033569336 -43.12099838256836,-135.9510040283203 -246.052001953125,-97.9530029296875z"/></g><g opacity="1" transform="matrix(1,0,0,1,289.68798828125,244.0989990234375)"><path fill="rgb(0,130,12)" fill-opacity="1" d=" M250.69700622558594,77.98600006103516 C254.33200073242188,107.8219985961914 245.8179931640625,135.07000732421875 241.5260009765625,146.4219970703125 C240.2050018310547,149.9149932861328 238.36399841308594,153.08799743652344 236.06900024414062,155.74600219726562 C211.5019989013672,184.2050018310547 196.5800018310547,187.4550018310547 163.72300720214844,197.06900024414062 C69.48799896240234,224.64500427246094 -47.777000427246094,212.5019989013672 -137.4600067138672,172.5760040283203 C-182.10800170898438,152.697998046875 -227.9250030517578,111.98300170898438 -251.76600646972656,80.01399993896484 C-251.76600646972656,80.01399993896484 -270.0509948730469,-81.71199798583984 -177.3990020751953,-159.1320037841797 C-127.99800109863281,-200.41200256347656 -99.9540023803711,-214.8699951171875 -69.03700256347656,-222.1719970703125 C-62.564998626708984,-223.7010040283203 -54.64899826049805,-224.46800231933594 -46.069000244140625,-224.50399780273438 C-12.435999870300293,-224.64500427246094 20.10300064086914,-212.53500366210938 46.03900146484375,-191.1219940185547 C46.03900146484375,-191.1219940185547 53.40299987792969,-185.04299926757812 53.40299987792969,-185.04299926757812 C53.40299987792969,-185.04299926757812 76.25299835205078,-210.3159942626953 124.21199798583984,-203.6510009765625 C185.38699340820312,-195.1479949951172 231.00799560546875,-124.21499633789062 231.00799560546875,-124.21499633789062 C231.00799560546875,-124.21499633789062 266.49798583984375,-104.50900268554688 267.63299560546875,-74.25800323486328 C267.63299560546875,-74.25800323486328 270.0509948730469,-42.45399856567383 249.75900268554688,1.5260000228881836 C247.2449951171875,6.974999904632568 245.9459991455078,13.102999687194824 246.0229949951172,19.28499984741211 C246.13800048828125,28.44499969482422 247.92300415039062,55.21799850463867 250.69700622558594,77.98600006103516z"/><path stroke-linecap="butt" stroke-linejoin="miter" fill-opacity="0" stroke-miterlimit="10" stroke="rgb(29,29,27)" stroke-opacity="1" stroke-width="8" d=" M250.69700622558594,77.98600006103516 C254.33200073242188,107.8219985961914 245.8179931640625,135.07000732421875 241.5260009765625,146.4219970703125 C240.2050018310547,149.9149932861328 238.36399841308594,153.08799743652344 236.06900024414062,155.74600219726562 C211.5019989013672,184.2050018310547 196.5800018310547,187.4550018310547 163.72300720214844,197.06900024414062 C69.48799896240234,224.64500427246094 -47.777000427246094,212.5019989013672 -137.4600067138672,172.5760040283203 C-182.10800170898438,152.697998046875 -227.9250030517578,111.98300170898438 -251.76600646972656,80.01399993896484 C-251.76600646972656,80.01399993896484 -270.0509948730469,-81.71199798583984 -177.3990020751953,-159.1320037841797 C-127.99800109863281,-200.41200256347656 -99.9540023803711,-214.8699951171875 -69.03700256347656,-222.1719970703125 C-62.564998626708984,-223.7010040283203 -54.64899826049805,-224.46800231933594 -46.069000244140625,-224.50399780273438 C-12.435999870300293,-224.64500427246094 20.10300064086914,-212.53500366210938 46.03900146484375,-191.1219940185547 C46.03900146484375,-191.1219940185547 53.40299987792969,-185.04299926757812 53.40299987792969,-185.04299926757812 C53.40299987792969,-185.04299926757812 76.25299835205078,-210.3159942626953 124.21199798583984,-203.6510009765625 C185.38699340820312,-195.1479949951172 231.00799560546875,-124.21499633789062 231.00799560546875,-124.21499633789062 C231.00799560546875,-124.21499633789062 266.49798583984375,-104.50900268554688 267.63299560546875,-74.25800323486328 C267.63299560546875,-74.25800323486328 270.0509948730469,-42.45399856567383 249.75900268554688,1.5260000228881836 C247.2449951171875,6.974999904632568 245.9459991455078,13.102999687194824 246.0229949951172,19.28499984741211 C246.13800048828125,28.44499969482422 247.92300415039062,55.21799850463867 250.69700622558594,77.98600006103516z"/></g><g opacity="1" transform="matrix(1,0,0,1,461.760009765625,172.6999969482422)"><path fill="rgb(255,255,255)" fill-opacity="1" d=" M-91.7969970703125,-8.899999618530273 C-67.24600219726562,-46.71200180053711 61.720001220703125,-104.3280029296875 93.96099853515625,-12.230999946594238 C97.44100189208984,-2.2899999618530273 95.2300033569336,14.265999794006348 90.38700103759766,24.92799949645996 C86.8479995727539,32.720001220703125 86.03099822998047,34.047000885009766 78.84100341796875,42.742000579833984 C56.16699981689453,70.16100311279297 -43.119998931884766,104.3280029296875 -92.37000274658203,21.09600067138672 C-97.44100189208984,12.527000427246094 -97.21800231933594,-0.5519999861717224 -91.7969970703125,-8.899999618530273z"/><path stroke-linecap="butt" stroke-linejoin="miter" fill-opacity="0" stroke-miterlimit="10" stroke="rgb(29,29,27)" stroke-opacity="1" stroke-width="6" d=" M-91.7969970703125,-8.899999618530273 C-67.24600219726562,-46.71200180053711 61.720001220703125,-104.3280029296875 93.96099853515625,-12.230999946594238 C97.44100189208984,-2.2899999618530273 95.2300033569336,14.265999794006348 90.38700103759766,24.92799949645996 C86.8479995727539,32.720001220703125 86.03099822998047,34.047000885009766 78.84100341796875,42.742000579833984 C56.16699981689453,70.16100311279297 -43.119998931884766,104.3280029296875 -92.37000274658203,21.09600067138672 C-97.44100189208984,12.527000427246094 -97.21800231933594,-0.5519999861717224 -91.7969970703125,-8.899999618530273z"/></g><g opacity="1" transform="matrix(1,0,0,1,454.2139892578125,118.21199798583984)"><path fill="rgb(0,130,12)" fill-opacity="1" d=" M-98.06900024414062,4.939000129699707 C-60.17100143432617,-20.17799949645996 -22.979999542236328,-41.055999755859375 24.141000747680664,-28.801000595092773 C31.14299964904785,-26.979000091552734 38.76499938964844,-23.465999603271484 46.196998596191406,-18.95199966430664 C65.54399871826172,-7.198999881744385 88.73699951171875,6.77400016784668 98.06800079345703,34.25899887084961 C98.06800079345703,34.25899887084961 90.88500213623047,24.761999130249023 90.88500213623047,24.761999130249023 C90.88500213623047,24.761999130249023 74.95500183105469,4.75 33.31399917602539,0.10599999874830246 C24.52400016784668,-0.8740000128746033 -11.86400032043457,-6.874000072479248 -83.9520034790039,41.055999755859375 C-83.9520034790039,41.055999755859375 -98.06900024414062,4.939000129699707 -98.06900024414062,4.939000129699707z"/><path stroke-linecap="butt" stroke-linejoin="round" fill-opacity="0" stroke="rgb(29,29,27)" stroke-opacity="1" stroke-width="6" d=" M-98.06900024414062,4.939000129699707 C-60.17100143432617,-20.17799949645996 -22.979999542236328,-41.055999755859375 24.141000747680664,-28.801000595092773 C31.14299964904785,-26.979000091552734 38.76499938964844,-23.465999603271484 46.196998596191406,-18.95199966430664 C65.54399871826172,-7.198999881744385 88.73699951171875,6.77400016784668 98.06800079345703,34.25899887084961 C98.06800079345703,34.25899887084961 90.88500213623047,24.761999130249023 90.88500213623047,24.761999130249023 C90.88500213623047,24.761999130249023 74.95500183105469,4.75 33.31399917602539,0.10599999874830246 C24.52400016784668,-0.8740000128746033 -11.86400032043457,-6.874000072479248 -83.9520034790039,41.055999755859375 C-83.9520034790039,41.055999755859375 -98.06900024414062,4.939000129699707 -98.06900024414062,4.939000129699707z"/></g><g opacity="1" transform="matrix(1,0,0,1,257.593994140625,101.89600372314453)"><path fill="rgb(0,130,12)" fill-opacity="1" d=" M-123.38600158691406,23.827999114990234 C-24.24799919128418,-50.452999114990234 42.470001220703125,-40.74100112915039 76.16000366210938,-15.982999801635742 C88.47799682617188,-6.931000232696533 95.89800262451172,-3.0179998874664307 103.69200134277344,8.58899974822998 C107.52799987792969,14.302000045776367 110.45500183105469,18.339000701904297 112.8239974975586,25.20800018310547 C112.8239974975586,25.20800018310547 123.38600158691406,47.36800003051758 123.38600158691406,47.36800003051758 C123.38600158691406,47.36800003051758 72.58799743652344,-45.513999938964844 -104.94100189208984,50.45199966430664"/><path stroke-linecap="round" stroke-linejoin="round" fill-opacity="0" stroke="rgb(29,29,27)" stroke-opacity="1" stroke-width="6" d=" M-123.38600158691406,23.827999114990234 C-24.24799919128418,-50.452999114990234 42.470001220703125,-40.74100112915039 76.16000366210938,-15.982999801635742 C88.47799682617188,-6.931000232696533 95.89800262451172,-3.0179998874664307 103.69200134277344,8.58899974822998 C107.52799987792969,14.302000045776367 110.45500183105469,18.339000701904297 112.8239974975586,25.20800018310547 C112.8239974975586,25.20800018310547 123.38600158691406,47.36800003051758 123.38600158691406,47.36800003051758 C123.38600158691406,47.36800003051758 72.58799743652344,-45.513999938964844 -104.94100189208984,50.45199966430664"/></g><g opacity="1" transform="matrix(1,0,0,1,434.9880065917969,77.62799835205078)"><path fill="rgb(29,29,27)" fill-opacity="1" d=" M64.55000305175781,16.46299934387207 C52.01599884033203,3.1089999675750732 37.57899856567383,-9.21500015258789 20.238000869750977,-15.741999626159668 C2.681999921798706,-22.350000381469727 -17.44300079345703,-21.61400032043457 -35.27199935913086,-16.437000274658203 C-45.89799880981445,-13.35200023651123 -56.01900100708008,-8.532999992370605 -65.13800048828125,-2.2730000019073486 C-66.25,-1.5099999904632568 -66.75199890136719,-0.07800000160932541 -66.03500366210938,1.1469999551773071 C-65.39099884033203,2.249000072479248 -63.733001708984375,2.812000036239624 -62.6150016784668,2.0439999103546143 C-47.2859992980957,-8.477999687194824 -29.166000366210938,-14.765000343322754 -10.541000366210938,-15.376999855041504 C-1.6239999532699585,-15.670000076293945 7.285999774932861,-14.78499984741211 15.791999816894531,-12.015000343322754 C23.94300079345703,-9.359999656677246 31.51300048828125,-5.1620001792907715 38.48400115966797,-0.20900000631809235 C46.722999572753906,5.645999908447266 54.10900115966797,12.642000198364258 61.013999938964844,19.999000549316406 C63.22100067138672,22.350000381469727 66.75199890136719,18.80900001525879 64.55000305175781,16.46299934387207z"/></g><g opacity="1" transform="matrix(1,0,0,1,281.2869873046875,223.41400146484375)"><path fill="rgb(29,29,27)" fill-opacity="1" d=" M88.80500030517578,-25.22599983215332 C69.96099853515625,-8.093999862670898 47.53200149536133,5.014999866485596 23.332000732421875,12.963000297546387 C-0.38100001215934753,20.75200080871582 -25.621000289916992,23.61199951171875 -50.459999084472656,21.003000259399414 C-64.39800262451172,19.540000915527344 -78.14199829101562,16.250999450683594 -91.26699829101562,11.343000411987305 C-92.53199768066406,10.869999885559082 -94.00700378417969,11.869999885559082 -94.34200286865234,13.09000015258789 C-94.72699737548828,14.489999771118164 -93.86499786376953,15.690999984741211 -92.59600067138672,16.166000366210938 C-80.5739974975586,20.66200065612793 -68.08200073242188,23.72100067138672 -55.362998962402344,25.416000366210938 C-42.805999755859375,27.089000701904297 -30.08099937438965,27.38599967956543 -17.458999633789062,26.326000213623047 C-4.617000102996826,25.246999740600586 8.114999771118164,22.836000442504883 20.45199966430664,19.111000061035156 C32.845001220703125,15.368000030517578 44.86899948120117,10.321000099182129 56.224998474121094,4.10699987411499 C67.77899932861328,-2.2160000801086426 78.64800262451172,-9.786999702453613 88.61900329589844,-18.389999389648438 C89.8740005493164,-19.472999572753906 91.11399841308594,-20.573999404907227 92.34100341796875,-21.68899917602539 C94.72699737548828,-23.858999252319336 91.18199920654297,-27.386999130249023 88.80500030517578,-25.22599983215332z"/></g><g opacity="1" transform="matrix(1,0,0,1,424.9079895019531,234.4320068359375)"><path fill="rgb(29,29,27)" fill-opacity="1" d=" M-47.189998626708984,-24.042999267578125 C-38.066001892089844,-8.960000038146973 -26.548999786376953,4.991000175476074 -11.628000259399414,14.637999534606934 C-0.5070000290870667,21.82699966430664 12.156999588012695,26.110000610351562 25.236000061035156,27.9060001373291 C32.00400161743164,28.834999084472656 38.814998626708984,29.201000213623047 45.64099884033203,29.27899932861328 C48.86000061035156,29.31599998474121 48.86199951171875,24.31599998474121 45.64099884033203,24.27899932861328 C33.680999755859375,24.142000198364258 22.45599937438965,23.23200035095215 11.034000396728516,19.718000411987305 C-2.196000099182129,15.64799976348877 -14.102999687194824,8.076000213623047 -23.961000442504883,-1.8309999704360962 C-31.31599998474121,-9.222000122070312 -37.486000061035156,-17.65999984741211 -42.874000549316406,-26.566999435424805 C-44.5369987487793,-29.31599998474121 -48.861000061035156,-26.805999755859375 -47.189998626708984,-24.042999267578125z"/></g><g opacity="1" transform="matrix(1,0,0,1,326.489990234375,232.61599731445312)"><path fill="rgb(29,29,27)" fill-opacity="1" d=" M-35.3120002746582,25.415000915527344 C-13.10099983215332,23.65399932861328 7.234000205993652,10.315999984741211 22.73699951171875,-4.938000202178955 C27.913999557495117,-10.031999588012695 32.64899826049805,-15.543000221252441 37.00199890136719,-21.354000091552734 C37.8120002746582,-22.43600082397461 37.176998138427734,-24.148000717163086 36.10499954223633,-24.774999618530273 C34.827999114990234,-25.52199935913086 33.49700164794922,-24.961999893188477 32.685001373291016,-23.878000259399414 C25.55900001525879,-14.36400032043457 17.148000717163086,-5.702000141143799 7.74399995803833,1.5759999752044678 C-0.6140000224113464,8.045000076293945 -9.939000129699707,13.579999923706055 -19.954999923706055,17.042999267578125 C-24.93899917602539,18.766000747680664 -30.13800048828125,20.0049991607666 -35.3120002746582,20.415000915527344 C-36.65800094604492,20.52199935913086 -37.8120002746582,21.488000869750977 -37.8120002746582,22.915000915527344 C-37.8120002746582,24.184999465942383 -36.665000915527344,25.52199935913086 -35.3120002746582,25.415000915527344z"/></g><g opacity="1" transform="matrix(1,0,0,1,51.33599853515625,282.0039978027344)"><path fill="rgb(29,29,27)" fill-opacity="1" d=" M-12.28499984741211,-45.64400100708008 C-16.589000701904297,-31.427000045776367 -17.17099952697754,-16.641000747680664 -15.190999984741211,-1.9800000190734863 C-14.3100004196167,4.5370001792907715 -13.218000411987305,11.086000442504883 -10.78600025177002,17.22800064086914 C-8.630999565124512,22.670000076293945 -5.679999828338623,27.641000747680664 -2.0959999561309814,32.2599983215332 C1.909000039100647,37.422000885009766 6.559999942779541,42.020999908447266 11.293999671936035,46.50699996948242 C13.628999710083008,48.720001220703125 17.170000076293945,45.189998626708984 14.829000473022461,42.97200012207031 C6.8420000076293945,35.40399932861328 -0.9340000152587891,27.413000106811523 -5.422999858856201,17.200000762939453 C-7.90500020980835,11.555000305175781 -9.057000160217285,5.48199987411499 -9.979999542236328,-0.5809999704360962 C-10.998000144958496,-7.269999980926514 -11.503999710083008,-14.053000450134277 -11.312000274658203,-20.81999969482422 C-11.085000038146973,-28.805999755859375 -9.777999877929688,-36.66999816894531 -7.464000225067139,-44.314998626708984 C-6.5289998054504395,-47.4010009765625 -11.354000091552734,-48.720001220703125 -12.28499984741211,-45.64400100708008z"/></g><g opacity="1" transform="matrix(1,0,0,1,333.0249938964844,304.5660095214844)"><path fill="rgb(188,73,31)" fill-opacity="1" d=" M-119.61900329589844,-41.10599899291992 C-100.4990005493164,-35.95000076293945 20.06800079345703,36.020999908447266 177.42300415039062,-35.8129997253418 C178.83599853515625,-36.45800018310547 180.38600158691406,-36.75600051879883 181.8509979248047,-37.39099884033203 C189.7550048828125,-40.814998626708984 218.9010009765625,-51.94499969482422 220.0260009765625,-30.392000198364258 C220.28700256347656,-25.402999877929688 219.7259979248047,-20.26300048828125 218.66099548339844,-15.229999542236328 C213.9040069580078,7.250999927520752 198.64599609375,21.225000381469727 183.12399291992188,27.986000061035156 C127.08999633789062,52.39500045776367 28.770000457763672,86.8949966430664 -141.656005859375,21.493000030517578 C-141.656005859375,21.493000030517578 -220.28700256347656,-8.864999771118164 -207.8719940185547,-47.020999908447266 C-194.8979949951172,-86.8949966430664 -148.83099365234375,-53.172000885009766 -138.1959991455078,-48.67499923706055 C-136.95899963378906,-48.152000427246094 -120.89800262451172,-41.45100021362305 -119.61900329589844,-41.10599899291992z"/><path stroke-linecap="butt" stroke-linejoin="miter" fill-opacity="0" stroke-miterlimit="10" stroke="rgb(29,29,27)" stroke-opacity="1" stroke-width="6" d=" M-119.61900329589844,-41.10599899291992 C-100.4990005493164,-35.95000076293945 20.06800079345703,36.020999908447266 177.42300415039062,-35.8129997253418 C178.83599853515625,-36.45800018310547 180.38600158691406,-36.75600051879883 181.8509979248047,-37.39099884033203 C189.7550048828125,-40.814998626708984 218.9010009765625,-51.94499969482422 220.0260009765625,-30.392000198364258 C220.28700256347656,-25.402999877929688 219.7259979248047,-20.26300048828125 218.66099548339844,-15.229999542236328 C213.9040069580078,7.250999927520752 198.64599609375,21.225000381469727 183.12399291992188,27.986000061035156 C127.08999633789062,52.39500045776367 28.770000457763672,86.8949966430664 -141.656005859375,21.493000030517578 C-141.656005859375,21.493000030517578 -220.28700256347656,-8.864999771118164 -207.8719940185547,-47.020999908447266 C-194.8979949951172,-86.8949966430664 -148.83099365234375,-53.172000885009766 -138.1959991455078,-48.67499923706055 C-136.95899963378906,-48.152000427246094 -120.89800262451172,-41.45100021362305 -119.61900329589844,-41.10599899291992z"/></g><g opacity="1" transform="matrix(1,0,0,1,348.08099365234375,297.5660095214844)"><path fill="rgb(29,29,27)" fill-opacity="1" d=" M-202.22300720214844,-30.09000015258789 C-180.88099670410156,-14.086000442504883 -157.02099609375,-1.690000057220459 -132.1999969482422,7.966000080108643 C-105.68800354003906,18.27899932861328 -77.96900177001953,25.427000045776367 -49.891998291015625,29.90399932861328 C-21.222000122070312,34.47600173950195 7.889999866485596,36.3380012512207 36.909000396728516,35.347999572753906 C65.1240005493164,34.3849983215332 93.34600067138672,30.770000457763672 120.74400329589844,23.895000457763672 C146.2209930419922,17.50200080871582 171.16900634765625,8.227999687194824 193.98699951171875,-4.869999885559082 C196.7100067138672,-6.433000087738037 199.3979949951172,-8.055000305175781 202.05499267578125,-9.727999687194824 C204.77099609375,-11.437999725341797 202.26499938964844,-15.765999794006348 199.531005859375,-14.045000076293945 C177.69500732421875,-0.2939999997615814 153.63299560546875,9.581999778747559 128.83700561523438,16.56599998474121 C102.1449966430664,24.083999633789062 74.5770034790039,28.31100082397461 46.90999984741211,29.892000198364258 C18.305999755859375,31.525999069213867 -10.503999710083008,30.39900016784668 -38.89099884033203,26.516000747680664 C-66.9280014038086,22.680999755859375 -94.66699981689453,16.209999084472656 -121.33200073242188,6.698999881744385 C-146.2480010986328,-2.187999963760376 -170.31199645996094,-13.829999923706055 -192.08700561523438,-28.915000915527344 C-194.65899658203125,-30.69700050354004 -197.1959991455078,-32.529998779296875 -199.69900512695312,-34.40700149536133 C-202.27499389648438,-36.3380012512207 -204.77000427246094,-32 -202.22300720214844,-30.09000015258789z"/></g><g opacity="1" transform="matrix(1,0,0,1,357.10198974609375,438.8909912109375)"><path fill="rgb(29,29,27)" fill-opacity="1" d=" M-15.503000259399414,2.256999969482422 C-10.800000190734863,3.2300000190734863 -6.008999824523926,3.8289999961853027 -1.2000000476837158,3.746000051498413 C4.070000171661377,3.6549999713897705 9.3100004196167,2.812999963760376 14.447999954223633,1.6829999685287476 C17.589000701904297,0.9919999837875366 16.260000228881836,-3.8289999961853027 13.119000434875488,-3.138000011444092 C8.401000022888184,-2.1010000705718994 3.6389999389648438,-1.3380000591278076 -1.2000000476837158,-1.253999948501587 C-5.576000213623047,-1.1779999732971191 -9.892999649047852,-1.6790000200271606 -14.173999786376953,-2.563999891281128 C-15.494999885559082,-2.8380000591278076 -16.875,-2.178999900817871 -17.249000549316406,-0.8180000185966492 C-17.589000701904297,0.41999998688697815 -16.83099937438965,1.9819999933242798 -15.503000259399414,2.256999969482422z"/></g><g opacity="1" transform="matrix(1,0,0,1,282.62200927734375,427.74200439453125)"><path fill="rgb(0,45,158)" fill-opacity="1" d=" M-241.82000732421875,-94.33300018310547 C-241.82000732421875,-94.33300018310547 -162.9010009765625,17.125999450683594 16.94099998474121,29.06999969482422 C16.94099998474121,29.06999969482422 167.5449981689453,45.88999938964844 241.82000732421875,-19.856000900268555 C241.82000732421875,-19.856000900268555 162.281005859375,94.33300018310547 -56.654998779296875,36.22700119018555 C-88.08699798583984,27.885000228881836 -186.72300720214844,-10.722000122070312 -241.82000732421875,-94.33300018310547z"/></g><g opacity="1" transform="matrix(1,0,0,1,440.6400146484375,170.60899353027344)"><path fill="rgb(29,29,27)" fill-opacity="1" d=" M41.88999938964844,0.8009999990463257 C41.393001556396484,25.881000518798828 22.236000061035156,45.85499954223633 -0.8999999761581421,45.41299819946289 C-24.03499984741211,44.970001220703125 -42.387001037597656,24.27899932861328 -41.88999938964844,-0.8009999990463257 C-41.39400100708008,-25.881999969482422 -22.236000061035156,-45.854000091552734 0.8989999890327454,-45.4109992980957 C24.03499984741211,-44.96900177001953 42.387001037597656,-24.27899932861328 41.88999938964844,0.8009999990463257z"/></g><g opacity="1" transform="matrix(1,0,0,1,452.4580078125,152.96200561523438)"><path fill="rgb(255,255,255)" fill-opacity="1" d=" M11.824000358581543,0.22599999606609344 C11.684000015258789,7.304999828338623 6.276000022888184,12.942000389099121 -0.2540000081062317,12.817000389099121 C-6.783999919891357,12.692000389099121 -11.96399974822998,6.8520002365112305 -11.822999954223633,-0.22599999606609344 C-11.682999610900879,-7.304999828338623 -6.275000095367432,-12.942000389099121 0.2549999952316284,-12.817000389099121 C6.783999919891357,-12.692000389099121 11.96399974822998,-6.853000164031982 11.824000358581543,0.22599999606609344z"/></g><g opacity="1" transform="matrix(1,0,0,1,430.5190124511719,156.8159942626953)"><path fill="rgb(255,255,255)" fill-opacity="1" d=" M5.732999801635742,0.10999999940395355 C5.664999961853027,3.5420000553131104 3.0420000553131104,6.275000095367432 -0.12399999797344208,6.215000152587891 C-3.2899999618530273,6.1539998054504395 -5.801000118255615,3.322999954223633 -5.732999801635742,-0.10899999737739563 C-5.664999961853027,-3.5409998893737793 -3.0420000553131104,-6.275000095367432 0.12399999797344208,-6.214000225067139 C3.2899999618530273,-6.1539998054504395 5.801000118255615,-3.322000026702881 5.732999801635742,0.10999999940395355z"/></g><g opacity="1" transform="matrix(1,0,0,1,444.7850036621094,178.45899963378906)"><path fill="rgb(255,255,255)" fill-opacity="1" d=" M7.882999897003174,0.1509999930858612 C7.789999961853027,4.869999885559082 4.184000015258789,8.628000259399414 -0.16899999976158142,8.545000076293945 C-4.5229997634887695,8.461999893188477 -7.97599983215332,4.568999767303467 -7.881999969482422,-0.1509999930858612 C-7.789000034332275,-4.869999885559082 -4.184000015258789,-8.628000259399414 0.16899999976158142,-8.545000076293945 C4.521999835968018,-8.461000442504883 7.97599983215332,-4.567999839782715 7.882999897003174,0.1509999930858612z"/></g></g><g transform="matrix(0.9118199944496155,0,0,0.9118199944496155,-2.5009765625,-2.5009765625)" opacity="1" style="display: block;"><g opacity="1" transform="matrix(1,0,0,1,268.0639953613281,173.54200744628906)"><path fill="rgb(255,255,255)" fill-opacity="1" d=" M-101.67400360107422,-27.29800033569336 C-49.23899841308594,-48.83100128173828 40.79600143432617,-90.6259994506836 103.39600372314453,-35.145999908447266 C111.25499725341797,-28.18199920654297 110.43000030517578,-6.041999816894531 104.32599639892578,10.638999938964844 C97.60900115966797,28.9950008392334 89.68599700927734,35.54800033569336 80.64199829101562,42.10200119018555 C55.95899963378906,59.986000061035156 -50.9640007019043,90.6259994506836 -104.88800048828125,1.569000005722046 C-110.51699829101562,-7.728000164031982 -111.25499725341797,-23.363000869750977 -101.67400360107422,-27.29800033569336z"/><path stroke-linecap="butt" stroke-linejoin="miter" fill-opacity="0" stroke-miterlimit="10" stroke="rgb(29,29,27)" stroke-opacity="1" stroke-width="6" d=" M-101.67400360107422,-27.29800033569336 C-49.23899841308594,-48.83100128173828 40.79600143432617,-90.6259994506836 103.39600372314453,-35.145999908447266 C111.25499725341797,-28.18199920654297 110.43000030517578,-6.041999816894531 104.32599639892578,10.638999938964844 C97.60900115966797,28.9950008392334 89.68599700927734,35.54800033569336 80.64199829101562,42.10200119018555 C55.95899963378906,59.986000061035156 -50.9640007019043,90.6259994506836 -104.88800048828125,1.569000005722046 C-110.51699829101562,-7.728000164031982 -111.25499725341797,-23.363000869750977 -101.67400360107422,-27.29800033569336z"/></g><g opacity="1" transform="matrix(1,0,0,1,256.2229919433594,163.61599731445312)"><path fill="rgb(29,29,27)" fill-opacity="1" d=" M43.68199920654297,0.8349999785423279 C43.16400146484375,26.988000869750977 23.187000274658203,47.816001892089844 -0.9380000233650208,47.35499954223633 C-25.062000274658203,46.893001556396484 -44.19900131225586,25.31800079345703 -43.680999755859375,-0.8349999785423279 C-43.16299819946289,-26.988000869750977 -23.18600082397461,-47.814998626708984 0.9380000233650208,-47.354000091552734 C25.062999725341797,-46.891998291015625 44.20000076293945,-25.31800079345703 43.68199920654297,0.8349999785423279z"/></g><g opacity="1" transform="matrix(1,0,0,1,276.18499755859375,149.59100341796875)"><path fill="rgb(255,255,255)" fill-opacity="1" d=" M11.824000358581543,0.22599999606609344 C11.684000015258789,7.304999828338623 6.276000022888184,12.942000389099121 -0.2540000081062317,12.817000389099121 C-6.783999919891357,12.692000389099121 -11.96399974822998,6.8520002365112305 -11.822999954223633,-0.22599999606609344 C-11.682999610900879,-7.304999828338623 -6.275000095367432,-12.942000389099121 0.2549999952316284,-12.817000389099121 C6.783999919891357,-12.692000389099121 11.96399974822998,-6.853000164031982 11.824000358581543,0.22599999606609344z"/></g><g opacity="1" transform="matrix(1,0,0,1,266.36199951171875,175.0469970703125)"><path fill="rgb(255,255,255)" fill-opacity="1" d=" M7.882999897003174,0.1509999930858612 C7.789999961853027,4.869999885559082 4.184000015258789,8.628000259399414 -0.16899999976158142,8.545000076293945 C-4.5229997634887695,8.461999893188477 -7.97599983215332,4.568999767303467 -7.881999969482422,-0.1509999930858612 C-7.789000034332275,-4.869999885559082 -4.184000015258789,-8.628000259399414 0.16899999976158142,-8.545000076293945 C4.521999835968018,-8.461000442504883 7.97599983215332,-4.567999839782715 7.882999897003174,0.1509999930858612z"/></g><g opacity="1" transform="matrix(1,0,0,1,253.89500427246094,153.0489959716797)"><path fill="rgb(255,255,255)" fill-opacity="1" d=" M5.732999801635742,0.10999999940395355 C5.664999961853027,3.5420000553131104 3.0429999828338623,6.275000095367432 -0.12300000339746475,6.215000152587891 C-3.2880001068115234,6.1539998054504395 -5.800000190734863,3.322999954223633 -5.73199987411499,-0.10899999737739563 C-5.664000034332275,-3.5409998893737793 -3.0420000553131104,-6.275000095367432 0.12399999797344208,-6.214000225067139 C3.2899999618530273,-6.1539998054504395 5.801000118255615,-3.322000026702881 5.732999801635742,0.10999999940395355z"/></g></g><g transform="matrix(0.9115462899208069,-0.022339077666401863,0.022339077666401863,0.9115462899208069,-19.425521850585938,2.58416748046875)" opacity="1" style="display: block;"><g opacity="0.41000000000000003" transform="matrix(1,0,0,1,128.33299255371094,381.6659851074219)"><path fill="rgb(168,168,168)" fill-opacity="1" d=" M-91.66699981689453,-147.66600036621094 C-91.66699981689453,-147.66600036621094 -129,129.66700744628906 8.333000183105469,119.0009994506836 C8.333000183105469,119.0009994506836 128.33299255371094,147.66700744628906 98.33300018310547,-147.66600036621094 C98.33300018310547,-147.66600036621094 -91.66699981689453,-147.66600036621094 -91.66699981689453,-147.66600036621094z"/></g><g opacity="1" transform="matrix(1,0,0,1,128,381.6659851074219)"><path stroke-linecap="butt" stroke-linejoin="miter" fill-opacity="0" stroke-miterlimit="10" stroke="rgb(29,29,27)" stroke-opacity="1" stroke-width="8" d=" M-91.33300018310547,-147.66600036621094 C-91.33300018310547,-147.66600036621094 -128.66700744628906,129.66700744628906 8.666000366210938,119.0009994506836 C8.666000366210938,119.0009994506836 128.66600036621094,147.66700744628906 98.66600036621094,-147.66600036621094 C98.66600036621094,-147.66600036621094 -91.33300018310547,-147.66600036621094 -91.33300018310547,-147.66600036621094z"/></g><g opacity="1" transform="matrix(1,0,0,1,132.2519989013672,521.051025390625)"><path fill="rgb(29,29,27)" fill-opacity="1" d=" M-1.5420000553131104,-21.00200080871582 C-2.7660000324249268,-7.27400016784668 -3.436000108718872,6.499000072479248 -3.5510001182556152,20.281999588012695 C-3.578000068664551,23.5 1.4220000505447388,23.503000259399414 1.4490000009536743,20.281999588012695 C1.5640000104904175,6.499000072479248 2.2339999675750732,-7.27400016784668 3.4579999446868896,-21.00200080871582 C3.578000068664551,-22.349000930786133 2.2230000495910645,-23.50200080871582 0.9580000042915344,-23.50200080871582 C-0.49399998784065247,-23.50200080871582 -1.4220000505447388,-22.35300064086914 -1.5420000553131104,-21.00200080871582z"/></g><g opacity="1" transform="matrix(1,0,0,1,133.656005859375,545.2739868164062)"><path fill="rgb(29,29,27)" fill-opacity="1" d=" M-33.66899871826172,8.404000282287598 C-16.211000442504883,7.934999942779541 1.246999979019165,7.4670000076293945 18.704999923706055,6.998000144958496 C23.69300079345703,6.863999843597412 28.680999755859375,6.730000019073486 33.66899871826172,6.5960001945495605 C37.5880012512207,6.491000175476074 41.354000091552734,3.2219998836517334 41.16899871826172,-0.9039999842643738 C40.992000579833984,-4.876999855041504 37.87099838256836,-8.517000198364258 33.66899871826172,-8.404000282287598 C16.211000442504883,-7.934999942779541 -1.246999979019165,-7.466000080108643 -18.704999923706055,-6.998000144958496 C-23.69300079345703,-6.863999843597412 -28.680999755859375,-6.730000019073486 -33.66899871826172,-6.5960001945495605 C-37.58700180053711,-6.491000175476074 -41.354000091552734,-3.2219998836517334 -41.16899871826172,0.9039999842643738 C-40.99100112915039,4.876999855041504 -37.869998931884766,8.517000198364258 -33.66899871826172,8.404000282287598z"/></g><g opacity="1" transform="matrix(1,0,0,1,135.66600036621094,523.0499877929688)"><path fill="rgb(29,29,27)" fill-opacity="1" d=" M-7.876999855041504,-17.711000442504883 C-6.616000175476074,-6.440000057220459 -6.736000061035156,4.941999912261963 -8.232999801635742,16.18400001525879 C-8.144000053405762,15.520000457763672 -8.053999900817871,14.854999542236328 -7.965000152587891,14.1899995803833 C-8.031000137329102,14.67199993133545 -8.097999572753906,15.152000427246094 -8.166999816894531,15.633000373840332 C-8.467000007629395,17.71299934387207 -8.517999649047852,19.520000457763672 -7.410999774932861,21.410999298095703 C-6.500999927520752,22.966999053955078 -4.7170000076293945,24.451000213623047 -2.928999900817871,24.858999252319336 C-1.0089999437332153,25.29599952697754 1.1460000276565552,25.201000213623047 2.8499999046325684,24.10300064086914 C4.372000217437744,23.121000289916992 6.026000022888184,21.5 6.296999931335449,19.6200008392334 C8.083999633789062,7.211999893188477 8.519000053405762,-5.236999988555908 7.123000144958496,-17.711000442504883 C6.894000053405762,-19.76099967956543 6.439000129699707,-21.50200080871582 4.926000118255615,-23.013999938964844 C3.625,-24.315000534057617 1.4910000562667847,-25.295000076293945 -0.37700000405311584,-25.211000442504883 C-2.316999912261963,-25.124000549316406 -4.328000068664551,-24.48699951171875 -5.679999828338623,-23.013999938964844 C-6.939000129699707,-21.64299964904785 -8.093999862670898,-19.64699935913086 -7.876999855041504,-17.711000442504883z"/></g><g opacity="1" transform="matrix(1,0,0,0.9996299743652344,134.34800720214844,425.4779968261719)"><path fill="rgb(12,7,11)" fill-opacity="1" d=" M-99,-79.08599853515625 C-99,-79.08599853515625 93.66699981689453,-78.41799926757812 93.66699981689453,-78.41799926757812 C93.66699981689453,-78.41799926757812 99,70.91400146484375 2.3329999446868896,74.91400146484375 C-98.46800231933594,79.08499908447266 -99,-79.08599853515625 -99,-79.08599853515625z"/></g><g opacity="1" transform="matrix(1,0,0,1,131,246.33299255371094)"><path fill="rgb(255,255,255)" fill-opacity="0.7000000000000001" d=" M-87.66699981689453,-7 C-87.66699981689453,-7 87.66600036621094,-7 87.66600036621094,-7 C87.66600036621094,-7 8.333000183105469,7 -87.66699981689453,-7z"/></g><g opacity="1" transform="matrix(1,0,0,1,139.66700744628906,412.3330078125)"><path fill="rgb(51,29,44)" fill-opacity="1" d=" M-97.66699981689453,-60.33300018310547 C-97.66699981689453,-60.33300018310547 97.66600036621094,-69 -51.66699981689453,69 C-51.66699981689453,69 -96.33399963378906,43.66699981689453 -97.66699981689453,-60.33300018310547z"/></g><g opacity="1" transform="matrix(1,0,0,1,185.33399963378906,421.3330078125)"><path fill="rgb(51,29,44)" fill-opacity="1" d=" M-2.6670000553131104,-72 C-2.6670000553131104,-72 36.66600036621094,-70 36.66600036621094,-70 C36.66600036621094,-70 40,69.33300018310547 -40,72 C-40,72 -1.3339999914169312,-19.33300018310547 -2.6670000553131104,-72z"/></g><g opacity="1" transform="matrix(1,0,0,1,56,384)"><path fill="rgb(255,255,255)" fill-opacity="0.7000000000000001" d=" M-16.66699981689453,-73.33300018310547 C-16.66699981689453,-73.33300018310547 -14,4 1.3329999446868896,48 C16.666000366210938,92 -10,-92 -16.66699981689453,-73.33300018310547z"/></g><g opacity="1" transform="matrix(1,0,0,1,182.66700744628906,369.6669921875)"><path fill="rgb(255,255,255)" fill-opacity="0.7000000000000001" d=" M-8.666999816894531,-123 C-8.666999816894531,-123 28,-123 28,-123 C28,-123 28.666000366210938,26.33300018310547 -28.66699981689453,123 C-28.66699981689453,123 -4,-42.33300018310547 -8.666999816894531,-123z"/></g><g opacity="1" transform="matrix(1,0,0,1,190.66700744628906,451)"><path fill="rgb(0,130,12)" fill-opacity="1" d=" M-48.66699981689453,47 C-48.66699981689453,42.94499969482422 -48.66699981689453,31 -41.33399963378906,19 C-34,7 -34.66699981689453,-28.33300018310547 -16.66699981689453,-34.33300018310547 C13.119000434875488,-44.262001037597656 -10.666999816894531,27.66699981689453 -10.666999816894531,27.66699981689453 C-10.666999816894531,27.66699981689453 6.604000091552734,-42.459999084472656 22,-57 C34,-68.33300018310547 48.66600036621094,-56.33300018310547 43.33300018310547,-40.33300018310547 C40.691001892089844,-32.409000396728516 25.33300018310547,20.33300018310547 25.33300018310547,20.33300018310547 C25.33300018310547,20.33300018310547 36.66600036621094,-15 40,-1.6670000553131104 C43.33300018310547,11.666999816894531 24,66.33300018310547 -12,51.66699981689453 C-12,51.66699981689453 -18.66699981689453,68.33300018310547 -44.66699981689453,60.33300018310547 C-44.66699981689453,60.33300018310547 -48.66699981689453,59 -48.66699981689453,47z"/><path stroke-linecap="round" stroke-linejoin="round" fill-opacity="0" stroke="rgb(29,29,27)" stroke-opacity="1" stroke-width="8" d=" M-48.66699981689453,47 C-48.66699981689453,42.94499969482422 -48.66699981689453,31 -41.33399963378906,19 C-34,7 -34.66699981689453,-28.33300018310547 -16.66699981689453,-34.33300018310547 C13.119000434875488,-44.262001037597656 -10.666999816894531,27.66699981689453 -10.666999816894531,27.66699981689453 C-10.666999816894531,27.66699981689453 6.604000091552734,-42.459999084472656 22,-57 C34,-68.33300018310547 48.66600036621094,-56.33300018310547 43.33300018310547,-40.33300018310547 C40.691001892089844,-32.409000396728516 25.33300018310547,20.33300018310547 25.33300018310547,20.33300018310547 C25.33300018310547,20.33300018310547 36.66600036621094,-15 40,-1.6670000553131104 C43.33300018310547,11.666999816894531 24,66.33300018310547 -12,51.66699981689453 C-12,51.66699981689453 -18.66699981689453,68.33300018310547 -44.66699981689453,60.33300018310547 C-44.66699981689453,60.33300018310547 -48.66699981689453,59 -48.66699981689453,47z"/></g><g opacity="1" transform="matrix(1,0,0,1,73.66699981689453,450.6669921875)"><path fill="rgb(0,130,12)" fill-opacity="1" d=" M53.66699981689453,58 C53.66699981689453,58 49,29.33300018310547 29.66699981689453,30.66699981689453 C29.66699981689453,30.66699981689453 43,-23.33300018310547 27,-30.66699981689453 C-0.34599998593330383,-43.20000076293945 -4.333000183105469,16 -4.333000183105469,16 C-4.333000183105469,16 -16.333999633789062,-62.66699981689453 -35.000999450683594,-64 C-53.66699981689453,-65.33300018310547 -36.33300018310547,1.3329999446868896 -36.33300018310547,1.3329999446868896 C-36.33300018310547,1.3329999446868896 -33.000999450683594,21.33300018310547 -13.00100040435791,28 C-13.00100040435791,28 -2.3329999446868896,54.66699981689453 21,48.66699981689453 C21,48.66699981689453 49.66699981689453,65.33300018310547 53.66699981689453,58z"/><path stroke-linecap="round" stroke-linejoin="round" fill-opacity="0" stroke="rgb(29,29,27)" stroke-opacity="1" stroke-width="8" d=" M53.66699981689453,58 C53.66699981689453,58 49,29.33300018310547 29.66699981689453,30.66699981689453 C29.66699981689453,30.66699981689453 43,-23.33300018310547 27,-30.66699981689453 C-0.34599998593330383,-43.20000076293945 -4.333000183105469,16 -4.333000183105469,16 C-4.333000183105469,16 -16.333999633789062,-62.66699981689453 -35.000999450683594,-64 C-53.66699981689453,-65.33300018310547 -36.33300018310547,1.3329999446868896 -36.33300018310547,1.3329999446868896 C-36.33300018310547,1.3329999446868896 -33.000999450683594,21.33300018310547 -13.00100040435791,28 C-13.00100040435791,28 -2.3329999446868896,54.66699981689453 21,48.66699981689453 C21,48.66699981689453 49.66699981689453,65.33300018310547 53.66699981689453,58z"/></g></g></g></svg>