<svg xmlns="http://www.w3.org/2000/svg" xmlns:xlink="http://www.w3.org/1999/xlink" viewBox="0 0 512 512" width="512" height="512" preserveAspectRatio="xMidYMid meet" style="width: 100%; height: 100%; transform: translate3d(0px, 0px, 0px); content-visibility: visible;"><defs><clipPath id="__lottie_element_2"><rect width="512" height="512" x="0" y="0"/></clipPath></defs><g clip-path="url(#__lottie_element_2)"><g transform="matrix(0.9033187031745911,0,0,0.9155766367912292,-0.090850830078125,-3.56597900390625)" opacity="1" style="display: block;"><g opacity="1" transform="matrix(1,0,0,1,283.9620056152344,432.7569885253906)"><path fill="rgb(0,64,255)" fill-opacity="1" d=" M-252.78599548339844,-74.18499755859375 C-252.78599548339844,-74.18499755859375 -282.9670104980469,8.380000114440918 -258.8219909667969,58.66400146484375 C-234.677001953125,108.947998046875 215.8470001220703,99.01599884033203 255.906005859375,67.97699737548828 C295.9649963378906,36.9370002746582 229.01699829101562,-63.63199996948242 229.01699829101562,-63.63199996948242 C229.01699829101562,-63.63199996948242 -48.10200119018555,-108.9489974975586 -252.78599548339844,-74.18499755859375z"/></g><g opacity="1" transform="matrix(1,0,0,1,290.46099853515625,432.7569885253906)"><path stroke-linecap="butt" stroke-linejoin="miter" fill-opacity="0" stroke-miterlimit="10" stroke="rgb(29,29,27)" stroke-opacity="1" stroke-width="8" d=" M-259.2850036621094,-74.18499755859375 C-259.2850036621094,-74.18499755859375 -289.46600341796875,8.380000114440918 -265.3210144042969,58.66400146484375 C-241.17599487304688,108.947998046875 209.34800720214844,99.01599884033203 249.40699768066406,67.97699737548828 C289.46600341796875,36.9370002746582 222.51800537109375,-63.63199996948242 222.51800537109375,-63.63199996948242 C222.51800537109375,-63.63199996948242 -54.60100173950195,-108.9489974975586 -259.2850036621094,-74.18499755859375z"/></g><g opacity="1" transform="matrix(1,0,0,1,277.26300048828125,233.49099731445312)"><path fill="rgb(0,130,12)" fill-opacity="1" d=" M-246.37399291992188,120.9530029296875 C-246.37399291992188,120.9530029296875 -275.4100036621094,24.965999603271484 -176.70599365234375,-100.33200073242188 C-123.0780029296875,-168.40899658203125 -70.2249984741211,-183.17799377441406 -43.99700164794922,-186.00799560546875 C-34.292999267578125,-187.05499267578125 -18.96500015258789,-184.01699829101562 -9.63700008392334,-180.69200134277344 C-9.63700008392334,-180.69200134277344 39.3380012512207,-156.9459991455078 39.3380012512207,-156.9459991455078 C39.3380012512207,-156.9459991455078 80.16300201416016,-179.33200073242188 128.1439971923828,-180.40699768066406 C176.125,-181.48199462890625 222.41000366210938,-93.30699920654297 222.41000366210938,-93.30699920654297 C222.41000366210938,-93.30699920654297 260.45599365234375,-76.14800262451172 262.3940124511719,-48.202999114990234 C264.22601318359375,-21.799999237060547 275.4100036621094,51.11800003051758 242.80999755859375,127.51599884033203 C239.20899963378906,135.9550018310547 232.5189971923828,142.32000732421875 224.41900634765625,145.04200744628906 C224.41900634765625,145.04200744628906 192.07899475097656,155.9149932861328 192.07899475097656,155.9149932861328 C180.4600067138672,159.8209991455078 168.55299377441406,162.80999755859375 156.46499633789062,164.84500122070312 C132.8520050048828,168.82000732421875 150.07000732421875,168.06399536132812 89.71199798583984,174.8280029296875 C89.71199798583984,174.8280029296875 -40.887001037597656,177.39599609375 -40.887001037597656,177.39599609375 C-40.887001037597656,177.39599609375 -191.1230010986328,187.05499267578125 -246.37399291992188,120.9530029296875z"/><path stroke-linecap="butt" stroke-linejoin="miter" fill-opacity="0" stroke-miterlimit="10" stroke="rgb(29,29,27)" stroke-opacity="1" stroke-width="8" d=" M-246.37399291992188,120.9530029296875 C-246.37399291992188,120.9530029296875 -275.4100036621094,24.965999603271484 -176.70599365234375,-100.33200073242188 C-123.0780029296875,-168.40899658203125 -70.2249984741211,-183.17799377441406 -43.99700164794922,-186.00799560546875 C-34.292999267578125,-187.05499267578125 -18.96500015258789,-184.01699829101562 -9.63700008392334,-180.69200134277344 C-9.63700008392334,-180.69200134277344 39.3380012512207,-156.9459991455078 39.3380012512207,-156.9459991455078 C39.3380012512207,-156.9459991455078 80.16300201416016,-179.33200073242188 128.1439971923828,-180.40699768066406 C176.125,-181.48199462890625 222.41000366210938,-93.30699920654297 222.41000366210938,-93.30699920654297 C222.41000366210938,-93.30699920654297 260.45599365234375,-76.14800262451172 262.3940124511719,-48.202999114990234 C264.22601318359375,-21.799999237060547 275.4100036621094,51.11800003051758 242.80999755859375,127.51599884033203 C239.20899963378906,135.9550018310547 232.5189971923828,142.32000732421875 224.41900634765625,145.04200744628906 C224.41900634765625,145.04200744628906 192.07899475097656,155.9149932861328 192.07899475097656,155.9149932861328 C180.4600067138672,159.8209991455078 168.55299377441406,162.80999755859375 156.46499633789062,164.84500122070312 C132.8520050048828,168.82000732421875 150.07000732421875,168.06399536132812 89.71199798583984,174.8280029296875 C89.71199798583984,174.8280029296875 -40.887001037597656,177.39599609375 -40.887001037597656,177.39599609375 C-40.887001037597656,177.39599609375 -191.1230010986328,187.05499267578125 -246.37399291992188,120.9530029296875z"/></g><g opacity="1" transform="matrix(1,0,0,1,267.3299865722656,104.20099639892578)"><path fill="rgb(29,29,27)" fill-opacity="1" d=" M86.49600219726562,20.759000778198242 C79.61699676513672,10.227999687194824 70.98100280761719,0.9940000176429749 60.72100067138672,-6.302999973297119 C51.16999816894531,-13.097000122070312 40.33300018310547,-18.01799964904785 29.06100082397461,-21.17099952697754 C17.413999557495117,-24.42799949645996 5.25600004196167,-25.836999893188477 -6.822000026702881,-25.899999618530273 C-19.43400001525879,-25.965999603271484 -32.04600143432617,-24.559999465942383 -44.41999816894531,-22.167999267578125 C-57.071998596191406,-19.722000122070312 -69.50800323486328,-16.194000244140625 -81.62999725341797,-11.833000183105469 C-83.13600158691406,-11.291000366210938 -84.63700103759766,-10.734999656677246 -86.13500213623047,-10.168000221252441 C-87.39700317382812,-9.6899995803833 -88.26200103759766,-8.480999946594238 -87.88099670410156,-7.0920000076293945 C-87.5479965209961,-5.882999897003174 -86.07499694824219,-4.866000175476074 -84.80500030517578,-5.3460001945495605 C-72.97200012207031,-9.82800006866455 -60.83700180053711,-13.53499984741211 -48.47200012207031,-16.238000869750977 C-36.51599884033203,-18.85099983215332 -24.347000122070312,-20.511999130249023 -12.104999542236328,-20.841999053955078 C-0.35899999737739563,-21.159000396728516 11.409000396728516,-20.264999389648438 22.85300064086914,-17.597999572753906 C33.93000030517578,-15.017999649047852 44.54999923706055,-10.807999610900879 54.16299819946289,-4.701000213623047 C64.0739974975586,1.597000002861023 72.6989974975586,9.866999626159668 79.53399658203125,19.40999984741211 C80.44400024414062,20.680999755859375 81.322998046875,21.974000930786133 82.1780014038086,23.283000946044922 C83.93099975585938,25.965999603271484 88.26300048828125,23.464000701904297 86.49600219726562,20.759000778198242z"/></g><g opacity="1" transform="matrix(1,0,0,1,249.37899780273438,127.73899841308594)"><path fill="rgb(29,29,27)" fill-opacity="1" d=" M106.4990005493164,-1.6729999780654907 C95.68900299072266,-10.39799976348877 82.52100372314453,-16.41900062561035 69.28299713134766,-20.44700050354004 C55.0260009765625,-24.78499984741211 39.99800109863281,-26.60099983215332 25.117000579833984,-26.371000289916992 C-5.377999782562256,-25.900999069213867 -35.14899826049805,-16.812000274658203 -62.564998626708984,-3.8959999084472656 C-77.74199676513672,3.253999948501587 -92.27200317382812,11.753000259399414 -105.93199920654297,21.4950008392334 C-107.02999877929688,22.277999877929688 -107.55400085449219,23.674999237060547 -106.8290023803711,24.915000915527344 C-106.19400024414062,26 -104.51300048828125,26.600000381469727 -103.40799713134766,25.812000274658203 C-79.44300079345703,8.720999717712402 -52.62699890136719,-4.900000095367432 -24.388999938964844,-13.32699966430664 C3.6040000915527344,-21.68000030517578 33.744998931884766,-24.466999053955078 62.29999923706055,-17.202999114990234 C69.55999755859375,-15.357000350952148 76.62200164794922,-12.840999603271484 83.44100189208984,-9.746000289916992 C90.33399963378906,-6.617000102996826 97.05699920654297,-2.9040000438690186 102.96199798583984,1.8630000352859497 C104.01200103759766,2.7100000381469727 105.4729995727539,2.8889999389648438 106.4990005493164,1.8630000352859497 C107.3759994506836,0.9860000014305115 107.55500030517578,-0.8209999799728394 106.4990005493164,-1.6729999780654907z"/></g><g opacity="1" transform="matrix(1,0,0,1,442.9280090332031,134.23699951171875)"><path fill="rgb(29,29,27)" fill-opacity="1" d=" M88.39600372314453,25.106000900268555 C68.28099822998047,6.4710001945495605 46.104000091552734,-11.04800033569336 20.448999404907227,-21.341999053955078 C7.9730000495910645,-26.347999572753906 -5.198999881744385,-28.902000427246094 -18.575000762939453,-29.924999237060547 C-30.344999313354492,-30.826000213623047 -42.35499954223633,-30.222999572753906 -53.763999938964844,-27.020999908447266 C-66.91100311279297,-23.33099937438965 -78.65299987792969,-16.13599967956543 -88.44300079345703,-6.677999973297119 C-90.76200103759766,-4.438000202178955 -87.2239990234375,-0.9049999713897705 -84.90799713134766,-3.1429998874664307 C-76.60299682617188,-11.166000366210938 -66.80000305175781,-17.534000396728516 -55.80099868774414,-21.17099952697754 C-45.04499816894531,-24.726999282836914 -33.70500183105469,-25.70599937438965 -22.433000564575195,-25.166000366210938 C-9.793999671936035,-24.56100082397461 2.86899995803833,-22.44700050354004 14.79699993133545,-18.165000915527344 C27.34600067138672,-13.66100025177002 39.084999084472656,-7.052000045776367 50.08300018310547,0.4320000112056732 C62.44200134277344,8.842000007629395 73.90399932861328,18.492000579833984 84.86000061035156,28.64299964904785 C87.21800231933594,30.82699966430664 90.76300048828125,27.29800033569336 88.39600372314453,25.106000900268555z"/></g><g opacity="1" transform="matrix(1,0,0,1,509.7820129394531,203.67599487304688)"><path fill="rgb(29,29,27)" fill-opacity="1" d=" M-26.34000015258789,37.84600067138672 C-12.579000473022461,35.53200149536133 0.4690000116825104,28.72599983215332 11.37399959564209,20.18600082397461 C16.482999801635742,16.18600082397461 21.795000076293945,11.501999855041504 25.07200050354004,5.822999954223633 C28.371999740600586,0.10400000214576721 29.5310001373291,-6.561999797821045 29.6299991607666,-13.093000411987305 C29.746999740600586,-20.780000686645508 28.481000900268555,-28.42300033569336 27.31599998474121,-35.99599838256836 C27.110000610351562,-37.332000732421875 25.43400001525879,-38.07099914550781 24.240999221801758,-37.74300003051758 C22.81399917602539,-37.35100173950195 22.288000106811523,-36.00699996948242 22.493999481201172,-34.66699981689453 C23.466999053955078,-28.34600067138672 24.4689998626709,-22.006000518798828 24.618999481201172,-15.600000381469727 C24.7549991607666,-9.756999969482422 24.2189998626709,-3.638000011444092 21.61400032043457,1.684000015258789 C18.94700050354004,7.133999824523926 14.17199993133545,11.461000442504883 9.555999755859375,15.270999908447266 C4.464000225067139,19.472999572753906 -1.1679999828338623,23.054000854492188 -7.056000232696533,26.030000686645508 C-13.550999641418457,29.312000274658203 -20.479000091552734,31.815000534057617 -27.66900062561035,33.025001525878906 C-29.00200080871582,33.249000549316406 -29.746999740600586,34.893001556396484 -29.415000915527344,36.099998474121094 C-29.027000427246094,37.512001037597656 -27.676000595092773,38.07099914550781 -26.34000015258789,37.84600067138672z"/></g><g opacity="1" transform="matrix(1,0,0,1,355.63800048828125,145.88400268554688)"><path fill="rgb(29,29,27)" fill-opacity="1" d=" M10.04699993133545,23.417999267578125 C11.177000045776367,15.322999954223633 11.392000198364258,7.059999942779541 9.383999824523926,-0.925000011920929 C7.848999977111816,-7.031000137329102 5.1479997634887695,-13.156999588012695 0.8539999723434448,-17.83099937438965 C-1.5399999618530273,-20.437000274658203 -4.388000011444092,-22.594999313354492 -7.229000091552734,-24.684999465942383 C-8.317000389099121,-25.485000610351562 -10.017999649047852,-24.865999221801758 -10.64900016784668,-23.788000106811523 C-11.392000198364258,-22.51799964904785 -10.843000411987305,-21.170000076293945 -9.751999855041504,-20.367000579833984 C-6.931000232696533,-18.29199981689453 -4.160999774932861,-16.090999603271484 -1.8940000534057617,-13.402000427246094 C-0.014000000432133675,-11.170000076293945 1.5290000438690186,-8.232999801635742 2.6619999408721924,-5.388000011444092 C6.1570000648498535,3.38700008392334 6.520999908447266,12.809000015258789 5.22599983215332,22.089000701904297 C5.039000034332275,23.423999786376953 5.551000118255615,24.77400016784668 6.9720001220703125,25.163999557495117 C8.140999794006348,25.485000610351562 9.859000205993652,24.763999938964844 10.04699993133545,23.417999267578125z"/></g><g opacity="1" transform="matrix(1,0,0,1,330.51800537109375,304.75201416015625)"><path fill="rgb(188,73,31)" fill-opacity="1" d=" M-73.1989974975586,-20.948999404907227 C-58.242000579833984,-17.368999481201172 37.41299819946289,1.6349999904632568 137.54400634765625,-35.266998291015625 C138.6719970703125,-35.68299865722656 139.77699279785156,-36.198001861572266 140.8730010986328,-36.801998138427734 C146.7830047607422,-40.06100082397461 168.6529998779297,-50.79999923706055 170.5760040283203,-32.46699905395508 C171.02099609375,-28.222999572753906 170.84100341796875,-23.815000534057617 170.2689971923828,-19.476999282836914 C167.71400451660156,-0.10100000351667404 139.89999389648438,19.54800033569336 127.42500305175781,23.40999984741211 C90.75499725341797,34.76300048828125 5.8420000076293945,56.1609992980957 -95.11199951171875,29.975000381469727 C-103.50399780273438,27.79800033569336 -124.40699768066406,22.099000930786133 -132.18499755859375,18.201000213623047 C-149.98199462890625,9.281999588012695 -171.02200317382812,1.0260000228881836 -165.77000427246094,-21.597999572753906 C-157.7480010986328,-56.15999984741211 -110.05500030517578,-33.36199951171875 -94.12200164794922,-28.01799964904785 C-93.125,-27.683000564575195 -74.19999694824219,-21.187999725341797 -73.1989974975586,-20.948999404907227z"/><path stroke-linecap="butt" stroke-linejoin="miter" fill-opacity="0" stroke-miterlimit="10" stroke="rgb(29,29,27)" stroke-opacity="1" stroke-width="6" d=" M-73.1989974975586,-20.948999404907227 C-58.242000579833984,-17.368999481201172 37.41299819946289,1.6349999904632568 137.54400634765625,-35.266998291015625 C138.6719970703125,-35.68299865722656 139.77699279785156,-36.198001861572266 140.8730010986328,-36.801998138427734 C146.7830047607422,-40.06100082397461 168.6529998779297,-50.79999923706055 170.5760040283203,-32.46699905395508 C171.02099609375,-28.222999572753906 170.84100341796875,-23.815000534057617 170.2689971923828,-19.476999282836914 C167.71400451660156,-0.10100000351667404 139.89999389648438,19.54800033569336 127.42500305175781,23.40999984741211 C90.75499725341797,34.76300048828125 5.8420000076293945,56.1609992980957 -95.11199951171875,29.975000381469727 C-103.50399780273438,27.79800033569336 -124.40699768066406,22.099000930786133 -132.18499755859375,18.201000213623047 C-149.98199462890625,9.281999588012695 -171.02200317382812,1.0260000228881836 -165.77000427246094,-21.597999572753906 C-157.7480010986328,-56.15999984741211 -110.05500030517578,-33.36199951171875 -94.12200164794922,-28.01799964904785 C-93.125,-27.683000564575195 -74.19999694824219,-21.187999725341797 -73.1989974975586,-20.948999404907227z"/></g><g opacity="1" transform="matrix(1,0,0,1,334.4649963378906,299.7749938964844)"><path fill="rgb(29,29,27)" fill-opacity="1" d=" M-164.86900329589844,-18.249000549316406 C-141.98699951171875,-4.85699987411499 -117.05999755859375,4.879000186920166 -91.4260025024414,11.531000137329102 C-66.197998046875,18.07900047302246 -40.21699905395508,21.72100067138672 -14.197999954223633,22.996999740600586 C10.218999862670898,24.19499969482422 34.75699996948242,23.312000274658203 59.02199935913086,20.343000411987305 C79.93199920654297,17.78499984741211 100.75599670410156,13.798999786376953 120.87899780273438,7.499000072479248 C135.4429931640625,2.940000057220459 150.39199829101562,-2.700000047683716 162.89999389648438,-11.631999969482422 C164.15899658203125,-12.531999588012695 165.38999938964844,-13.472999572753906 166.59100341796875,-14.447999954223633 C167.6479949951172,-15.305999755859375 167.46600341796875,-17.089000701904297 166.59100341796875,-17.983999252319336 C165.5659942626953,-19.0310001373291 164.09800720214844,-18.829999923706055 163.05599975585938,-17.983999252319336 C162.7899932861328,-17.76799964904785 162.5229949951172,-17.55500030517578 162.2550048828125,-17.343000411987305 C161.72900390625,-16.92799949645996 162.51400756835938,-17.538999557495117 162.1840057373047,-17.285999298095703 C162.0449981689453,-17.179000854492188 161.906005859375,-17.072999954223633 161.76600646972656,-16.966999053955078 C161.16000366210938,-16.513999938964844 160.5489959716797,-16.06800079345703 159.92999267578125,-15.633000373840332 C158.6510009765625,-14.734000205993652 157.343994140625,-13.878000259399414 156.01600646972656,-13.055000305175781 C153.14999389648438,-11.279000282287598 150.18800354003906,-9.66100025177002 147.1719970703125,-8.156000137329102 C139.99200439453125,-4.572000026702881 132.75399780273438,-1.7269999980926514 125.10199737548828,0.8690000176429749 C106.02899932861328,7.336999893188477 86.19400024414062,11.553999900817871 66.2750015258789,14.38599967956543 C42.67499923706055,17.740999221801758 18.7450008392334,19.00200080871582 -5.078999996185303,18.34600067138672 C-30.670000076293945,17.642000198364258 -56.222999572753906,14.656999588012695 -81.17900085449219,8.895000457763672 C-106.41000366210938,3.069999933242798 -131.05099487304688,-5.591000080108643 -153.9040069580078,-17.83300018310547 C-156.7480010986328,-19.356000900268555 -159.56199645996094,-20.937000274658203 -162.3459930419922,-22.56599998474121 C-165.12899780273438,-24.19499969482422 -167.6479949951172,-19.875 -164.86900329589844,-18.249000549316406z"/></g><g opacity="1" transform="matrix(1,0,0,1,273.9150085449219,404.4909973144531)"><path fill="rgb(4,50,165)" fill-opacity="1" d=" M-239.47000122070312,-41.60200119018555 C-240.0850067138672,-42.78499984741211 -203.47000122070312,11.286999702453613 -65.69200134277344,9.508999824523926 C72.08599853515625,7.730999946594238 128.0850067138672,17.065000534057617 240.0850067138672,-26.934999465942383 C240.0850067138672,-26.934999465942383 227.97300720214844,34.17599868774414 1.3070000410079956,42.17599868774414 C-15.963000297546387,42.78499984741211 -68.33399963378906,38.47100067138672 -85.35900115966797,35.50899887084961 C-139.7779998779297,26.04199981689453 -208.6840057373047,17.628000259399414 -239.47000122070312,-41.60200119018555z"/></g><g opacity="1" transform="matrix(1,0,0,1,151.68499755859375,294.5150146484375)"><path fill="rgb(29,29,27)" fill-opacity="1" d=" M-1.4270000457763672,-28.25200080871582 C-9.572999954223633,-14.194999694824219 -10.147000312805176,3.302000045776367 -2.9560000896453857,17.857999801635742 C-1.0160000324249268,21.785999298095703 1.50600004196167,25.410999298095703 4.449999809265137,28.650999069213867 C6.61899995803833,31.038000106811523 10.147000312805176,27.493999481201172 7.986000061035156,25.115999221801758 C-1.5609999895095825,14.607999801635742 -5.150000095367432,-0.38600000739097595 -1.7790000438690186,-14.130999565124512 C-0.7770000100135803,-18.214000701904297 0.781000018119812,-22.090999603271484 2.8889999389648438,-25.72800064086914 C4.50600004196167,-28.51799964904785 0.18799999356269836,-31.038000106811523 -1.4270000457763672,-28.25200080871582z"/></g><g opacity="1" transform="matrix(1,0,0,1,514.1439819335938,280.1090087890625)"><path fill="rgb(29,29,27)" fill-opacity="1" d=" M-3.562000036239624,-18.927000045776367 C1.840000033378601,-7.372000217437744 1.0829999446868896,6.681000232696533 -5.308000087738037,17.677000045776367 C-6.927999973297119,20.46500015258789 -2.6080000400543213,22.985000610351562 -0.9900000095367432,20.201000213623047 C6.353000164031982,7.566999912261963 6.928999900817871,-8.246999740600586 0.7549999952316284,-21.451000213623047 C0.18400000035762787,-22.673999786376953 -1.5759999752044678,-22.985000610351562 -2.6649999618530273,-22.347000122070312 C-3.9189999103546143,-21.61400032043457 -4.136000156402588,-20.155000686645508 -3.562000036239624,-18.927000045776367z"/></g><g opacity="1" transform="matrix(1,0,0,1,423.4830017089844,101.9229965209961)"><path fill="rgb(29,29,27)" fill-opacity="1" d=" M67.87100219726562,20.98699951171875 C56.62099838256836,6.427000045776367 41.819000244140625,-5.414000034332275 25.184999465942383,-13.276000022888184 C7.182000160217285,-21.78499984741211 -12.845000267028809,-25.591999053955078 -32.72100067138672,-24.253999710083008 C-44.36899948120117,-23.4689998626709 -55.88600158691406,-21.010000228881836 -66.7969970703125,-16.849000930786133 C-68.05699920654297,-16.368000030517578 -68.92500305175781,-15.164999961853027 -68.54299926757812,-13.77400016784668 C-68.21099853515625,-12.565999984741211 -66.73600006103516,-11.543999671936035 -65.46700286865234,-12.027000427246094 C-46.875,-19.118000030517578 -26.427000045776367,-21.31399917602539 -6.770999908447266,-18.082000732421875 C11.361000061035156,-15.100000381469727 28.506999969482422,-7.620999813079834 43.15399932861328,3.4570000171661377 C51.112998962402344,9.47599983215332 58.237998962402344,16.631000518798828 64.33499908447266,24.523000717163086 C65.16200256347656,25.591999053955078 67.00199890136719,25.392000198364258 67.87100219726562,24.523000717163086 C68.9260025024414,23.466999053955078 68.6989974975586,22.05900001525879 67.87100219726562,20.98699951171875z"/></g><g opacity="1" transform="matrix(1,0,0,1,283.3810119628906,227.16700744628906)"><path fill="rgb(29,29,27)" fill-opacity="1" d=" M60.349998474121094,-20.429000854492188 C50.667999267578125,-7.585000038146973 35.96900177001953,1.3200000524520874 21.027000427246094,6.99399995803833 C4.2210001945495605,13.375 -13.892000198364258,16.35099983215332 -31.850000381469727,16.041000366210938 C-41.694000244140625,15.871999740600586 -51.50199890136719,14.675999641418457 -61.034000396728516,12.187999725341797 C-64.1500015258789,11.375 -65.4800033569336,16.195999145507812 -62.36399841308594,17.010000228881836 C-44.42100143432617,21.69099998474121 -25.496999740600586,22.075000762939453 -7.208000183105469,19.398000717163086 C10.687999725341797,16.780000686645508 28.570999145507812,10.99899959564209 43.82699966430664,1.1349999904632568 C51.79600143432617,-4.017000198364258 58.94599914550781,-10.3149995803833 64.66699981689453,-17.90399932861328 C65.48100280761719,-18.982999801635742 64.83999633789062,-20.700000762939453 63.77000045776367,-21.325000762939453 C62.4900016784668,-22.073999404907227 61.165000915527344,-21.51099967956543 60.349998474121094,-20.429000854492188z"/></g></g><g transform="matrix(0.7504021525382996,0,0,0.8095200061798096,59.35101318359375,46.49754333496094)" opacity="1" style="display: block;"><g opacity="1" transform="matrix(1,0,0,1,397.03900146484375,442.0060119628906)"><path fill="rgb(0,130,12)" fill-opacity="1" d=" M47.88999938964844,49.71900177001953 C80.98500061035156,40.00299835205078 107.81600189208984,-9.73799991607666 68.73600006103516,-40.50400161743164 C61.255001068115234,-46.39400100708008 54.02299880981445,-47.15999984741211 42.26900100708008,-48.404998779296875 C16.229000091552734,-51.16299819946289 4.873000144958496,-50.96200180053711 -14.593999862670898,-50.5880012512207 C-23.388999938964844,-50.41899871826172 -86.62100219726562,-51.7599983215332 -94.39399719238281,-47.641998291015625 C-101.8479995727539,-43.69300079345703 -107.81500244140625,-38.17900085449219 -104.99199676513672,-30.604999542236328 C-95.88300323486328,-6.168000221252441 -13.46399974822998,-11.677000045776367 -1.2359999418258667,-14.149999618530273 C-1.2359999418258667,-14.149999618530273 -17.40399932861328,51.736000061035156 37.819000244140625,51.75899887084961 C37.819000244140625,51.75899887084961 47.137001037597656,49.939998626708984 47.88999938964844,49.71900177001953z"/><path stroke-linecap="round" stroke-linejoin="round" fill-opacity="0" stroke="rgb(29,29,27)" stroke-opacity="1" stroke-width="8" d=" M47.88999938964844,49.71900177001953 C80.98500061035156,40.00299835205078 107.81600189208984,-9.73799991607666 68.73600006103516,-40.50400161743164 C61.255001068115234,-46.39400100708008 54.02299880981445,-47.15999984741211 42.26900100708008,-48.404998779296875 C16.229000091552734,-51.16299819946289 4.873000144958496,-50.96200180053711 -14.593999862670898,-50.5880012512207 C-23.388999938964844,-50.41899871826172 -86.62100219726562,-51.7599983215332 -94.39399719238281,-47.641998291015625 C-101.8479995727539,-43.69300079345703 -107.81500244140625,-38.17900085449219 -104.99199676513672,-30.604999542236328 C-95.88300323486328,-6.168000221252441 -13.46399974822998,-11.677000045776367 -1.2359999418258667,-14.149999618530273 C-1.2359999418258667,-14.149999618530273 -17.40399932861328,51.736000061035156 37.819000244140625,51.75899887084961 C37.819000244140625,51.75899887084961 47.137001037597656,49.939998626708984 47.88999938964844,49.71900177001953z"/></g><g opacity="1" transform="matrix(1,0,0,1,485.97100830078125,466.0589904785156)"><path fill="rgb(0,64,255)" fill-opacity="1" d=" M44.02899932861328,-2.187999963760376 C44.02899932861328,-2.187999963760376 17.1200008392334,-10.331999778747559 5.875,-21.985000610351562 C-5.369999885559082,-33.63800048828125 -44.02899932861328,25.371999740600586 -44.02899932861328,25.371999740600586 C-44.02899932861328,25.371999740600586 -31.636999130249023,33.638999938964844 -31.636999130249023,33.638999938964844"/><path stroke-linecap="round" stroke-linejoin="round" fill-opacity="0" stroke="rgb(29,29,27)" stroke-opacity="1" stroke-width="8" d=" M44.02899932861328,-2.187999963760376 C44.02899932861328,-2.187999963760376 17.1200008392334,-10.331999778747559 5.875,-21.985000610351562 C-5.369999885559082,-33.63800048828125 -44.02899932861328,25.371999740600586 -44.02899932861328,25.371999740600586 C-44.02899932861328,25.371999740600586 -31.636999130249023,33.638999938964844 -31.636999130249023,33.638999938964844"/></g></g><g transform="matrix(0.7812972068786621,0,0,0.8095200061798096,21.671600341796875,47.26460266113281)" opacity="1" style="display: block;"><g opacity="1" transform="matrix(1,0,0,1,174.34800720214844,440.13299560546875)"><path fill="rgb(0,130,12)" fill-opacity="1" d=" M-47.66699981689453,49.48699951171875 C-80.60800170898438,39.81700134277344 -107.31400299072266,-9.692999839782715 -68.41600036621094,-40.316001892089844 C-60.970001220703125,-46.178001403808594 -53.77199935913086,-46.941001892089844 -42.071998596191406,-48.18000030517578 C-16.152999877929688,-50.92499923706055 -4.849999904632568,-50.72600173950195 14.526000022888184,-50.35300064086914 C23.280000686645508,-50.185001373291016 86.21800231933594,-51.51900100708008 93.95500183105469,-47.41999816894531 C101.3740005493164,-43.4900016784668 107.31400299072266,-38.00199890136719 104.50299835205078,-30.46299934387207 C95.43699645996094,-6.139999866485596 13.402000427246094,-11.621999740600586 1.2300000190734863,-14.083000183105469 C1.2300000190734863,-14.083000183105469 17.322999954223633,51.49599838256836 -37.643001556396484,51.51900100708008 C-37.643001556396484,51.51900100708008 -46.917999267578125,49.707000732421875 -47.66699981689453,49.48699951171875z"/><path stroke-linecap="round" stroke-linejoin="round" fill-opacity="0" stroke="rgb(29,29,27)" stroke-opacity="1" stroke-width="8" d=" M-47.66699981689453,49.48699951171875 C-80.60800170898438,39.81700134277344 -107.31400299072266,-9.692999839782715 -68.41600036621094,-40.316001892089844 C-60.970001220703125,-46.178001403808594 -53.77199935913086,-46.941001892089844 -42.071998596191406,-48.18000030517578 C-16.152999877929688,-50.92499923706055 -4.849999904632568,-50.72600173950195 14.526000022888184,-50.35300064086914 C23.280000686645508,-50.185001373291016 86.21800231933594,-51.51900100708008 93.95500183105469,-47.41999816894531 C101.3740005493164,-43.4900016784668 107.31400299072266,-38.00199890136719 104.50299835205078,-30.46299934387207 C95.43699645996094,-6.139999866485596 13.402000427246094,-11.621999740600586 1.2300000190734863,-14.083000183105469 C1.2300000190734863,-14.083000183105469 17.322999954223633,51.49599838256836 -37.643001556396484,51.51900100708008 C-37.643001556396484,51.51900100708008 -46.917999267578125,49.707000732421875 -47.66699981689453,49.48699951171875z"/></g><g opacity="1" transform="matrix(1,0,0,1,84.49299621582031,464.0740051269531)"><path fill="rgb(0,64,255)" fill-opacity="1" d=" M-45.15999984741211,-1.1009999513626099 C-45.15999984741211,-1.1009999513626099 -15.704999923706055,-10.28499984741211 -4.51200008392334,-21.884000778198242 C6.681000232696533,-33.481998443603516 45.15999984741211,25.253000259399414 45.15999984741211,25.253000259399414 C45.15999984741211,25.253000259399414 32.82500076293945,33.481998443603516 32.82500076293945,33.481998443603516"/><path stroke-linecap="round" stroke-linejoin="round" fill-opacity="0" stroke="rgb(29,29,27)" stroke-opacity="1" stroke-width="8" d=" M-45.15999984741211,-1.1009999513626099 C-45.15999984741211,-1.1009999513626099 -15.704999923706055,-10.28499984741211 -4.51200008392334,-21.884000778198242 C6.681000232696533,-33.481998443603516 45.15999984741211,25.253000259399414 45.15999984741211,25.253000259399414 C45.15999984741211,25.253000259399414 32.82500076293945,33.481998443603516 32.82500076293945,33.481998443603516"/></g></g><g transform="matrix(0.9365100264549255,0,0,0.9802074432373047,-19.250579833984375,-15.888824462890625)" opacity="1" style="display: block;"><g opacity="1" transform="matrix(1,0,0,1,442.32598876953125,166.9459991455078)"><path fill="rgb(255,255,255)" fill-opacity="1" d=" M-100,5.058000087738037 C-74.49400329589844,-20.243000030517578 46.465999603271484,-79.27799987792969 98.98699951171875,0.5080000162124634 C103.15699768066406,6.8420000076293945 105.63099670410156,13.942999839782715 100.76599884033203,19.833999633789062 C96.74500274658203,24.702999114990234 91.15499877929688,30.77400016784668 83.95099639892578,37.03300094604492 C65.05500030517578,53.45000076293945 -45.435001373291016,79.27799987792969 -99.97799682617188,24.891000747680664 C-105.59300231933594,19.291000366210938 -105.63099670410156,10.644000053405762 -100,5.058000087738037z"/><path stroke-linecap="butt" stroke-linejoin="miter" fill-opacity="0" stroke-miterlimit="10" stroke="rgb(29,29,27)" stroke-opacity="1" stroke-width="6" d=" M-100,5.058000087738037 C-74.49400329589844,-20.243000030517578 46.465999603271484,-79.27799987792969 98.98699951171875,0.5080000162124634 C103.15699768066406,6.8420000076293945 105.63099670410156,13.942999839782715 100.76599884033203,19.833999633789062 C96.74500274658203,24.702999114990234 91.15499877929688,30.77400016784668 83.95099639892578,37.03300094604492 C65.05500030517578,53.45000076293945 -45.435001373291016,79.27799987792969 -99.97799682617188,24.891000747680664 C-105.59300231933594,19.291000366210938 -105.63099670410156,10.644000053405762 -100,5.058000087738037z"/></g><g opacity="1" transform="matrix(1,0,0,1,274.8840026855469,165.84800720214844)"><path fill="rgb(255,255,255)" fill-opacity="1" d=" M-102.47899627685547,4.257999897003174 C-76.34100341796875,-21.670000076293945 33.1510009765625,-80.31900024414062 101.44100189208984,-0.4050000011920929 C106.53299713134766,5.554999828338623 108.25,13.36400032043457 103.26300048828125,19.400999069213867 C99.14299774169922,24.389999389648438 93.41500091552734,30.611000061035156 86.03299713134766,37.025001525878906 C66.66799926757812,53.849998474121094 -46.56100082397461,80.31900024414062 -102.45600128173828,24.582000732421875 C-108.21099853515625,18.8439998626709 -108.25,9.982999801635742 -102.47899627685547,4.257999897003174z"/><path stroke-linecap="butt" stroke-linejoin="miter" fill-opacity="0" stroke-miterlimit="10" stroke="rgb(29,29,27)" stroke-opacity="1" stroke-width="6" d=" M-102.47899627685547,4.257999897003174 C-76.34100341796875,-21.670000076293945 33.1510009765625,-80.31900024414062 101.44100189208984,-0.4050000011920929 C106.53299713134766,5.554999828338623 108.25,13.36400032043457 103.26300048828125,19.400999069213867 C99.14299774169922,24.389999389648438 93.41500091552734,30.611000061035156 86.03299713134766,37.025001525878906 C66.66799926757812,53.849998474121094 -46.56100082397461,80.31900024414062 -102.45600128173828,24.582000732421875 C-108.21099853515625,18.8439998626709 -108.25,9.982999801635742 -102.47899627685547,4.257999897003174z"/></g><g opacity="1" transform="matrix(1,0,0,1,304.12799072265625,170.3090057373047)"><path fill="rgb(29,29,27)" fill-opacity="1" d=" M54.12799835205078,0 C54.12799835205078,26.2810001373291 29.89299964904785,47.58599853515625 -0.0010000000474974513,47.58599853515625 C-29.893999099731445,47.58599853515625 -54.12799835205078,26.2810001373291 -54.12799835205078,0 C-54.12799835205078,-26.2810001373291 -29.893999099731445,-47.58599853515625 -0.0010000000474974513,-47.58599853515625 C29.89299964904785,-47.58599853515625 54.12799835205078,-26.2810001373291 54.12799835205078,0z"/></g><g opacity="1" transform="matrix(1,0,0,1,470.65301513671875,170.5030059814453)"><path fill="rgb(29,29,27)" fill-opacity="1" d=" M53.16600036621094,0 C53.16600036621094,25.25 29.363000869750977,45.71900177001953 0.0010000000474974513,45.71900177001953 C-29.36199951171875,45.71900177001953 -53.165000915527344,25.25 -53.165000915527344,0 C-53.165000915527344,-25.25 -29.36199951171875,-45.71900177001953 0.0010000000474974513,-45.71900177001953 C29.363000869750977,-45.71900177001953 53.16600036621094,-25.25 53.16600036621094,0z"/></g><g opacity="1" transform="matrix(1,0,0,1,318.8139953613281,157.54200744628906)"><path fill="rgb(255,255,255)" fill-opacity="1" d=" M20.518999099731445,0 C20.518999099731445,10.524999618530273 11.331999778747559,19.05699920654297 0,19.05699920654297 C-11.331999778747559,19.05699920654297 -20.518999099731445,10.524999618530273 -20.518999099731445,0 C-20.518999099731445,-10.524999618530273 -11.331999778747559,-19.05699920654297 0,-19.05699920654297 C11.331999778747559,-19.05699920654297 20.518999099731445,-10.524999618530273 20.518999099731445,0z"/></g><g opacity="1" transform="matrix(1,0,0,1,484.1919860839844,157.9010009765625)"><path fill="rgb(255,255,255)" fill-opacity="1" d=" M20.475000381469727,0 C20.475000381469727,10.501999855041504 11.307999610900879,19.016000747680664 0,19.016000747680664 C-11.307999610900879,19.016000747680664 -20.475000381469727,10.501999855041504 -20.475000381469727,0 C-20.475000381469727,-10.501999855041504 -11.307999610900879,-19.016000747680664 0,-19.016000747680664 C11.307999610900879,-19.016000747680664 20.475000381469727,-10.501999855041504 20.475000381469727,0z"/></g><g opacity="1" transform="matrix(1,0,0,1,282.8890075683594,181.55499267578125)"><path fill="rgb(255,255,255)" fill-opacity="1" d=" M7.125,0 C7.125,3.6549999713897705 3.934999942779541,6.617000102996826 0,6.617000102996826 C-3.934999942779541,6.617000102996826 -7.125,3.6549999713897705 -7.125,0 C-7.125,-3.6549999713897705 -3.934999942779541,-6.617000102996826 0,-6.617000102996826 C3.934999942779541,-6.617000102996826 7.125,-3.6549999713897705 7.125,0z"/></g><g opacity="1" transform="matrix(1,0,0,1,447.8550109863281,180.44400024414062)"><path fill="rgb(255,255,255)" fill-opacity="1" d=" M6.870999813079834,0 C6.870999813079834,3.5239999294281006 3.7939999103546143,6.38100004196167 0,6.38100004196167 C-3.7950000762939453,6.38100004196167 -6.870999813079834,3.5239999294281006 -6.870999813079834,0 C-6.870999813079834,-3.5239999294281006 -3.7950000762939453,-6.38100004196167 0,-6.38100004196167 C3.7939999103546143,-6.38100004196167 6.870999813079834,-3.5239999294281006 6.870999813079834,0z"/></g></g><g transform="matrix(0.9083662629127502,0,0,0.9285561442375183,-1.2152099609375,-6.019073486328125)" opacity="0.67" style="display: block;"><g opacity="1" transform="matrix(1,0,0,1,106.73600006103516,236.3820037841797)"><path fill="rgb(255,111,113)" fill-opacity="1" d=" M49.63800048828125,10.821999549865723 C45.138999938964844,31.458999633789062 19.26799964904785,43.34299850463867 -8.147000312805176,37.367000579833984 C-35.56100082397461,31.389999389648438 -54.137001037597656,9.815999984741211 -49.63800048828125,-10.821000099182129 C-45.138999938964844,-31.45800018310547 -19.26799964904785,-43.34299850463867 8.145999908447266,-37.36600112915039 C35.56100082397461,-31.389999389648438 54.137001037597656,-9.8149995803833 49.63800048828125,10.821999549865723z"/></g><g opacity="1" transform="matrix(1,0,0,1,524.114990234375,232.40899658203125)"><path fill="rgb(255,111,113)" fill-opacity="1" d=" M28.91200065612793,-5.328999996185303 C31.378000259399414,8.050999641418457 20.433000564575195,21.28499984741211 4.465000152587891,24.226999282836914 C-11.503000259399414,27.170000076293945 -26.445999145507812,18.70800018310547 -28.91200065612793,5.328000068664551 C-31.378000259399414,-8.052000045776367 -20.433000564575195,-21.28499984741211 -4.465000152587891,-24.22800064086914 C11.503000259399414,-27.170000076293945 26.445999145507812,-18.708999633789062 28.91200065612793,-5.328999996185303z"/></g></g></g></svg>